<?xml version="1.0" encoding="UTF-8"?>
<svg width="297mm" height="210mm" version="1.1" viewBox="0 0 1052.3622 744.09448" xmlns="http://www.w3.org/2000/svg">
 <path d="m717.85 334.76c-0.52828-3e-3 -0.96423 0.29575-1.4668 0.61133-2.7022 3.763-6.8534 5.845-10.83 7.9492-0.57745 0.19873-1.0119 0.60514-1.2969 1.0938-0.34408-0.13553-0.72896-0.19457-1.1406-0.14454-2.2838 0.51092-5.0376 0.57181-6.7988 2.2539-1.1571 2.347 1.6954 4.7959 3.8906 4.9414 2.0102-0.27393 3.5367-1.8831 5.168-2.9512 0.17103-0.20766 0.29933-0.43345 0.38867-0.66797 3.2674-0.27231 6.2386-2.208 9.5742-2.3945 5.1731-0.80295 10.524 0.56826 15.51 2.0176 2.8952-0.20585 2.8972-3.9579 4.2031-5.8672 0.81811-2.7369-2.4857-3.1111-4.4219-2.8887-4.4112 0.10505-8.36-2.0742-12.215-3.8398-0.20215-0.078-0.38836-0.11243-0.56445-0.11328z" fill="#c00"/>
 <path d="m620.33 28.391c-0.23548 0.0072-0.47488 0.05713-0.71094 0.1582l-0.51171 0.06641c-1.392 0.181-3.4436 0.33883-4.3203 1.5195-0.38387-0.12898-0.82736-0.18666-1.3418-0.13086-23.286 4.512-38.357 24.933-49.939 43.998-1.7097 2.6726-3.6873 6.1389-5.4863 8.2637 0.51228-1.7578 0.5799-3.4717 0.40235-5.1621 6e-3 -0.02412 0.0121-0.04813 0.0176-0.07227 0.0361-0.1872-0.0124-0.34979-0.084-0.50586-0.74541-5.3688-3.8911-10.522-3.7812-16.111 0.10477-0.74332-6e-3 -1.4765-0.25781-2.1465 0.50464 0.02746 1.0622-0.30624 1.2402-0.82617 0.77947-1.5336 0.88003-3.3693 0.625-5.0488-0.16319-0.64346-0.52228-1.5173-1.3359-1.4355-0.0958 0.01941-0.16941 0.05881-0.24805 0.09375-0.0168-0.02209-0.0251-0.0475-0.0449-0.06836-0.18947-0.21171-0.47083-0.31144-0.75195-0.29492-0.15819-0.355-0.52312-0.61672-0.94141-0.57812-1.8193 0.47198-3.1199 2.1232-3.8594 3.7773-0.28616 0.71784-0.53308 1.8378 0.0254 2.4473-0.24187 0.26659-0.47145 0.58-0.66992 0.98633-4.3319 7.5453-4.1587 16.978-7.8789 24.572-7.3872 1.8355-15.741-0.76455-22.885 1.6875-0.34215-0.77664-1.1276-1.3591-2.0254-1.2988-2.5731 0.48598-5.1896 1.2548-7.459 2.5781-1.7961 1.0402-1.0346 4.0172 1.043 4.0254 2.4718 0.11219 5.0554 0.43716 7.459-0.18555 0.15945-0.10072 0.27893-0.21232 0.38281-0.33008 1.9954 1.2546 5.3291 1.7702 6.9688 2.6387 3.9002 2.2336 9.1488 5.2773 9.9492 9.8633-10.555 11.406-24.019 19.983-33.494 32.508-18.086 21.188-23.271 50.601-18.758 77.561 2.6469 16.417 5.5306 32.953 10.23 48.893 2.1994 3.8586 5.3657-0.2195 6.5781-2.5332 1.2148-1.083 5.6392-5.2043 2.7812-0.83399-10.143 19.117-19.842 40.124-16.896 62.365 1.4562 9.4943 1.8222 19.842 6.4902 28.381 4.5728 2.3999 5.0186-4.9373 5.6406-7.8516 2.4282-12.843 9.7061-27.433 23.264-31.082-1.9406 3.6557-6.7646 7.9044-8.2148 12.74-6.2932 18.937-0.85825 40.258 11.475 55.576 6.7792 8.3916 13.241 17.656 22.023 24 5.2839-0.36824 1.5122-7.0774 1.0723-10.164-2.1369-10.841 0.27356-24.033 10.168-30.393 2.6438 12.297 6.0322 26.108 16.859 34.223 8.9109 7.043 19.129 13.483 30.074 16.309 4.1483-2.5323-1.993-6.3976-3.334-9.2422-5.9677-8.5811-11.272-19.637-10.826-29.641 13.03 9.8026 24.448 22.11 38.865 29.883 5.0665 0.59451 2.8976-5.5671 1.0918-7.8223-0.23186-1.6216-2.3745-8.9837 0.86329-7.5039 20.018 11.932 42.42 22.537 66.342 20.943 14.429 0.74684 28.941-0.60578 42.559-5.6699 26.397-8.1861 49.486-27.154 61.279-52.309 2.2063 14.112-1.8456 29.621-11.297 40.717-2.6926 3.454 2.4289 5.7555 5.1641 3.793 14.455-4.9605 23.616-18.92 25.99-33.551 2.7666-11.136 2.385-22.864 5.5-33.887 6.3548 4.4746 10.755 11.048 15.863 16.627 4.9631 0.5322 3.982-7.0845 5.418-10.234 2.8961-15.78 2.817-32.143 0.96094-48.031-1.3333-7.1056-4.0676-14.522-5.0742-21.287 9.2839 3.9979 15.963 12.2 21.119 20.562 4.4067 2.7516 5.3706-4.1138 4.7031-7.0312-0.29864-19.642-7.4767-39.107-21.268-53.289-5.0864-6.1923-12.579-11.983-17.078-17.557 3.9008-2.6787 0.22961-8.3982 0.99609-12.27-0.88222-44.684-22.175-88.676-57.85-115.87-40.279-31.823-97.594-40.349-145.27-21.105-13.507 4.6294-26.359 12.745-38.73 18.615 2.2626-16.472 14.778-29.082 26.172-40.346 0.13629-0.13239 0.25528-0.27353 0.36523-0.41992 0.33228 0.16327 0.72139 0.23995 1.1758 0.17578 1.908-0.5691 3.5981-1.8803 5.1367-3.084 1.3822-1.3419-0.0645-3.3902-1.7129-3.3398zm118.46 107.09-0.20898 2.2617c2.3339 4.3748 9.2524 2.5348 13.576 4.3887 24.046 5.4524 49.105 21.024 55.951 46.256 3.5978 12.278 0.92362 25.001-1.9238 37.016 2.3513 2.8378 2.0506 3.0276-1.8144 4.8184-10.802 6.2405-20.505 14.227-28.924 23.355-3.5919 2.2606-7.3516 7.2078-11.479 7.1914-19.762-13.837-36.485-34.906-38.135-59.674-2.1162-22.437 3.8221-45.386 12.957-65.613zm-133.96 21.316-0.29101 0.32617c-3.3782 4.2853-8.695 7.6294-10.43 12.924 2.7455 4.5425 9.5714 4.9011 13.877 7.8223 25.687 12.89 44.686 38.851 47.305 67.719 1.9957 14.172 0.13205 29.197-4.0879 43.047 1.0894 3.9191-4.773 1.7512-6.9551 2.6582-19.443 0.66361-38.707 3.4125-57.729 7.3867-19.427-21.533-33.971-51.432-27.174-80.908 5.9589-25.524 24.528-46.205 45.484-60.975zm123.78 123.21c5.2022 4e-3 10.376 4.1135 8.5606 9.8379-0.76672 6.2211-5.7153 10.488-8.4492 15.736-4.2361 1.4973-7.9051 4.5843-12.133 6.1152-2.2605 5.0235 2.2685 10.545 1.5391 15.936 0.39333 6.8023 9.2487 5.2641 13.879 4.7734 5.8206-1.0282 12.479-2.8431 15.75-8.1113-3.2425-4.5215-11.127-3.2913-15.299-7.3164 6.4412-2.5838 13.341 0.60323 19.789-1.6582 0.0577-0.0797 0.088-0.14917 0.13867-0.22656 0.032 0.10354 0.11647 0.18108 0.29687 0.1875 0.18891 0.1104 0.47999 0.073 0.56836-0.0859 0.77796 1.2645 2.2743 2.336 3.7363 2.4492 8.4287 2.5596 17.423 6.917 21.398 15.225-7.4186-1.6844-14.014-7.9285-21.807-7.1836-5.3123 4.149-10.109 9.2097-16.449 12.014-4.8277 3.2992-1.8126 10.203-5.0273 14.629-3.5735 9.5389-14.403 15.572-24.275 12.105-9.2451-2.3369-14.96-10.73-19.357-18.43-6.8223-1.9657-13.492-5.3191-18.514-10.602-4.8802-0.62492-8.3552 5.3695-11.826 8.3516-3.3803 3.3963-5.9949 8.2473-9.6289 11.029-1.0737-9.0671 6.1752-15.695 10.041-22.965 0.0572-4.838-5.4931-1.9303-6.9961 0.38867-5.0176 4.5139-9.908 9.7933-14.199 14.645 0.24359-13.345 11.924-23.502 23.326-28.592 6.5635-2.2335 14.021-5.7395 20.779-5.1172-2.104 1.985-7.4388 6.07-2.5605 8.207 1.9468 0.34372 5.1976-1.0244 2.6172 1.6914-2.1072 3.6172-9.3447 6.902-6.5215 11.629 9.9275 6.4655 24.14 5.5087 32.873-2.5664 2.5219-5.6244 3.7042-12.814 1.6621-18.713-3.4116-1.8084-8.1305-0.36513-11.889-2.1836-7.2205-1.8886-16.198-6.2119-17.654-14.266 0.68629-6.9771 9.6546-7.831 14.639-10.469 9.5875-3.486 19.647-6.6209 29.953-6.4102 0.34501-0.037 0.69225-0.055 1.0391-0.0547zm41.076 5.7246c7.9733 0.59424 17.402 3.7547 23.193 8.0156-11.816 1.0872-23.791-2.8981-35.596 0.2461-4.483 0.47493-11.449 3.3167-14.502 2.0938 6.7605-6.9955 17.447-9.8813 26.904-10.355zm-100.4 18.295c2.9195-0.0697 6.9953 0.83866 8.8535 2.4863-14.734 3.7191-29.184 10.157-39.977 21.168-3.0819 4.0408-1.8654-2.7815-0.87891-4.4746 5.9883-11.33 19.464-18.48 32.002-19.18zm85.385 0.28906c11.213-0.0639 22.307 2.9102 30.1 11.643 1.5529 1.6664 4.1082 6.3041 0.0215 3.3887-9.2776-4.6334-19.681-8.7737-30.174-8.1348-0.65441 0.24127-1.1032 0.56797-1.4121 0.9375-0.0922-0.18872-0.50077-0.11325-0.66797-0.1543-0.0585 0.0219-0.0778 0.0555-0.0898 0.0918-1.474-1.6001-5.5463-2.0125-7.4629-2.1289-3.7992-0.80382-8.7923 0.0225-12.271-1.793 2.2963-0.49411 4.9892-1.9722 6.8906-2.1348 4.8474-1.0291 9.9696-1.6858 15.066-1.7148zm-1.7695 8.3106c-0.0129 0.0283-0.0295 0.0553-0.041 0.084-9e-3 -0.0212-0.0139-0.0436-0.0234-0.0645 0.0222 7.3e-4 0.043-0.0108 0.0644-0.0195zm-0.084 1.6191c0.0114 0.0399 0.0162 0.0793 0.0293 0.11914-0.0208-6e-3 -0.0346-0.0243-0.0586-0.0254-1e-3 6.1e-4 -2e-3 3e-3 -4e-3 4e-3 0.0134-0.0333 0.0212-0.0649 0.0332-0.0977zm-269.12 35.645c-34.575 17.625-68.258 37.357-100.75 58.656-52.68 34.517-97.45 79.932-134.46 130.69-3.5931 4.1348 3.7046-7.4417 4.7637-10.141 3.163-3.0246 0.0259-8.6212-3.9258-5.5586-21.227 15.026-42.082 30.977-60.984 48.838-1.7309 6.1596 6.8938 3.4396 10.123 3.0957 11.029-0.9714 21.99-1.3159 33.049-1.043-52.351 6.3705-107.76 18.714-147.4 55.945-3.1438 2.2573-8.4127 8.5383-2.0117 10.41 35.091 13.263 73.865 26.15 111.52 16.455 19.456-5.0483 37.081-16.666 51.594-29.779-2.1001 4.4323-10.326 8.9148-7.3613 14.105 16.648 3.5606 35.631 3.6418 49.506-7.7539 3.8022-2.5037 8.6928-6.4748 12.09-7.793-2.1475 6.161-7.8442 10.385-10.23 16.195 13.742 8.2631 30.502 11.598 45.695 17.1 53.721 17.951 110.5 24.82 166.86 27.205 4.9883 0.11577 4.4664-5.771 7.6172-8.2559 0.20362-5.9645-10.048-9.3877-6.3828-16.193 8.2028-14.948 24.625-22.037 40.74-24.938 0.2322 0.19945 0.50746 0.35965 0.85547 0.42968 1.734 0.41916 4.1324-0.5055 4.0586-2.5742-6e-3 -0.0921-0.0293-0.18985-0.043-0.28516 0.0616 0.0259 0.11956 0.0564 0.18359 0.0762 0.13205 0.0432 0.26705 0.0646 0.4043 0.0781 0.0487 5e-3 0.0955 0.0153 0.14453 0.0176 0.0269 7.1e-4 0.0531 8e-3 0.0801 8e-3 -0.0854 1.5412 1.6366 2.5432 3.0664 2.1934 1.0695 0.035 2.1586-0.58232 2.6016-1.5078 2.3898 1.5776 7.6032 1.0712 10.049 1.3809 13.988 2.0062 28.254 4.5344 41.141 10.553-25.518-7.1017-54.755-12.331-79.617-0.31836-7.038 4.3972-17.319 9.4595-17.947 18.748 2.7907 7.3088 14.86 1.8376 17.65 8.5058-3.1974 6.5751-16.086 7.9417-13.074 17.359 4.4178 6.7868 16.742 1.9073 20.469 9.2656-1.0246 5.4221-12.371 10.59-6.1953 16.055 23.41 9.7261 48.994 13.252 73.92 17.162 26.23 2.2073 53.116 4.3173 79.158-0.52539 14.908-3.573 34.195-10.901 36.568-28.219 2.6519-26.791-15.325-49.478-29.648-70.223-6.2915-8.8076-15.291-18.606-21.172-25.957 17.86 16.747 33.494 35.848 46.576 56.539 5.5153 1.7191 9.0196-6.7334 11.938-10.6 13.673-20.266 11.734-47.1 1.9824-68.543-0.72725-3.6427 5.0074 4.5715 5.8965 5.6914 13.698 19.014 11.186 45.423-0.87696 64.562-3.0054 5.3501 4.2729 6.366 7.7598 4.2598 35.814-10.486 68.909-36.006 83.133-71.145 9.4012-22.141 3.2543-47.923-11.82-65.98-7.888-6.5932-0.37187-6.9006 5.0215-3.2285 11.792 6.2737 17.634 18.415 24.061 29.309-2.1656 1.4387-1.1492 5.3005-1.3984 7.6016-0.4083 2.0077 1.2001 4.9262 3.2598 3.9922-0.2402 0.2051-0.48093 0.41056-0.73633 0.60156-3.0327 3.7284-9.0771 4.321-7.7246 10.541 0.6054 16.587-5.6541 32.332-14.096 46.43-5.1027 9.5228-8.2287 22.922-1.8223 32.465 16.658 14.588 40.973 11.213 61.34 9.9492 10.938-1.7796 23.476-1.2843 32.986-7.418 2.1142-4.1175-6.9331-10.476 0.0449-12.688 4.0701-0.0851 13.09-1.5535 9.9082-7.6621-1.4776-2.8751-9.4174-8.5988-3.5684-10.99 3.9886 0.0409 12.091-1.8362 8.0234-7.2812-7.8918-10.96-20.449-18.701-34.318-17.826-6.7855-0.3338-13.604-0.13733-20.352 0.66016 5.868-2.6511 17.934-1.9723 12.885-11.635-3.0246-17.092-13.683-33.693-30.346-39.945l-0.56055 0.0293c-4.5482 3.4454-6.5088 9.6529-10.672 13.852 1.7766-2.8756 3.0953-6.3039 3.3594-9.6113-0.17626-0.2879-0.3784-0.50259-0.59766-0.67383 1.5382-2.3346 2.0026-6.6508 1.7695-8.8906 2.3489-19.549-5.5264-38.216-16.164-54.154-3.8858-6.5187-8.2794-12.732-11.916-19.398 12.81 4.2648 22.853 13.601 30.932 24.035-1.2847 1.4102-0.28269 4.4929 1.0566 5.8496 2.3682 2.2859 5.1965-1.0405 4.6602-3.5879 0.0903-1.0074-0.29372-1.7558-0.90625-2.2656 1.0757-1.9755 1.0562-5.505 0.28711-7.4375-2.1536-20.87-9.8117-41.328-24.727-56.471-10.306-10.19-19.808-22.271-32.676-29.201-11.517 1.5872-23.571 2.9208-35.057 0.37109-12.856 3.8219-24.666 11.324-38.125 12.795-24.958 4.0512-51.261 1.4421-74.137-9.5215-7.3162 1.8063 3.499 8.6985 1.0801 12.684-12.627 0.87843-23.716-6.7149-34.992-10.801-6.3553 1.896 0.79734 8.8853 1.3301 12.17-22.023 1.56-43.293-9.3074-57.73-25.51-0.25851-0.44706-0.57947-0.82493-0.9375-1.1367 0.20431-0.23817 0.3734-0.50644 0.48242-0.81836-1.0462-2.9383-1.9432-6.445-4.3496-8.6133-0.66976-0.32606-1.2205-0.27303-1.9141-0.0547-2.4327 1.9394-1.6384 5.8121-1.2422 8.5176 0.31558 0.71905 0.91631 1.2599 1.6426 1.623-0.18987 0.60541-0.19512 1.3649 0.084 2.291 0.40331 5.7805 1.9152 11.407 2.166 17.201-22.082-9.845-40.581-27.604-50.984-49.447-3.0655-5.6514-7.6097 0.89415-8.1152 4.6621-2.3717 1.0519-5.2679-5.8892-7.2891-8.1504-1.9336-2.4431-2.1318-7.5518-6.2148-7.459zm-281.7 196.26c-0.28452-0.0158-0.57161-3e-3 -0.84375 0.0254-31.469 4.6948-63.51 16.884-84.008 42.365-3.021 4.5398-9.5876 8.6412-9.127 14.562 5.1468 3.275 10.713-4.0106 15.6-5.5098 18.584-10.638 39.802-15.949 60.514-20.277 2.9846-4.1213 4.0028-9.7535 8.1348-13.469 3.3696-5.6539 11.659-9.531 11.822-16.48-0.40026-0.87075-1.2382-1.1695-2.0918-1.2168zm382.13 20.965c-14.184 9.5286-34.256 16.44-39.984 34.314 0.0529 7.2461 1.2321 14.747 3.3027 21.824-0.472 0.59542-0.67124 1.4116-0.39648 2.1816 0.18596 1.8249 0.1243 3.7039 0.22851 5.5625-6e-3 0.36727-9e-3 0.73434 0.01 1.0957-0.29396-0.25225-0.62858-0.44352-1.0039-0.5293-0.87776-3.667-4.689-7.8046-5.6758-10.947-7.4291-13.766-2.942-32.362 11.242-39.82 9.7605-6.4333 20.759-11.902 32.277-13.682zm1.3203 47.363c2.565 0.0267 5.0733 0.19045 7.416 0.37695-13.589 3.1852-27.953 7.5899-38.67 16.766-0.0595 0.16251-0.10496 0.31838-0.14844 0.47071-0.28708-0.17475-0.62439-0.27405-1.0098-0.27735 0.2085-0.21165 0.39387-0.45283 0.53321-0.72461 0.74366-0.89097 1.4787-1.7886 2.1602-2.7246 2.607-2.3665 4.8801-5.9703 7.9219-7.2969 5.8842-5.5116 14.102-6.6699 21.797-6.5898z" fill="#d3d7cf"/>
 <path d="m717.32 343.96c-0.11629 1.4263-1.4927-0.81427-2.5579-0.0691-4.9796 0.91971-10.12 2.7533-14.004 6.0392-0.48497 2.518 3.1376 3.1856 4.7094 4.4115 3.9636 2.4232 8.4993 4.0113 13.195 3.2141 5.1778-0.3568 8.9078-4.8771 11.616-8.8676 1.3237-1.6778-0.15884-3.6507-2.1032-3.6608-3.5085-0.78449-7.3264-1.9969-10.855-1.0674z" fill="#ef2929" stroke="#a40000" stroke-linecap="round" stroke-linejoin="round" stroke-width=".50508"/>
 <g fill="#fff">
  <path d="m591.06 172.57c-7.8615 9.5795-15.516 19.734-20.597 31.057 0.66432 5.1883 10.101 1.4789 11.183 2.6814-12.104 5.2333-10.527 25.741 2.952 27.885 8.093 1.6457 17.908-4.7125 17.614-13.465 11.505 17.546 14.506 39.987 9.3499 60.008-1.666 2.8278-4.7135 9.86 1.2137 9.2829 12.284-0.66334 24.754-1.2524 36.819 1.3142 5.0353-3.2512 1.1352-11.497 1.9252-16.61-1.1629-22.667-3.5762-46.508-17.5-65.385-10.664-15.572-25.473-28.751-41.992-37.419l-0.9682 0.65011z"/>
  <path d="m740.63 141.94c-6.0553 2.0632-4.105 11.207-5.9801 16.164 0.35818 4.2744-4.2685 13.122 1.8701 14.4 5.0298-2.2377 11.558-5.2306 16.406-3.3036-13.361 1.5187-14.96 22.675-2.4442 26.677 8.2085 3.729 18.556-2.6262 18.809-11.535 8.3451 16.878 12.2 36.555 7.1205 54.916 2.8591 5.3955 9.2655-1.7523 12.701-3.1445 5.2075-4.1241 12.876-5.0148 17.16-9.7656-0.54743-20.248-1.8234-43.185-17.924-57.812-13.459-12.195-30.194-20.957-47.302-26.607h-0.17578l-0.23995 0.0112z"/>
  <path d="m609.02 286.83c-2.0606 0.0426-2.8855 3.1374-1.0209 4.1033 1.4285 0.8919 3.8573 0.13369 3.7551-1.7754 0.0226-1.3403-1.4412-2.4637-2.7342-2.3279z"/>
  <path d="m571.44 203.89c-2.0887 0.10724-2.542 2.502-3.1641 4.0614-0.5451 1.7055 1.5014 3.2843 3.0102 2.343 1.3061-0.92279 2.6873-1.8652 3.6276-3.1724 0.54085-1.4445-0.69013-2.7213-2.0581-2.9642-0.4526-0.16562-0.92916-0.29656-1.4157-0.26785z"/>
  <path d="m733.76 169.27c-1.5583 0.24037-1.9016 1.9209-1.9474 3.2403-0.0888 2.0541-0.78977 4.1856-0.2038 6.2066 0.59397 1.638 3.0653 1.7009 3.825 0.16602 1.0089-1.8526 2.1044-3.6568 3.2363-5.4346 0.78165-1.4672-0.6426-3.303-2.2485-3.0096-0.86884-0.45113-1.5437-1.3829-2.6615-1.1687z"/>
  <path d="m775.94 238.57c-1.3578 0.88675-1.5723 2.6777-2.5174 3.9195-0.74806 1.1497-1.8358 2.852-0.55963 4.0459 1.1703 1.2956 2.9504 0.3509 3.9364-0.66651 1.3149-1.2549 2.9248-2.2615 3.9335-3.7906 0.49981-1.4975-0.82797-2.5955-2.0924-3.0612-0.81655-0.48307-1.768-0.86844-2.7004-0.44707z"/>
  <path d="m769.91 247.34c-1.7412 0.55186-3.2074 1.8074-5.0467 2.1397-1.5423 0.53407-3.1722 0.25508-4.7468 0.40981-1.7559 0.36071-2.0949 2.8067-0.71987 3.8302 1.5365 1.4782 2.8982 3.2273 4.73 4.3345 1.9848 0.36637 2.9263-1.7848 4.1198-2.9615 1.311-1.719 2.9255-3.2676 3.9152-5.1981 0.36048-1.3762-0.81941-2.7744-2.2517-2.5548z"/>
  <path d="m772.81 244.62c-0.82474 0.0205-1.4536 0.61888-1.9583 1.2081-0.5621 0.52776-0.94263 1.3128-0.75831 2.0925 0.17431 0.99578 1.1974 1.736 2.1993 1.5961 0.89527-0.0936 1.5284-0.81488 2.1277-1.4138 0.74853-0.78528 0.73766-2.1528-0.0685-2.8936-0.40078-0.40455-0.97544-0.61395-1.542-0.58928z"/>
 </g>
 <path d="m678.88 316.83c-6.523 3.5391-13.204 6.8465-19.425 10.896-1.2175 0.85037-0.84389 2.5019 0.0283 3.4473 0.11534 1.6226 2.1269 2.6908 3.4372 1.612 5.5156-4.3985 11.793-7.5522 18.315-10.157 1.4475-0.57394 1.5942-2.4733 0.71951-3.5965-0.0462-1.4103-1.3104-2.8761-2.7995-2.282l-0.17146 0.0499-0.10412 0.0303z" fill="#d3d7cf"/>
 <path d="m677.23 330.04c-0.89202 0.0798-1.6675 0.67387-2.2225 1.3419-0.70691 0.94885-0.35442 2.4175 0.67913 2.9774 0.77169 0.47514 1.7884 0.84162 2.6262 0.31333 0.8057-0.40709 1.0957-1.3624 1.0451-2.2123 0.11028-0.97095-0.42696-2.0181-1.3931-2.3136-0.22839-0.0843-0.4928-0.0965-0.73487-0.1067z" fill="#d3d7cf"/>
 <path d="m643.66 397.61c-2.0431 0.16124-2.4292 2.884-0.95984 4.0312 1.563 1.5422 2.8089 3.5724 4.7958 4.5832 1.8562 0.32028 3.2071-1.5113 3.978-2.9224 0.11836-2.3963-2.7451-2.9502-4.2734-4.1832-1.1183-0.58164-2.2187-1.5295-3.5405-1.5088z" fill="#d3d7cf"/>
 <path d="m630.67 398.82c-2.0489 0.0655-3.7442 2.8182-1.9049 4.3208 1.3017 1.1495 3.6846 2.6317 4.9918 0.67922 1.015-1.738-0.59378-3.7771-1.9697-4.7726-0.34629-0.16708-0.73274-0.25025-1.1172-0.22738z" fill="#d3d7cf"/>
 <path d="m607.93 397.26c-1.8439 0.81809-1.3333 3.1062-0.22698 4.3106 1.6991 2.3178 3.1023 4.925 5.1771 6.9288 1.3202 0.86794 2.9001-0.12758 3.4384-1.4097 1.5665-0.70368 2.7465-2.8317 1.0984-4.1052-2.8201-1.7462-5.142-4.2402-8.0718-5.7896-0.47723-0.18873-0.93578-2e-3 -1.4151 0.0651z" fill="#d3d7cf"/>
 <path d="m641.63 395.94c-1.3367 0.11262-2.2325 1.6948-1.6194 2.8945 0.52509 1.2591 2.1883 2.0178 3.3882 1.198 1.2073-0.75689 1.2252-2.6791 0.0588-3.482-0.51244-0.40901-1.1625-0.67981-1.8276-0.61053z" fill="#d3d7cf"/>
 <path d="m787.74 390.57c-1.1404 0.23145-1.9034 1.2198-2.7966 1.8888-0.93014 0.65198-1.2866 2.0095-0.60865 2.9674 0.62149 0.91541 1.847 1.031 2.8125 0.66101 1.0972-0.38774 2.4392-0.3838 3.2504-1.317 0.63039-0.84969 0.4346-2.0394-0.27605-2.7782-0.45216-0.78873-1.212-1.5288-2.1943-1.4283-0.0624 2e-3 -0.12485 4e-3 -0.18727 6e-3z" fill="#d3d7cf"/>
 <path d="m785.58 377.88c-1.3303 0.17966-1.9802 1.5199-2.847 2.3806-2.339 2.5981-4.8152 5.076-7.3778 7.4533-4.0544 3.5718-8.4164 6.7821-12.972 9.6838-0.88787 0.47433-1.5613 1.488-1.2607 2.5109 0.26353 1.1424 1.4623 1.6096 2.5068 1.7456 1.042 0.34107 2.1724-0.1514 2.75-1.0568 1.4686-1.4576 3.2365-2.586 4.8543-3.8422 4.0511-2.9824 8.1097-6.0144 11.554-9.7044 1.7905-1.8422 3.4177-3.8609 4.7581-6.0538 0.72386-1.1446 0.0183-2.8662-1.3408-3.0806-0.19964-0.0635-0.41899-0.0191-0.62519-0.0363z" fill="#d3d7cf"/>
 <path d="m842.55 340.82c-1.8369-0.15243-3.1933 1.9125-2.387 3.5522 0.3365 1.7485 2.7818 2.5952 3.9212 1.0861 1.0537-1.3377 1.2299-3.9511-0.74742-4.5403-0.25585-0.0727-0.52077-0.10756-0.78683-0.098z" fill="#d3d7cf"/>
 <path d="m866.36 282.31c-1.2726 0.23919-2.9839 0.77653-2.9004 2.3814 0.11027 1.3285 0.79737 2.5938 1.2696 3.839 0.87352 1.6709 3.6588 1.3044 3.9614-0.5978 0.14782-1.5358 0.43397-3.2649-0.29394-4.6878-0.41474-0.6768-1.2564-1.0439-2.0366-0.93477z" fill="#d3d7cf"/>
 <path d="m853.53 496.74c-1.4933-0.0154-2.808 1.4968-2.2748 2.969 0.24093 1.379 1.7821 2.4614 3.1183 1.7858 1.3632-0.69361 1.7191-2.7353 0.91538-3.9503-0.4313-0.56181-1.0547-0.83536-1.7588-0.80453z" fill="#d3d7cf"/>
 <path d="m839.37 559.72c-1.3061 0.48248-1.3614 1.949-1.6045 3.1101-0.57173 1.4622 0.78196 3.212 2.355 2.8638 1.5397-0.32477 2.3022-1.958 2.7234-3.3188 0.22871-1.485-1.2205-2.4625-2.5026-2.7219-0.31249-0.10671-0.65041 0.058-0.97131 0.0668z" fill="#d3d7cf"/>
 <path d="m832.69 550.62c-1.4572 0.0133-2.373 1.6542-1.8797 2.9609 1.2451 4.3836 1.8414 8.9403 2.1488 13.425-0.0459 1.3358 1.2379 2.569 2.5825 2.1714 1.149-0.38387 1.926-1.4381 2.9702-2.0333 1.0969-0.74165 1.1068-2.1916 0.67838-3.3139-1.121-4.162-2.5659-8.2622-4.5422-12.097-0.39373-0.70125-1.1551-1.1308-1.9579-1.1135z" fill="#d3d7cf"/>
 <path d="m731.43 659.71c-2.4699-0.25596-3.3834 3.6117-0.82868 4.1881 1.9989 0.80923 4.3524-1.6153 2.7518-3.4054-0.48057-0.53684-1.2089-0.81339-1.9231-0.78265z" fill="#d3d7cf"/>
 <path d="m553.68 374.99c-1.8832 0.27052-2.0178 2.4525-1.9986 3.9505-0.19657 1.4227-0.0434 3.367 1.706 3.6434 1.4596 0.0999 3.417-0.38157 3.4434-2.1648-0.43917-1.6802-0.30086-3.8136-1.7054-5.052-0.4119-0.33347-0.93621-0.38586-1.4454-0.37701z" fill="#d3d7cf"/>
 <path d="m546.68 397.73c-1.3574 0.66557-2.9991 2.0478-2.0944 3.704 1.1083 1.0989 2.1306 2.5149 3.6256 3.0902 1.6438 0.49555 3.1266-1.4625 2.3084-2.9454-0.74999-1.4328-1.0954-3.505-2.8725-3.9596-0.32238 0.037-0.64476 0.0739-0.96714 0.11091z" fill="#d3d7cf"/>
 <path d="m501.93 351c-1.7885 0.0677-2.1383 2.0774-2.3245 3.4823-0.17607 1.6783-0.88906 3.3362-0.7346 5.0253 0.36974 1.4748 2.1586 1.8856 3.3754 1.2012 0.8199-0.0953 1.7204 0.39044 2.4613-0.26333 1.6727-1.2576 0.50109-3.4016 0.18416-5.0031-0.50951-1.4757-0.29926-3.59-2.0368-4.2826-0.29717-0.12628-0.60611-0.15191-0.92495-0.15974z" fill="#d3d7cf"/>
 <path d="m492.53 345.61c-1.4092-0.0963-2.9965 0.86611-2.7944 2.4344 0.54757 1.9863 0.98753 4.065 1.9472 5.8977 1.0299 1.6008 3.7164 0.82032 3.8323-1.047 0.1771-1.952 0.24353-3.9643 5e-3 -5.8994-0.2696-1.344-1.8289-1.6566-2.9901-1.3857z" fill="#d3d7cf"/>
 <path d="m508.46 673.84c-1.5323 0.43592-1.7506 2.231-1.1663 3.4923 0.24847 1.6086 2.2268 2.5126 3.5415 1.4844 1.285-0.5178 2.5098-1.9705 1.6327-3.3348-0.76516-1.0303-2.1358-1.4063-3.331-1.7085-0.22565 0.0222-0.45131 0.0444-0.67696 0.0666z" fill="#d3d7cf"/>
 <path d="m236.77 637.28c-1.8068 0.34419-3.6314 2.7278-2.1664 4.3832 1.3643 1.5007 4.6547 1.0021 4.6922-1.3328 0.0888-1.5208-0.72991-3.2779-2.5258-3.0504z" fill="#d3d7cf"/>
 <path d="m106.39 601.49c-1.4568 1.8338-2.7537 3.8229-3.9593 5.8315-0.77245 1.6754 1.27 3.5158 2.8634 2.6004 2.1716-1.3371 4.298-2.7975 6.236-4.4577 1.3416-1.1983 0.37987-3.5804-1.3881-3.6147-1.2283-0.48446-2.4916-1.3605-3.7521-0.35958z" fill="#d3d7cf"/>
 <path d="m187.39 570.98c-1.691 0.74257-3.3422 1.8722-3.9003 3.7315-0.89354 1.5362 0.62767 3.5849 2.3601 3.0802 1.5281-0.3649 3.7169-0.0805 4.4413-1.8375 0.42153-1.0513-0.37959-2.0507-0.12975-3.1288-0.0891-1.4135-1.4265-2.3094-2.7713-1.8454z" fill="#d3d7cf"/>
 <path d="m205.91 543.97c-1.5184 0.46455-3.8977 0.53026-4.1786 2.5328-0.0541 0.89783 0.42711 1.6983 0.71777 2.5167 0.86494 1.4488 2.927 1.0628 3.8212-0.15082 1.0615-1.025 2.8245-2.3927 1.7807-4.0076-0.39533-0.73299-1.3515-1.0303-2.1411-0.89113z" fill="#d3d7cf"/>
 <ellipse transform="matrix(.97417 -.2258 .2258 .97417 0 0)" cx="623.56" cy="456.25" rx="62.284" ry="33.349" fill="#eeeeec"/>
 <path d="m672.76 410.24c0.13525-0.24973 13.161 1.7932 26.603 18.41l1e-5 1e-5c5.7688 7.1631 10.874 16.511 14.096 27.966 2.7659 9.8262 4.0922 20.558 3.9474 32.048-0.0778 6.5281-0.60833 13.176-1.5809 19.926-0.63585 4.4129-1.4412 8.7341-2.3776 12.942-2.4777 11.153-5.8538 21.491-9.7004 30.861-4.1022 10.003-8.6265 18.651-13.375 26.11-5.152 8.1189-10.063 14.054-15.024 18.581-2.7349 2.4995-5.2186 4.2626-7.5113 5.4992h-1e-5c-4.3429 2.3664-7.0635 2.1311-7.1981 1.6059-0.13955-0.54457 2.0622-1.6494 5.2188-4.4564 1.7835-1.6023 3.5758-3.4791 5.7816-6.1776 4.0288-4.9354 7.7859-10.665 12.193-18.881 3.9803-7.4518 7.7852-15.862 11.356-25.607 3.3306-9.1007 6.3057-19.021 8.5505-29.641 0.84549-4.0076 1.5869-8.103 2.1881-12.264 0.91989-6.367 1.4689-12.592 1.631-18.685 0.27751-10.726-0.60971-20.573-2.7419-29.617-2.4789-10.507-6.4335-19.155-11.054-26.077l-1e-5 -1e-5c-10.602-15.97-22.06-20.586-21.001-22.542z" fill="#eeeeec" fill-rule="evenodd"/>
 <path d="m765.87 395.73c-6.3177 2.5702-11.939 6.7364-18.392 9.1028-19.191 8.0199-40.382 10.889-60.94 8.3617-2.744-0.44737-3.8528 3.3425-1.4255 4.6068 9.5541 7.2156 17.096 16.749 21.904 27.692 7.7 16.562 9.0896 35.051 7.7697 53.012-2.493 26.913-10.964 53.448-24.96 76.792-6.2352 9.6834-13.234 19.768-23.487 25.645-2.0602 0.99618-6.6078 1.5851-4.8594 4.888 14.934 13.548 28.537 28.332 40.289 44.757 4.2039 5.4651 7.3396 11.679 11.483 17.16 3.0425 1.8141 5.2088-2.2585 6.9695-4.1254 9.3325-11.454 15.662-25.696 15.83-40.627 0.32834-12.533-3.5291-24.717-8.5784-36.046 13.967 13.582 17.176 35.474 11.42 53.582-2.411 7.7977-7.406 14.354-11.978 20.96-1.029 2.7857 2.4699 3.565 4.3954 2.5742 14.077-3.09 27.79-8.0204 40.119-15.562 22.322-13.432 42.118-32.825 51.862-57.354 6.8443-17.393 6.5372-37.94-3.0374-54.283-3.6742-6.6126-8.2347-12.682-13-18.539 9.2543 1.5084 16.499 8.5094 22.159 15.565 4.5607 5.9853 9.3381 12.795 8.7894 20.705 0.46507 2.9513-0.73633 5.9471-0.20708 8.8133 1.7551 2.9494 5.0078-0.0315 5.5914-2.2936 4.7043-11.356 5.8762-24.054 4.6319-36.217-2.6719-18.297-13.804-33.715-23.394-49.004-1.3543-2.1578-3.2122-4.7669-4.2103-6.6873 11.648 4.8538 23.063 12.556 28.203 24.57 1.1315 2.2051 2.0959 6.8617 5.5036 5.691 2.6847-2.211 1.4694-6.3665 1.9157-9.4159 0.066-9.0179-2.0041-17.917-3.9582-26.67-6.6312-22.49-23.158-40.216-40.446-55.269-4.2958-3.3143-7.9027-7.8066-12.851-10.148-3.3772-0.12455-6.7046 1.4305-10.15 1.4047-7.1132 0.63784-14.368 1.0585-21.558 0.36697 1.7964-1.2985 0.93807-4.2712-1.4048-4.01z" fill="#eeeeec"/>
 <path d="m544.83 637.2c0.32028 0.61985-13.175 11.301-39.836 19.566l-1e-5 1e-5c-10.865 3.365-23.816 6.1384-38.368 7.122-11.474 0.77141-23.616 0.42105-36.397-1.1515-10.934-1.3456-21.934-3.5008-33.252-6.2548-0.57547-0.14003-1.1497-0.2811-1.7227-0.42315-16.256-4.0278-58.053-16.597-69.184-19.57-22.963-6.1243-40.188-9.0763-54.375-10.929-13.345-1.7427-21.163-2.1883-21.177-3.2157-0.0123-0.84458 7.805-2.1625 21.557-1.8958 14.254 0.27639 32.786 2.236 56.093 7.5632 30.643 6.99 34.813 9.7886 69.487 18.341 0.56097 0.13829 1.1228 0.2758 1.6855 0.41248 11.076 2.6903 21.673 4.857 32.148 6.2984 12.229 1.6832 23.76 2.3056 34.685 1.9374 13.841-0.46114 26.319-2.4982 36.956-5.0305 26.108-6.2083 40.777-14.556 41.7-12.769z" fill="#eeeeec" fill-rule="evenodd"/>
 <path d="m299.86 627.92c-4.2653 0.63296-5.0716 6.2274-8.4068 8.4817-1.9632 2.1295-6.842 6.5531-1.9276 8.3357 43.734 16.2 88.608 30.107 135.02 35.996 26.525 3.6236 53.446 5.4544 80.003 7.5019 2.4904-2.0143 1.5601-6.2429 4.9604-7.9348 3.0255-1.7526 3.9547-6.2476-0.17799-7.1603-7.8473-1.9752-6.8345-12.056-1.822-16.521 6.6751-6.7006-3.4897-6.4016-7.8376-3.6562-37.416 11.549-77.292 7.5772-114.57-2.3439-28.381-6.9402-56.292-16.75-84.979-22.705l-0.2624 6e-3z" fill="#eeeeec"/>
 <path d="m250.86 620.74c-2.8902 0.42467-3.6969 3.8667-5.4827 5.7498-3.1311 4.5741-7.3306 8.2642-10.737 12.594-1.268 1.7592 0.58709 3.8208 2.5069 3.5688 8.5067 0.87235 17.031 2.3937 25.606 1.507 11.683-0.30933 22.262-6.5528 30.896-13.986 1.5163-1.6616-0.3679-3.8304-2.2842-3.6873-13.436-2.3581-27.029-3.745-40.505-5.747z" fill="#eeeeec"/>
 <path d="m257.45 516.62c-2.5608 0.95999-4.8274 2.8909-6.6185 4.8878-0.94392 2.0054 1.4728 3.959 3.1743 4.7159 2.7519 0.0701 3.4267-3.283 4.8129-5.075 1.0561-1.3159 1.6226-3.7957-0.46668-4.437-0.28609-0.15546-0.59618-0.10198-0.90199-0.0917z" fill="#d3d7cf"/>
 <path d="m206.71 543.73c-20.124 4.3486-40.918 8.1697-59.061 18.492-11.426 6.0785-21.609 14.35-29.979 24.216-5.5739 6.5226-10.856 13.38-15.208 20.775-1.037 2.3809 2.3102 3.991 3.8958 2.1547 15.104-10.519 31.445-19.736 49.206-24.663 8.7144-2.7027 17.583-4.2788 26.415-6.4697 2.2682-0.74581 2.657-3.5812 4.2134-5.1638 6.4212-9.4622 14.717-17.412 22.294-25.906 1.2152-1.3573 0.0668-3.6805-1.7766-3.4354z" fill="#888a85"/>
 <path d="m189.04 580.66c-20.607 3.5077-40.402 10.753-59.592 18.892-19.054 8.797-37.088 20.634-51.109 36.379-1.8211 2.2688 0.77971 4.5652 2.9946 4.9741 14.107 5.9822 28.652 10.869 43.568 14.398 7.5071 1.6703 14.974 4.2283 22.687 4.5684 2.8097-0.49326 1.9097-4.394-0.60669-4.5516-11.4-3.762-22.179-8.8881-32.25-15.472-2.2542-1.2207-4.3616-2.7288-6.0946-4.6295 13.842-14.454 29.869-27.064 47.608-36.334 11.003-5.7602 22.931-9.2868 34.312-14.191 2.3164-1.1723 0.91651-4.5091-1.5172-4.0337z" fill="#888a85"/>
 <path d="m194.86 579.26c-1.9129 0.24649-4.8924 0.34321-5.142 2.8322-0.21028 2.0379 2.2085 2.9679 3.83 2.1732 1.7259-0.34245 4.258-1.4574 3.5015-3.6579-0.33983-0.87961-1.2633-1.4075-2.1895-1.3475z" fill="#888a85"/>
 <path d="m227.26 574.44c-4.9199 0.5001-9.8168 1.2167-14.72 1.8633-4.1897 0.54927-8.3592 1.2472-12.534 1.8893-0.79903 0.0864-1.503 0.62803-2.3032 0.66018-1.0516-0.3054-2.1283 0.21708-3.1815 0.327-16.185 3.0064-32.229 7.1873-47.562 13.156-5.0392 1.8311-10.064 3.71-14.972 5.8739-5.061 2.1977-10.011 4.6615-14.853 7.2966-0.99517 0.57286-0.97738 1.8202-0.92887 2.8241 0.0157 6.2463-0.0401 12.494 0.0505 18.739 0.0707 1.2866 1.5012 2.2236 2.7041 1.7445 1.3379-0.68891 2.5301-1.6423 3.8321-2.402 9.8238-6.2257 20.337-11.275 30.993-15.897 3.2796-1.3175 6.426-2.9272 9.5823-4.5096 12.096-5.9854 24.508-11.318 37.052-16.299 8.0823-3.2544 16.254-6.3034 24.273-9.7235 1.3408-0.64723 2.7801-1.1521 3.9887-2.0344 0.95821-0.83667 0.83599-2.5314-0.26598-3.1822-0.36086-0.20008-0.73377-0.35006-1.1549-0.3271zm-28.791 4.5626c-5.8e-4 -1e-3 3e-3 -3e-3 0 0zm-0.38435 1.5735c-0.0744-0.31136-0.0475-0.32747 0 0z" fill="#888a85"/>
 <path d="m149.37 655.96c-1.7652 0.0425-2.6692 2.4108-1.6568 3.7408 0.77339 1.0408 2.1959 0.87112 3.3322 1.0867 1.022 0.13118 2.2354 0.30185 3.0064-0.5605 0.80371-0.87672 0.62672-2.3896-0.38316-3.0334-1.1436-0.57988-2.4471-0.76543-3.6591-1.1709-0.20921-0.0525-0.42431-0.0693-0.63948-0.0628z" fill="#888a85"/>
 <path d="m491.94 257.2c-0.54226 1e-3 -3.0055-15.149-2.1452-41.074 0.38906-11.884 1.6611-27.501 6.0758-43.395 3.5448-12.804 9.645-26.876 19.952-38.991 1e-5 1e-5 1e-5 -1e-5 1e-5 -1e-5 4.9119-5.7418 10.743-10.97 17.383-15.388 7.0618-4.6899 14.892-8.4108 23.226-11.166 0.99991-0.30585 1.7967-0.45529 2.3647-0.52013h2e-5c0.93141-0.13557 1.8124-0.22371 2.64-0.29113h2e-5c2.3212-0.19237 4.5899-0.28684 6.8208-0.36272 5.978-0.20634 11.749-0.26794 17.76-0.38674 3.0375-0.061 6.0951-0.12193 9.1207-0.22136 2.8149-0.0925 5.5897-0.21786 8.3358-0.40666 2.1696-0.15256 4.222-0.31832 6.1553-0.62886 0.70073-0.1155 1.3105-0.22335 1.8186-0.36537 0.40708-0.14941 0.54518-0.14828 0.35134-0.0859h-3e-5c-0.51402-0.0369-1.065 0.88778-1.8365 2.7644v1.1e-4c0.0415 1.8757 0.18791 2.8446 0.59529 2.9618 0.36376 0.20623-0.0936 0.11244-0.9895-0.59312h-1e-5c-2.6237-1.6201-5.7629-2.9636-9.0014-4.4813-1.7376-0.8069-3.4923-1.6217-5.2671-2.4978-1.4728-0.72138-3.0314-1.5227-4.6212-2.5083-0.85244-0.31984-2.2998-1.3869-3.8768-3.5118-0.79949-0.83142-1.0388-2.5091-0.58925-4.9421l3e-5 -1.45e-4c1.1994-2.1987 2.3129-3.3078 3.1509-3.3886 30.321-12.684 61.665-20.018 85.626-24.952-10.511-0.72237-21.951 0.74136-30.555 1.8697-24.412 1.0155-38.495 4.7181-38.851 3.158-0.12277-0.53804 13.488-6.2384 38.413-8.9511 8.9884-0.19107 20.599 0.32586 32.592 3.8773-23.683 6.9499-53.624 17.492-82.989 33.74 0.2683 0.19535 0.80001-0.52949 1.7891-2.1297l2e-5 -1.15e-4c0.26887-1.9189 0.21473-3.0221-0.29842-3.3889-0.54018-0.42971-0.11991-0.41615 0.72801 0.31222 1.1088 0.68407 2.3875 1.3128 3.7897 1.9958 1.6408 0.79231 3.3316 1.5588 5.0801 2.3548 3.1057 1.3994 6.5755 2.8902 10.023 4.9429l2e-5 1e-5c0.90801 0.38642 2.3536 1.3854 3.9484 3.3151 0.74226 0.58682 1.1628 2.1257 1.1026 4.5698v1.4e-4c-0.87623 2.4615-1.9204 3.8237-2.9485 4.0864l-6e-5 2e-5c-1.1492 0.61942-2.0844 0.95524-2.7468 1.0969-1.0272 0.27609-1.9849 0.462-2.8603 0.59885-2.4231 0.38693-4.7729 0.59276-7.0409 0.74792-2.9021 0.20285-5.7978 0.33719-8.6968 0.43346-3.118 0.10354-6.2196 0.16232-9.2635 0.21542-6.1066 0.10856-11.775 0.14424-17.634 0.3118-2.1922 0.0639-4.3009 0.13436-6.3473 0.29112h-2e-5c-0.73367 0.0574-1.4076 0.11611-2.0207 0.20318h-1e-5c-0.47168 0.085-0.71641 0.10074-0.71243 0.12054-7.6117 2.4582-14.707 5.7125-21.045 9.8051-5.9568 3.8386-11.236 8.4005-15.713 13.422v2e-5c-9.435 10.516-15.399 23.369-19.199 35.244-4.7058 14.755-6.6844 29.945-7.8266 41.501-2.5029 25.431-2.0898 40.683-3.7669 40.687z" fill="#888a85"/>
 <path d="m618.01 28.94c-13.441 1.6712-26.039 8.3209-35.266 18.204-10.296 10.316-16.854 23.485-24.958 35.406-1.8434-6.1727-3.8494-12.403-3.6302-18.947-0.35359-3.3743 1.5648-8.0006 0.57292-11.223-1.8147-2.6073-5.0431 1.4084-5.8348 3.4059-4.8405 7.8366-5.3326 17.228-7.9273 25.772-2.81 1.5388-6.5077 0.34411-9.6077 0.61919-6.7096 0.18087-24.478 1.4281-30.853 4.032-2.6716 0.8233 5.8052 5.9877 8.6899 6.0096 8.7161 0.22692 20.864 0.2305 25.021 8.4048-0.10973 1.8567-2.7182 2.8851-3.8847 4.2704-15.91 12.803-32.364 26.432-41.261 45.298-6.1663 12.636-9.676 26.686-8.9574 40.798-0.62476 16.795 1.663 39.342 5.1121 55.66-0.0872 2.3915 4.2884 7.295 6.2962 4.857 1.6828-3.9296 0.48676-16.542 1.2558-20.653 2.3175-30.989 5.3176-63.398 24.2-88.193 18.788-24.16 21.876-22.769 49.892-35.066 4.5156 20.307 25.114-26.636 69.518-32.08 77.051-18.309 22.315-16.855-8.014-12.68-11.2 1.0768-13.478 2.0279-24.461 4.5783-4.9137 2.4202-9.6644 5.6854-14.53 7.876 1.9591-11.574 8.4269-21.83 16.244-30.344 4.4069-4.7194 11.716-8.971 17.146-12.361 1.5922-1.9258-2.5641-4.0895-4.7629-3.645z" fill="#888a85"/>
 <path d="m584.8 89.088c-7.807 5.107-16.061 9.6767-23.037 16.21-2.4198 3.4306 1.6732 7.0526 4.6481 5.5447 11.999-1.4081 24.081-1.7655 36.075-3.1802 3.9453-1.709 9.2576 0.16086 6.134-0.13498-4.997-2.1049-18.697-11.632-20.97-17.52-0.69563-1.2403-1.7533-0.92979-2.8505-0.91967z" fill="#888a85"/>
 <path d="m854.7 548.48c-8.3677 3.0588-10.514 15.062-19.181 17.603-4.1212 14.072-2.198 29.994-10.887 42.833-6.5423 12.883-16.424 31.454-5.5361 44.573 17.639 12.474 41.123 7.9006 61.396 7.8185 10.208-1.4984 22.271-1.3919 30.891-7.1043 1.1067-4.6565-6.4577-12.559 2.0716-13.941 5.8691 1.7353 12.441-4.7364 5.8084-9.1387-6.474-4.5103 0.20134-10.326 5.6663-10.63 3.5764-6.8855-5.9358-13.677-10.985-17.196-12.96-7.5132-31.103-4.6879-43.235-4.6838 4.9438-2.7695 16.158-1.4426 14.15-10.105-2.8635-16.456-12.827-35.662-30.159-40.027z" fill="#888a85"/>
 <path d="m925.54 616.5c-1.0941 0.10313-1.8061 1.0928-1.9917 2.1068-0.27358 0.23009-0.80521 0.1731-1.1689 0.32611-1.1803 0.19701-2.3189 1.276-2.0487 2.5474 0.14752 1.2388 1.5003 1.9195 2.6528 1.7295 1.7306-0.12981 3.573-0.6344 4.8219-1.8987 0.7651-0.7597 0.51443-1.9198 0.13958-2.8091-0.26145-1.0424-1.1064-2.0659-2.2691-1.995-0.0452 0.01-0.0907-0.0154-0.1359-7e-3z" fill="#888a85"/>
 <path d="m921.72 634.86c-1.1006 0.051-1.7281 1.0413-2.2382 1.8832-0.63168 0.65114-1.2756 1.4916-1.0228 2.4562 0.23963 1.3214 1.861 1.9848 3.0169 1.3828 1.148-0.43834 2.0391-1.4272 2.2932-2.6376 0.40466-1.0948 0.0131-2.5492-1.1753-2.9421-0.27805-0.13368-0.57201-0.1343-0.87374-0.14243z" fill="#888a85"/>
 <path d="m883.87 591.33c-1.2767 0.40254-2.4004 1.8894-1.7871 3.2351 0.72604 1.7975 3.6766 1.5982 4.2809-0.19077 0.58726-1.5092-0.83118-3.4488-2.4937-3.0444z" fill="#888a85"/>
 <path d="m852.83 546.33c-1.2217 0.27218-1.8485 1.5238-2.2149 2.6078-0.34692 1.3195 0.90223 2.7299 2.2618 2.472 0.86489-0.17831 1.6341-0.69804 2.3866-1.1371 1.195-0.74143 1.0786-2.7177-0.16992-3.3451-0.69349-0.37463-1.4522-0.72612-2.2635-0.59754z" fill="#888a85"/>
 <path d="m832.58 550.31c-1.3661-8e-3 -2.3509 1.4954-1.9062 2.7624 1.2689 4.6097 2.1081 9.3512 2.2466 14.136 0.0478 1.4356 1.735 2.4729 3.0228 1.7918 0.56879-0.27037 0.97631-0.80182 1.1818-1.3879 1.0632-0.35804 2.2577-1.0679 2.3093-2.3223-0.0399-1.1075-0.48339-2.1647-0.73658-3.2388-1.0457-3.5992-2.4204-7.1081-4.1013-10.457-0.3757-0.76937-1.1499-1.2961-2.0164-1.2842z" fill="#888a85"/>
 <g transform="translate(0 -308.27)">
  <ellipse transform="matrix(.97385 -.22718 .22718 .97385 0 0)" cx="617.96" cy="675.52" rx="23.598" ry="43.4"/>
  <ellipse transform="matrix(.97385 -.22718 .22718 .97385 0 0)" cx="446.53" cy="677.41" rx="25.536" ry="46.964"/>
  <path d="m699.03 659.67c9.0232-7.2837 19.701-10.432 34.093-4.2932" fill="none" stroke="#a40000" stroke-linecap="round" stroke-linejoin="round" stroke-width="1px"/>
  <path d="m716.63 652.19c1.6836 3.4071 0.57902 7.2999 0.32651 7.4716" fill="none" stroke="#a40000" stroke-linecap="round" stroke-linejoin="round" stroke-width="1px"/>
  <path d="m485.71 656.65c0.64015 1.3971-15.331 9.5574-40.53 23.688-25.001 14.02-59.7 34.353-94.024 61.112-0.28289 0.22055-0.56535 0.44121-0.84737 0.66197-35.177 27.531-60.517 54.824-79.037 77.895-17.838 22.222-27.025 37.443-28.419 36.642-0.97734-0.56146 6.0505-17.094 22.791-40.873 17.209-24.444 42.714-53.534 78.502-81.54 0.2878-0.22516 0.57607-0.45015 0.86482-0.67495 35.126-27.347 70.797-46.934 96.903-59.502 26.262-12.643 43.289-18.517 43.796-17.411z" fill="#555753" fill-rule="evenodd"/>
  <path d="m271.43 813.79c0.72926 1.2026-3.8936 5.379-11.722 11.414 4.7732-3.6794-31.439 23.625-30.569 22.954-3.7344 2.8853-7.2365 5.66-10.62 8.4127l-1e-5 1e-5c-18.789 15.231-6.41 6.079-22.082 18.636-5.7198 4.5829-9.5318 6.918-10.364 6.0844-0.8087-0.80989 1.4734-4.6457 5.9773-10.415 4.2558-5.4514 11.51-13.889 20.185-21.665 3.3569-3.0009 6.9551-5.9932 10.794-8.9594 12.055-9.3148 24.086-16.505 32.891-21.023 8.8888-4.5614 14.81-6.5926 15.51-5.4373z" fill="#555753" fill-rule="evenodd"/>
  <path d="m210 852.36c0.0474 1.0954-4.5341 2.1164-12.21 3.702-7.3696 1.5224-18.728 3.7973-30.382 7.8642-7.5686 2.6396-15.59 6.1398-23.328 10.843-2.3621 1.4358-4.6242 2.939-6.7867 4.5077-8.9538 6.4664-16.092 13.976-21.642 20.944-11.48 14.403-16.464 25.877-18.508 24.996-1.0714-0.46185 0.99721-13.203 11.79-29.82 5.2435-8.0644 12.615-16.718 22.47-24.113 2.3795-1.7786 4.8763-3.4655 7.4859-5.0526 8.5652-5.2091 17.417-8.7812 25.735-11.145 26.477-7.518 45.323-3.969 45.377-2.7267z" fill="#555753" fill-rule="evenodd"/>
  <path d="m229.3 883.16c0.42179 1.1146-7.1722 5.0844-20.214 10.879-8.6474 3.8424-35.878 15.288-52.085 22.923l-1e-5 1e-5c-7.4488 3.5138-15.312 7.4069-22.758 11.895-1.281 0.77213-2.5415 1.5568-3.7815 2.3562-6.8734 4.4704-12.843 9.0331-17.343 14.553-0.10711 0.35674-0.17418 0.0911-0.0347-0.38892-0.18418-0.62529-0.0964-0.74105-0.0581-0.46354 0.31891 0.53151 1.1654 1.0904 2.2136 1.8311 1.6366 1.0745 3.5286 1.9967 5.4743 2.8921 6.9179 3.161 14.695 5.7196 20.941 7.813h1e-5c21.579 7.2148 35.528 11.387 35.117 13.088-0.30538 1.2622-14.859-0.24107-37.238-5.7733-6.5177-1.6043-14.556-3.7104-22.362-6.8342-2.1756-0.86447-4.5032-1.9025-6.823-3.273-1.4473-0.80145-3.0992-1.9906-4.6685-3.7864-1.1631-1.2091-1.997-3.1399-2.1409-5.7023 0.20235-2.3976 0.98583-4.2428 2.0659-5.4176 5.3331-6.7601 12.051-12.187 19.433-16.929 1.3304-0.8617 2.6791-1.7031 4.0457-2.5262 7.9649-4.7972 16.174-8.7484 23.895-12.152 20.409-9.0087 41.159-15.961 53.936-19.896 13.64-4.2014 21.98-6.1544 22.384-5.0876z" fill="#888a85"/>
  <path d="m240 882.36c0.0252 1.0822-9.7436 1.7686-26.529 4.0778-15.978 2.1981-41.302 6.3134-66.917 16.455-23.165 8.0897-48.316 21.69-67.776 43.146 1.6363 0.72264 3.2843 1.4355 4.9433 2.1366 13.916 5.8804 27.522 10.466 41.241 13.464 15.48 4.505 30.168 6.6915 44.103 6.2477 15.998-0.48815 30.099-4.5242 41.444-9.8498h1e-5c28.46-13.301 38.582-30.577 40.921-28.534-0.42868-0.37438-8.4617 18.718-37.836 34.638 0-1e-5 -1e-5 0-1e-5 0-11.799 6.3695-26.802 11.392-44.126 12.443-15.015 0.89321-30.819-1.0582-47.161-5.6206-14.905-5.1575-29.604-12.186-44.406-20.652-1.7645-1.0092-3.5139-2.0294-5.2475-3.0578 20.422-25.885 46.607-42.76 70.812-52.548 27.209-9.7907 53.034-12.603 69.532-13.403 17.175-0.83269 26.986 0.26677 27.004 1.0578z" fill="#555753" fill-rule="evenodd"/>
  <path d="m227.14 949.51c0.50079-2.0505 8.198-0.92177 19.392 0.37931 5.1229 0.57998 11.404 1.1995 17.314 0.56475 1.1802-0.1184 2.3711-0.289 3.5681-0.51386 4.8158-0.90464 9.2069-2.5857 13.001-4.6604 5.8846-3.1676 11.019-7.6189 14.326-10.357 3.5201-2.9152 5.8015-4.6195 6.6856-3.984 0.80975 0.58201 0.14225 3.4471-2.3528 7.6467-2.422 4.0765-6.8894 9.8388-13.779 14.584-4.4731 3.0386-9.9068 5.4399-16.033 6.5934-1.5189 0.28603-3.0354 0.48656-4.5411 0.60516-7.5199 0.54828-14.432-0.72686-19.829-2.2492-11.378-3.1777-18.086-7.237-17.751-8.609z" fill="#555753" fill-rule="evenodd"/>
  <path d="m284.29 949.51c0.684-1.3385 12.517 3.8078 31.928 10.727 20.252 7.2188 45.651 15.179 77.344 21.446 31.316 6.1922 58.77 8.7464 79.95 10.231 20.678 1.4494 33.577 1.8258 33.635 3.3106 0.0499 1.2656-12.776 3.4092-33.821 3.7677-21.33 0.36338-49.862-1.1912-81.706-7.5033-32.091-6.361-58.463-15.751-78.059-24.717-19.114-8.7451-29.841-16.146-29.271-17.262z" fill="#555753" fill-rule="evenodd"/>
  <path d="m588.57 873.79c0.34847 0.95501-3.3639 3.1111-9.8086 6.5676-5.7531 3.0856-16.223 8.4478-24.305 15.641-2.6169 2.3405-5.161 4.981-6.8299 7.949-1.195 2.0932-2.0509 4.4384-2.3036 6.8142-0.26563 2.1272-0.0574 4.4501 0.42076 6.8905 0.3519 1.7647 0.88236 3.5706 1.5105 5.4601 0.24366 0.73295 0.5002 1.473 0.76242 2.2175 0.53103 5.2325 1.4947 10.209 1.1778 16.446 7.1037-9.8026 15.391-16.107 23.803-19.302h1e-5c16.881-5.1292 27.018-0.58536 27.001-0.11213-0.0836 2.3856-10.341 0.89788-24.427 7.1308-8.7839 3.1099-18.062 8.3194-27.626 16.312-2.0948-5.3906-5.6176-10.454-9.3372-17.101-0.28952-0.79469-0.57526-1.6082-0.85061-2.4397-0.70935-2.1421-1.334-4.3568-1.791-6.6726-0.6506-3.2536-0.83704-6.6626-0.37937-10.095 0.56341-3.8974 1.9799-7.461 3.9249-10.506 2.6786-4.1457 6.0475-7.3539 9.3417-9.8448 10.139-7.682 21.228-11.701 27.919-13.661 7.1725-2.1014 11.491-2.531 11.797-1.6931z" fill="#555753" fill-rule="evenodd"/>
  <path d="m660 910.93c0.41563-0.40478 5.8768 4.0183 14.908 13.062 8.2994 8.3113 22.445 23.396 34.415 42.136 4.1391 6.4768 8.3303 13.965 11.445 22.275 2.1513 5.7037 3.8404 12.124 4.1025 18.967 0.19659 5.1897-0.59015 10.682-2.788 15.902-2.0134 4.6761-5.0863 8.8807-8.9129 12.344-4.0028 3.6144-8.607 6.4401-13.478 8.6433-5.3662 2.4401-11.004 4.2132-16.786 5.546-12.909 2.9778-26.254 3.9823-40.07 4.0068-14.163 0.04-28.528-0.9723-43.212-2.7799-6.6662-0.8191-13.379-1.799-20.124-2.9539-6.5406-1.1201-12.998-2.3856-19.369-3.7952-5.4649-1.2088-10.862-2.5265-16.198-4.0073-4.2781-1.1857-8.5302-2.4745-12.74-3.9995-2.7307-0.9552-5.6033-2.2438-8.3527-4.1802-1.8046-1.1874-3.5855-3.0407-4.8973-5.6405-0.95231-2.1523-1.1988-4.4522-0.76121-6.6581 0.46891-2.1028 1.2874-3.8416 2.2368-5.2085h2e-5c1.8694-2.7428 3.9774-4.7772 5.7623-6.4709 0.67519-0.733 1.0724-0.9961 0.96646-0.9586-0.263-0.2309-0.36593 0.6994-0.46451 2.8057 1.2621 2.5296 2.2226 3.6778 3.0481 3.4344-0.29442-0.1107-0.87462-0.1552-1.6966-0.2639-1.0142-0.1121-2.1253-0.2029-3.282-0.3194h-3e-5c-2.7025-0.2504-5.6022-0.6695-8.5914-1.6101-3.0611-0.8813-6.1658-2.7448-8.576-5.7943-2.6795-4.0566-3.2249-8.4968-2.5562-12.22 0.40596-2.0757 1.1972-3.5917 2.1108-4.5356 1.0556-1.2316 2.1487-2.1648 3.1658-2.8764l2e-5 -1e-5c2.3608-1.6904 4.7652-2.9491 6.9929-4.022 1.0195-0.49832 2.0245-0.96914 2.9748-1.4228 0.7333-0.35678 1.3319-0.62715 1.7667-0.8871 0.16268-0.12445 0.11737-0.0613-0.15164 0.14772l-2e-5 2e-5c-0.50935-0.66134-0.8145 0.75868-1.0773 4.2644 2.1811 2.7521 3.1621 3.7372 3.1053 2.8735 0.28948 0.0192 0.29814 0.0442 0.03 0.0213h-2e-5c-2.7746 0.0272-5.4667-0.29976-8.0188-0.86989-2.6999-0.56412-5.4864-1.5078-8.1372-3.0679l-2e-5 -3e-5c-2.3917-1.2231-4.6248-3.613-5.737-7.1065-0.41173-1.8661-0.31201-3.6428 0.18077-5.1979 0.64436-2.0078 1.6126-3.6397 2.6595-4.9229 4.4019-5.6222 9.7424-10.135 15.466-13.456 5.9363-3.4318 12.2-5.6187 18.22-6.9297 13.95-3.0227 27.448-1.9769 37.853-0.22005h2e-5c13.068 2.1836 23.19 5.7213 30.007 8.7043 3.9412 1.7205 6.4498 3.0862 8.4008 4.4697 0.93084 0.65237 1.505 1.1487 1.912 1.7084 0.17243 0.21037 0.28845 0.45594 0.31384 0.6854 0.0185 0.11448-0.0172 0.23072-0.0678 0.31137h-1e-5c-0.14469 0.1888-0.27015 0.0879-0.28331 0.066-0.01-0.0164-0.0246-0.17656-0.0531-0.18952-8e-3 -4e-3 -0.0599-0.0194-0.0762-0.0303-0.12696-0.12262-0.13157-0.0551-0.3946-0.2365-0.66291-0.37704-0.92086-0.45338-2.1043-0.95283-2.382-0.97641-4.3894-1.6966-8.6909-3.0245-6.9624-2.1387-16.988-4.79-29.703-6.1889h-2e-5c-10.089-1.0917-22.957-1.5173-35.49 1.742-5.3923 1.3964-10.897 3.5149-15.914 6.6452-4.8251 2.9988-9.2918 6.9986-12.896 11.86-0.60044 0.87393-1.0845 1.6316-1.2063 2.2652-0.074 0.39934-0.11627 0.73587-0.0292 0.86304-0.14172 0.38989 0.83261 0.96974 1.9527 1.8215h1e-5c1.5275 0.90824 3.457 1.4564 5.6027 1.9144 2.0255 0.39549 4.0672 0.61072 6.0558 0.54209h2e-5c0.30273-0.0343 0.88376-0.0175 1.7361 0.10475 0.18721-0.81885 1.4834 0.2162 3.7372 3.2058-0.19634 3.7212-0.71257 5.3394-1.3884 4.8306l-5e-5 4e-5c-0.60809 0.51971-1.0436 0.82078-1.2761 0.93304-0.90784 0.54323-1.7204 0.94655-2.4003 1.2812-0.98421 0.49282-1.959 0.97113-2.8806 1.443-2.0792 1.0798-4.0323 2.1138-5.6124 3.3257h-1e-5c-0.67251 0.53283-1.2122 0.96698-1.4985 1.3671-0.15324 0.35814-0.25442 0.32685-0.0711-0.0713-0.12265 2.3272-0.0757 4.5515 0.94648 5.496 0.58754 0.99995 2.1438 1.6968 3.9538 2.367 1.9118 0.6203 4.1496 0.8698 6.6364 1.1128h2e-5c1.0371 0.092 2.1759 0.1726 3.3658 0.2889 0.83676 0.063 1.9324 0.1947 3.2523 0.5282 1.1768-0.1467 2.511 1.2125 3.8376 4.101-0.0247 2.518-0.35688 3.8521-0.84241 3.9759-0.98064 1.4329-1.8377 2.2841-2.3402 2.7114-1.8131 1.852-3.4733 3.381-4.396 4.918h-1e-5c-0.44388 0.7689-0.78634 1.3712-0.81022 1.785-0.0447 0.2573-0.0192 0.5773 0.0828 0.718 0.0834 0.4352 0.81047 0.9839 1.7402 1.7554 1.5763 1.1628 3.6518 2.0101 5.9806 2.873 3.8842 1.3832 7.9009 2.5722 12.041 3.7031 5.144 1.4028 10.377 2.6597 15.71 3.8262 6.2193 1.36 12.525 2.5873 18.914 3.6812 6.5878 1.128 13.148 2.0941 19.665 2.9125 14.361 1.7997 28.306 2.8653 41.993 2.9353 13.394 0.054 26.014-0.7161 38.02-3.3392 5.3554-1.1711 10.433-2.6628 15.138-4.7231 4.2526-1.8741 8.129-4.1116 11.324-6.9289 3.0125-2.648 5.4512-5.7888 6.9857-9.2104 1.7512-3.7935 2.4432-8.1019 2.4262-12.314-0.0215-5.6384-1.3799-11.308-3.1488-16.59-2.5937-7.6879-6.3248-14.903-10.053-21.302-22.961-39.38-46.175-56.164-43.537-58.733z" fill="#555753"/>
  <path d="m711.43 979.51c-0.81291-1.5455 6.4987-6.4268 13.107-17.086 3.4441-5.5862 6.5115-12.494 8.1865-20.586 0.27843-1.3479 0.51453-2.7212 0.70507-4.1171 0.954-6.9891 0.64796-13.641-0.42239-19.588-1.3933-7.8653-4.186-14.498-6.1834-19.062-2.0308-4.6404-3.3529-7.4622-2.5359-8.1316 0.87675-0.71837 12.292 6.1966 17.562 25.151 1.8817 6.8286 2.62 14.691 1.4878 22.984-0.22574 1.6533-0.52 3.2787-0.87784 4.8711-2.1397 9.5358-6.4028 17.424-11.219 23.307-9.5697 11.742-19.199 13.42-19.81 12.259z" fill="#555753" fill-rule="evenodd"/>
  <path d="m722.86 972.36c0.0357-1.3839 9.6087-1.4654 24.243-6.483 7.1476-2.4556 15.124-5.9598 23.76-11.109v-1e-5c13.475-8.0561 27.864-19.649 39.187-35.454 0.0579-0.0808 0.11569-0.16172 0.17335-0.24264 5.0624-7.1125 9.0449-14.452 11.745-21.944 2.8365-7.8798 4.1911-15.638 4.0984-22.94-0.0873-8.8568-2.3188-16.865-5.2071-23.323-7.4301-16.706-17.402-23.132-15.856-24.932 0.1348-0.15705 11.956 4.1253 22.042 21.778v1e-5c3.9274 6.9071 7.1396 15.826 7.7858 26.142 0.51015 8.4606-0.6755 17.458-3.709 26.459-2.8715 8.5301-7.1938 16.786-12.758 24.568-0.063 0.0883-0.12622 0.17643-0.18954 0.26455-12.412 17.272-28.274 29.352-43.123 37.121h-1e-5c-9.4901 4.9789-18.379 8.0543-26.199 9.8194-16.3 3.6892-26.017 1.2322-25.992 0.27697z" fill="#555753" fill-rule="evenodd"/>
  <path d="m831.76 864.07c0.70874-0.13047 4.7306 9.8158 2.4832 28.21-0.77339 6.7657-2.4019 16.165-7.5575 24.533v1e-5c-4.1522 6.7255-8.7388 14.823-10.814 23.357-0.66781 2.7365-1.1091 5.5393-1.0368 8.2557 0.0575 2.1537 0.39055 4.2914 1.1295 6.2058 0.63847 1.7005 1.6101 3.323 2.8402 4.743 1.23 1.4368 2.787 2.7036 4.54 3.8248 3.9173 2.5347 8.717 4.0311 13.97 5.1563 5.8336 1.2089 11.956 1.6958 18.372 1.8167 6.4712 0.11384 13.058-0.20172 19.797-0.82955 2.2998-0.21503 4.6077-0.46651 6.9224-0.75519 3.857-0.481 7.6703-1.0574 11.435-1.7229 4.8559-0.86127 9.5385-1.8249 14.068-3.0591 1.3678-0.41211 2.493-0.76605 3.2123-1.2852 0.39887-0.34016 0.6716-0.48438 0.57032-0.46453-0.0123 0.12168-0.0259 0.0652-8e-3 -0.0349 0.0232-0.19572-0.12388-0.57763-0.32134-1.1187-0.38344-1.0214-1.2866-2.2535-2.2842-3.8389-0.28343-0.31014-0.80967-1.1853-1.3776-2.6915l-3e-5 -3e-5c-0.39894-0.38219-0.37296-1.6617 0.15925-3.7943l1.4e-4 -2.1e-4c1.4646-2.1359 2.7915-3.1412 3.8882-3.0412 2.1978-0.30312 3.7692-0.16117 4.6636-0.083h1e-5c1.4799 0.0174 2.6758 0.0507 3.5528-0.17762 0.74461-0.2328 1.3685-0.43617 1.4355-0.68592 0.53972-0.28874 0.58626-1.664 0.75799-3.3311h-1e-5c0.38636 0.66861-0.0541 0.57099-0.55231-0.43686-0.74089-0.87924-1.7882-1.7432-2.9542-2.6953-0.79856-0.63207-1.8805-1.3882-3.1123-2.5109-0.15859-0.11527-0.4688-0.44525-0.9075-1.0037-0.58856 0.25567-0.83258-1.2087-0.64224-4.3654 2.2886-2.7377 3.6544-3.7048 4.0112-2.9632h6e-5c0.86105-0.0209 1.3854 0.0235 1.5737 0.093h2e-5c2.2764 0.31844 4.4882 0.26848 6.0186-0.56419 0.43917-0.32838 0.83201-0.47761 0.65753-0.40682 0.29466 0.075-0.11182-0.71287-0.43443-1.8567-3.3578-7.1584-9.2392-12.451-15.386-15.327-6.941-3.3044-14.679-4.1887-20.847-4.3329h-1e-5c-7.7307-0.15287-14.014 0.80603-18.401 1.6507-2.8208 0.55201-3.9173 0.81151-5.5546 1.2648-0.92739 0.27616-0.78732 0.18816-1.3851 0.40793-0.081 0.0405-0.2841 0.0756-0.28222 0.075-0.088-0.0934-0.17631 0.0986-0.20325 0.12801 0.0525-0.0574-0.36223 0.20208-0.29568-0.32288 0.0164-0.17668 0.0991-0.3769 0.2162-0.53271 0.26001-0.39609 0.66145-0.76083 1.2563-1.1806 1.242-0.89171 2.9056-1.7516 5.4109-2.7224 4.3361-1.6886 10.836-3.53 19.096-4.1078h1e-5c6.6412-0.48555 15.215-0.11772 23.757 3.2556 7.7382 3.1126 15.279 9.1876 19.948 18.079 1.1898 1.8817 1.8588 4.6906 1.1004 8.0762-0.98463 2.618-2.7025 4.4681-4.6751 5.4089 0-1e-5 -1e-5 1e-5 -1e-5 1e-5 -3.6441 1.8915-7.6856 2.3791-11.41 1.725h-1e-5c-0.15773 0.0135 0.0161 4e-3 0.52694 0.01h4e-5c0.19954 0.75396 1.368-0.18611 3.6018-2.7758 0.13477-3.0075 2e-3 -4.3138-0.49314-3.9294-0.25941-0.31191-0.345-0.43104-0.27793-0.34061 0.57102 0.52119 1.4865 1.0915 2.6406 1.9759 1.3339 0.98927 2.7923 2.1736 4.2083 3.6834 1.2692 0.96631 2.5647 3.091 2.999 6.442-1e-5 1e-5 0 3e-5 0 3e-5 0.21882 2.6759-0.39794 5.9742-2.5839 9.1851-1.8958 2.2692-4.2712 3.6484-6.6823 4.1472-2.1994 0.48482-4.1931 0.56523-5.9105 0.50849h-2e-5c-1.5493 0.0217-2.4852-0.14743-2.7144-8e-3 0.82086 0.15046 1.8606-0.72047 3.2138-2.5986l1.3e-4 -1.8e-4c0.41094-1.852 0.50564-2.8058 0.19814-2.8958 0 0-3e-5 -1e-5 -3e-5 -1e-5 -0.25591-0.4763-0.0562-0.32499 0.25758 0.26475 0.92288 1.3373 2.1049 3.028 3.1364 5.2516 0.53542 1.1399 0.95403 2.5391 1.1333 4.1818 0.16951 1.6891-0.13011 3.4734-0.94439 5.2134-1.0804 1.9955-2.4698 3.4299-3.9226 4.3147-2.0627 1.3213-4.1242 2.1217-6.0026 2.608-4.923 1.382-9.9048 2.4461-14.949 3.3548-3.9333 0.71086-7.9197 1.3213-11.954 1.8244-2.4209 0.30189-4.8352 0.56213-7.2414 0.78153-7.047 0.64477-14.019 0.93428-20.932 0.75443-6.8333-0.16988-13.574-0.81346-20.175-2.2695-5.9332-1.2723-11.789-3.3382-17.035-6.7701-2.388-1.5751-4.5866-3.4944-6.46-5.7566-1.8788-2.2856-3.3187-4.8703-4.265-7.6123-1.0424-3.0793-1.4579-6.2066-1.4109-9.1947 0.0592-3.7198 0.71403-7.2408 1.6573-10.461 2.9137-9.9085 8.2055-18.406 12.958-25.111l1e-5 -1e-5c4.6601-6.4444 6.768-15.088 8.1568-21.471 3.566-17.004 1.7519-27.126 2.8632-27.33z" fill="#555753"/>
  <path d="m885.42 902.78c-1.4143-0.29206-1.6042-4.1782-2.7392-9.7369-1.159-5.676-3.3075-12.883-8.0361-19.877-0.25636-0.37912-0.51677-0.75209-0.78103-1.1189-3.1894-4.3935-6.679-7.7178-10.216-10.164-3.4818-2.4145-6.6814-3.7926-9.1608-4.8365-2.4214-1.0194-4.0282-1.6906-4.0664-2.608-0.0524-1.2576 6.6897-4.7718 17.311 0.0232 5.0441 2.2764 10.117 6.1487 14.195 11.685 0.34227 0.46197 0.67644 0.93349 1.002 1.4143 6.0382 8.9185 7.4478 18.405 6.8065 25.189-0.64343 6.8063-3.0875 10.282-4.3136 10.029z" fill="#555753" fill-rule="evenodd"/>
  <path d="m803.57 825.93c-0.13044-0.36182 1.1863-1.9152 4.7111-1.414 1.8436 0.21876 3.9269 0.85386 6.2785 2.034 4.258 2.1148 8.8769 5.5199 13.601 10.704 4.0736 4.431 8.1817 10.158 11.227 17.162 1.4449 5.5634 1.7903 12.284-0.30785 19.508 3.4271-6.2908 6.1685-13.645 6.9013-21.57 0.14378-1.555 0.20853-3.1133 0.19036-4.673 1.3612-7.9762 0.17061-16.19-2.0795-23.432-2.8477-9.1428-7.6767-17.7-11.753-24.422-9.778-16.067-17.415-25.498-15.911-26.754 0.80532-0.67226 10.461 6.9366 22.153 22.518h1e-5c4.9554 6.5836 10.656 15.311 14.408 25.644 3.0037 8.2648 4.5861 17.988 3.0406 28.036-0.54759 1.7228-1.1938 3.4279-1.9329 5.1125-3.7778 8.6101-9.7072 16.069-16.035 22.125-0.95687-6.5067-3.693-13.116-6.7651-18.858-2.2091-6.1419-5.4056-11.5-8.6075-15.874-3.85-5.1998-7.2108-8.6248-10.588-11.274-1.8808-1.4611-3.2134-2.3343-4.6289-3.018-2.1618-0.97117-3.7978-1.2665-3.9012-1.5534z" fill="#555753"/>
  <path d="m817.86 774.51c0.19076-0.26855 9.6146 2.2154 22.158 11.798 5.4667 4.9167 10.731 12.272 13.5 22.298 1.3181-7.5061 1.3049-16.068-1.0629-24.831-0.35416-4.5044-1.2802-9.069-2.7376-13.629-1.2856-4.0223-2.9358-7.8873-4.823-11.53h-1e-5c-9.5313-18.583-25.296-32.801-35.639-41.732-10.911-9.4211-17.882-14.75-17.11-15.946 0.57628-0.89227 8.8311 2.4114 21.128 10.669 11.786 7.9145 29.072 21.754 40.362 42.366 2.219 4.0888 4.1357 8.4891 5.6106 13.139 1.6712 5.2694 2.6994 10.621 3.0531 15.954-0.98248 10.523-4.4251 20.399-8.6692 28.777-5.2643-8.6411-12.004-15.465-18.014-20.418h-1e-5c-10.661-10.412-19.092-15.036-17.757-16.915z" fill="#555753" fill-rule="evenodd"/>
  <path d="m505.71 558.79c1.0928 1.0097-2.9567 6.4714-8.0114 15.926-5.0149 9.3801-11.01 22.895-12.006 38.717 1e-5 0 0 0 0 0-0.0605 0.86911-0.10766 1.744-0.14155 2.6248-0.36454 9.476 0.85274 18.565 2.5637 26.525 4.3055 20.012 11.234 32.865 9.0239 34.065-1.1892 0.64556-11.336-10.541-17.714-31.817-2.5388-8.4669-4.2566-18.435-3.8602-29.149 0.0367-0.99248 0.0912-1.98 0.16332-2.9622h1e-5c1.444-18.225 9.2053-32.706 16.144-41.777 7.0155-9.1711 12.99-12.935 13.838-12.152z" fill="#555753" fill-rule="evenodd"/>
  <path d="m522.5 615.22c0.90724 1.8404-4.8438 5.5013-9.8158 13.142-2.4353 3.684-4.4754 8.0114-6.2377 13.335-0.15772 0.47302-0.3118 0.95028-0.46243 1.4322-2.5213 8.0661-3.9086 17.329-5.0297 23.062-1.2121 6.1974-2.3902 10.114-3.8116 10.101-1.3256-0.0124-2.6877-3.9332-3.2756-10.447-0.57563-6.3783-0.40737-15.827 2.5744-25.652 0.16968-0.55905 0.34671-1.1136 0.53105-1.6637 2.1128-6.266 5.2829-11.513 9.0313-15.533 8.1451-8.6489 15.915-8.9541 16.496-7.7763z" fill="#555753" fill-rule="evenodd"/>
  <path d="m515.71 617.72c0.80491 0.51557-0.25525 3.3937-1.8309 8.2744-1.5041 4.6591-3.727 11.95-3.8135 19.979-0.14705 7.4906 1.5538 15.81 5.5545 24.28 0.75692 1.606 1.588 3.2011 2.4916 4.7891 4.112 7.226 9.3872 13.688 14.384 19.176 15.561 18.053 21.451 20.175 26.067 26.114-0.34356 1.1426-0.75769 1.4183-1.0672 1.3151-0.3102-0.1034-0.47759-0.56361-0.35296-0.82778-3.4758-1.3271-18.352-8.8361-31.185-20.172-5.7954-5.485-11.794-12.368-16.52-20.667-1.0327-1.8134-1.9814-3.6536-2.843-5.5196-4.6099-10-6.0112-20.151-5.0106-29.081 1.1546-9.6426 4.8941-17.123 7.8513-21.561 3.0592-4.591 5.5824-6.544 6.275-6.1003z" fill="#555753" fill-rule="evenodd"/>
  <path d="m558.21 666.65c1.3727 1.3812-1.6525 5.6093-3.3769 12.193-0.8556 3.1637-1.348 6.754-1.2928 10.866 3e-3 0.88438 0.0325 1.7797 0.0885 2.6898 0.41545 6.7446 2.3358 13.674 3.4529 18.44 1.1689 4.9876 1.6694 8.3628 0.414 9.0261-1.1621 0.61404-3.9419-1.5553-6.944-6.197-2.9566-4.5713-6.2213-11.827-6.8506-20.602-0.0819-1.1412-0.11657-2.2759-0.10467-3.4016 0.0975-5.3894 1.4774-10.191 3.5281-14.025 4.4165-8.1405 10.138-9.9423 11.085-8.9894z" fill="#555753" fill-rule="evenodd"/>
  <path d="m557.5 668.08c0.96669 0.15874 1.2675 2.6615 1.9498 6.6672 0.65777 3.8621 1.7774 9.648 4.8149 15.054 2.8484 5.2607 7.3336 10.18 13.45 14.75 0.31835 0.23617 0.6401 0.47028 0.96527 0.7024 6.1882 4.4173 13.051 7.6898 19.03 10.244 13.164 5.595 22.965 7.9908 22.647 10.082-0.2435 1.5996-10.657 2.5777-25.588-1.817-6.7753-1.9813-14.566-5.1851-21.879-10.363-0.38089-0.26969-0.75803-0.543-1.1314-0.81994-7.2849-5.3716-12.483-12.07-15.364-19.115-2.9824-7.5385-2.8356-14.441-2.0403-18.798 0.82014-4.4935 2.3026-6.7249 3.1454-6.5865z" fill="#555753" fill-rule="evenodd"/>
  <path d="m587.75 676.86c1.2753-0.4539 3.3836 2.0465 6.0169 6.2818 3.6258 5.8315 4.7736 8.5671 9.5323 16.387v1e-5c0.27359 0.45205 0.55105 0.90593 0.83267 1.3618 4.2553 6.8886 7.8644 11.714 11.109 16.326 2.9689 4.2206 4.7854 7.1654 3.8945 8.2582-0.84627 1.038-4.2947 0.0256-8.8763-3.2436-4.6235-3.2992-10.067-8.6982-14.633-16.084-0.31587-0.51096-0.62228-1.023-0.91929-1.5355-4.0423-7.0126-6.3252-13.949-7.343-18.946-1.0297-5.0556-0.84301-8.3679 0.38663-8.8056z" fill="#555753" fill-rule="evenodd"/>
  <path d="m589.09 680c1.0554-0.87618 4.5978 1.6582 9.8179 6.0316 5.0333 4.2169 12.289 10.717 20.232 16.59l1e-5 1e-5c0.52972 0.39206 1.0652 0.78344 1.6064 1.1739 8.9285 6.4412 16.586 10.6 23.225 13.987 6.2434 3.1851 10.398 5.132 10.1 6.5336-0.27283 1.2822-5.0232 1.8056-12.472 0.11659-7.5789-1.7185-17.125-5.5885-26.713-12.53-0.59303-0.42931-1.1766-0.86346-1.7507-1.3019v-1e-5c-8.7627-6.6987-15.291-14.191-19.319-19.909-4.0606-5.7649-5.7229-9.8654-4.7264-10.693z" fill="#555753" fill-rule="evenodd"/>
  <path d="m628.57 691.49c1.5963-0.0313 3.3689 3.6347 6.3252 7.335 1.7722 2.2387 3.532 4.0326 6.1965 6.7807 0.23356 0.23842 0.46884 0.47776 0.70751 0.72 4.0907 4.1519 7.4082 7.4515 9.9078 11.068 2.3154 3.3504 3.1129 5.9536 2.1168 6.9259-0.97666 0.95328-3.5157 0.15182-6.8796-1.6995-3.2032-1.7628-7.9995-4.9695-12.257-9.27-0.27109-0.27384-0.5381-0.55009-0.80091-0.82879-2.871-3.0175-5.0474-6.2853-6.3818-9.6495-2.7825-6.9812-0.44131-11.353 1.0653-11.382z" fill="#555753" fill-rule="evenodd"/>
  <path d="m764.18 709.42c-0.83898-2.0846 5.4737-5.178 12.829-11.362 3.0194-2.5359 6.1844-5.6987 8.6672-9.5096 0.49318-0.73866 0.96592-1.5074 1.4214-2.3072 1.9992-3.5103 3.5321-7.3987 4.8088-10.961 4.0755-11.497 5.9417-20.444 8.3868-20.156 1.6972 0.19978 3.4915 9.4716 0.52641 22.694-0.92899 4.1917-2.4774 8.8435-5.0466 13.36-0.5791 1.0181-1.1972 2.0066-1.8545 2.9633-3.4996 5.0035-7.8606 8.6012-12.025 11.01-9.7546 5.6102-17.195 5.5582-17.713 4.2688z" fill="#555753" fill-rule="evenodd"/>
  <path d="m629.33 693c0.72561-0.78234 4.98 2.4966 12.905 6.9083 7.9688 4.4362 19.528 9.8454 34.517 12.724 13.615 2.6136 29.229 3.0403 45.815-0.11767 1.212-0.23075 2.415-0.4781 3.6087-0.74139 17.472-3.8856 32.011-10.874 43.374-19.317 6.94-5.1505 12.285-10.512 16.43-15.593 8.9658-10.985 11.583-19.422 13.042-18.972 0.75778 0.23422 0.51657 9.5638-7.8421 22.707-3.8127 5.9929-9.1531 12.409-16.372 18.487-11.818 9.9411-27.532 18.207-46.456 22.441-1.2928 0.29141-2.5965 0.563-3.9105 0.81399-17.993 3.437-35.009 2.4858-49.583-1.1185-16.089-3.9761-28.01-11.058-35.512-17.013-7.5255-5.9727-10.57-10.611-10.015-11.209z" fill="#555753" fill-rule="evenodd"/>
  <path d="m766.74 709.37c-0.50359-2.2381 7.5341-3.8393 19.384-6.7959h1e-5c5.4997-1.4196 12.581-3.4588 17.75-7.4324 2.5595-1.8966 4.9028-4.3203 6.8704-7.1616 0.51339-0.73459 1.001-1.5001 1.4651-2.2949 1.6944-2.902 3.0051-6.0768 4.0682-9.2405v-1e-5c3.6806-10.903 4.6524-22.889 5.3664-30.365 0.76435-8.0035 1.3688-12.916 2.6423-13.001 1.1239-0.0746 2.7817 4.6697 3.7549 12.918 0.9366 7.9373 1.3139 20.352-2.4014 33.348v1e-5c-1.0833 3.7658-2.6266 7.6491-4.8065 11.379-0.59553 1.0189-1.2306 2.0126-1.9062 2.9784-2.6558 3.7705-5.9108 6.9201-9.5139 9.3428-7.5644 4.9448-15.822 6.5449-22.011 7.0957-5.6862 0.54966-12.182 0.44578-14.946 0.35207-3.4866-0.11822-5.5466-0.36745-5.7165-1.1225z" fill="#555753" fill-rule="evenodd"/>
  <path d="m824.28 633.15c1.145-0.64556 3.3086 0.68631 6.0388 3.0908 2.5378 2.2351 6.6007 6.3337 9.6427 11.556 0.19568 0.33562 0.3872 0.67795 0.57394 1.0269 1.8206 3.4017 2.9128 6.9183 3.2962 10.297 0.91181 8.6888-2.8129 13.223-4.3994 12.92-2.0689-0.39473-2.3437-5.4165-4.3926-11.087-0.81557-2.3478-1.8928-4.6955-3.3377-7.427-0.14631-0.27656-0.29374-0.55211-0.44165-0.82609-2.7772-5.1362-4.9334-8.1637-6.6331-12.546-1.4402-3.7131-1.5285-6.3388-0.34716-7.0049z" fill="#555753" fill-rule="evenodd"/>
  <path d="m840.95 569.51c1.2531-0.69023 10.325 8.5173 14.889 26.98 1.728 7.0477 2.566 14.983 2.0984 23.51-0.0627 1.1433-0.14773 2.2762-0.25375 3.3976-1.3616 13.945-5.812 26.595-9.135 34.493-3.4774 8.265-6.3878 13.017-7.5984 12.634-1.3142-0.41514-0.7184-5.9416 1.0223-14.657 1.5402-7.7117 4.8338-21.399 5.7688-33.349 0.0827-1.0131 0.15264-2.0349 0.20874-3.0646 0.41905-7.6909 0.01-14.744-0.96851-21.187-2.5016-16.702-8.1595-27.585-6.0313-28.757z" fill="#555753" fill-rule="evenodd"/>
  <path d="m841.46 570.01c0.96632-0.86942 3.7952 0.36435 7.5945 3.1571 3.6422 2.6772 8.9375 7.3893 13.102 13.792v1e-5c0.3001 0.46648 0.59333 0.94297 0.87882 1.4293 2.3724 4.041 3.8782 8.1904 4.6234 12.137 1.8941 10.285-1.3307 16.563-2.9648 16.456-2.1818-0.14244-2.8109-6.4754-5.7397-14.103-1.1377-3.0111-2.6089-6.1165-4.5487-9.4308-0.23238-0.39704-0.46731-0.78993-0.70421-1.1785-0.33062-0.54943-10.284-15.346-9.7093-14.417-2.4912-4.0231-3.5416-6.934-2.5315-7.8428z" fill="#555753" fill-rule="evenodd"/>
  <path d="m826.81 512.94c0.60154-1.0397 12.208 1.825 25.678 14.016 6.2107 5.6273 12.471 13.285 16.88 22.965 0.68672 1.5207 1.322 3.0782 1.9037 4.6701 3.1906 8.7304 4.4021 17.463 4.4229 25.306 0.0471 22.534-7.8125 35.881-8.9843 35.574-2.6803-0.70303 1.4586-14.963-0.15686-35.218-0.55728-7.0198-1.9046-14.697-4.6634-22.229-0.50462-1.3777-1.0466-2.7236-1.6255-4.0371-3.6442-8.3537-8.7716-15.406-13.791-21.025-10.937-12.251-20.823-18.017-19.664-20.021z" fill="#555753" fill-rule="evenodd"/>
  <path d="m587.91 386.17c-0.4302-0.55102 6.0774-7.8276 20.491-16.765 14.056-8.7158 36.85-19.444 65.628-21.815 25.3-2.0465 54.272 2.5425 81.577 17.012 0.90379 0.47893 1.8009 0.96628 2.6913 1.4619 27.848 15.502 47.742 38.102 59.694 60.908 12.773 24.433 15.877 47.975 16.023 63.699 0.14969 16.048-2.4885 24.871-3.1634 24.799-1.1576-0.12336-0.31972-9.1064-1.9365-24.512-1.5861-15.114-5.8353-37.347-18.57-59.828-11.897-21.056-30.902-41.882-56.907-56.327-0.83192-0.46214-1.6701-0.91699-2.5144-1.3644-25.479-13.503-52.524-18.236-76.306-17.01-26.993 1.348-49.338 10.408-63.655 17.56-14.684 7.3354-22.315 13.129-23.053 12.183z" fill="#555753" fill-rule="evenodd"/>
  <path d="m588.21 386.29c-1.1736-0.47102-0.95664-4.8144 1.4823-11.361 2.4493-6.5744 7.0855-15.07 14.606-23.112v-1e-5c0.59935-0.64036 1.2156-1.2746 1.8486-1.9017 8.3767-8.2979 17.49-13.182 24.771-15.574 7.1981-2.3653 11.924-2.151 12.292-0.90799 0.40855 1.3815-3.5208 3.6012-9.2948 7.3036-6.0168 3.8581-13.238 8.8732-20.731 16.286-0.56131 0.55536-1.1122 1.1125-1.6528 1.6711-6.8807 7.1034-11.887 14.041-15.771 19.439-3.7958 5.2746-6.274 8.6698-7.5502 8.1576z" fill="#555753" fill-rule="evenodd"/>
  <path d="m641.07 333.79c0.21397 0.94998-2.3773 2.3356-7.322 3.166-2.8359 0.48674-5.3162 0.70345-9.0362 1.1132-5.6496 0.63997-13.286 1.6454-20.08 4.354-4.8748 1.8805-9.6617 4.6937-14.291 8.4307-2.6366 2.1282-5.0708 4.4345-7.2891 6.8014-8.182 8.7239-14.25 18.99-18.243 25.658-4.189 6.9972-6.8243 11.293-8.024 10.833-1.0611-0.40694-0.5531-5.5143 2.1908-13.527 2.6705-7.7984 7.803-19.125 16.766-29.522 2.4394-2.8257 5.2147-5.5516 8.325-8.0454 5.4549-4.3737 11.359-7.5692 17.408-9.5536 8.6382-2.7463 16.994-2.9004 23.108-2.4698 3.3426 0.2274 6.893 0.68607 9.0682 0.98463 4.5044 0.59345 7.2534 1.0366 7.42 1.776z" fill="#555753" fill-rule="evenodd"/>
  <path d="m556.32 396.24c-2.4914-0.0399-4.4094-9.2218-4.5949-21.252 0.0388-1.3197 0.11115-2.6811 0.22545-4.0713 0.39477-4.8018 1.2273-9.164 2.454-12.984 0.89463-2.7894 1.9811-5.1292 3.2327-6.9996 2.2574-3.4745 4.7108-4.3726 5.5805-3.5754 0.65801 0.60317 0.57215 2.9787 0.22366 5.8198-0.28992 2.9409-0.24927 2.7942-0.56648 6.5081-2.353 28.203 1.4664-17.243-0.94712 11.879-0.10705 1.2917-0.21762 2.5571-0.33839 3.8076-0.56627 11.831-2.7794 20.907-5.2694 20.867z" fill="#555753" fill-rule="evenodd"/>
  <path d="m563.48 347.72c0.56018 1.2873-1.6487 3.4162-4.6917 6.5666-3.049 3.1565-6.9658 7.3987-9.5775 12.884-0.0728 0.14388-0.14469 0.28865-0.2158 0.43432-2.7186 5.5694-3.7594 11.545-4.5436 16.01-0.79034 4.5001-1.3566 7.6067-2.7572 7.8548-1.276 0.22604-3.2983-2.4709-4.3402-7.6775-1.0304-5.1495-0.97166-12.733 2.616-20.467 0.092-0.19826 0.18572-0.39536 0.28123-0.59128 3.8526-7.5658 9.8414-12.11 14.597-14.25 4.8068-2.1627 8.1247-1.9296 8.6316-0.76458z" fill="#555753" fill-rule="evenodd"/>
  <path d="m542.5 390.58c-0.22698 1.9699-5.2423 2.3801-12.443 1.8332-3.2389-0.22282-7.4908-0.67153-10.966-0.41403-0.85374 0.0554-1.7188 0.15087-2.5877 0.28994-2.7077 0.43338-5.1749 1.2437-7.327 2.3157-3.6396 1.7295-7.1125 4.5738-9.3883 6.2457-2.4641 1.8102-4.2307 2.8317-5.1457 2.2295-0.85618-0.56344-0.78975-2.7019 0.61319-5.7989 1.3622-3.0071 4.1941-7.2389 9.0824-10.685 2.9786-2.0286 6.5742-3.5342 10.576-4.1809 1.2813-0.20704 2.5562-0.31794 3.8119-0.34012 5.122-0.0521 9.6385 1.0955 12.999 2.252 6.7665 2.2718 10.936 4.8432 10.774 6.2525z" fill="#555753" fill-rule="evenodd"/>
  <path d="m535.71 410.93c-1.0104 0.86747-3.274-0.11501-6.3724-1.3986-3.2277-1.3372-7.1429-2.8869-12.017-3.7546-0.51617-0.0976-1.0394-0.18703-1.5712-0.26837-5.1735-0.79139-10.369-0.67127-14.22-0.76689-3.9043-0.0969-6.6314-0.4203-7.0694-1.7579-0.41286-1.261 1.5386-3.3937 5.5973-5.185 4.0291-1.7782 10.154-3.1499 17.14-2.1573 0.70045 0.0995 1.3928 0.22066 2.0759 0.36269h1e-5c6.6376 1.4324 11.489 4.9156 14.215 8.1702 2.7352 3.2665 3.1679 5.944 2.2223 6.7559z" fill="#555753" fill-rule="evenodd"/>
  <path d="m535.76 410.16c0.54095 0.96593-4.1415 4.3286-11.751 10.446-7.2197 5.804-18.465 15.219-27.099 27.784-6.5644 9.4714-11.755 21.233-13.989 34.546-0.20164 1.2013-0.37663 2.4009-0.52536 3.5978-1.8864 14.82-0.0881 29.825 2.066 42.2 2.1795 12.418 5.7389 26.729 7.2704 33.524 1.8462 8.1917 2.6278 13.012 1.7278 13.315-0.98977 0.33394-10.671-16.685-17.478-45.075-3.0754-12.752-5.4548-28.603-3.5043-45.176 0.16203-1.3454 0.35617-2.6933 0.58294-4.0421 2.5166-14.968 8.6795-28.014 16.505-38.251 10.387-13.477 22.929-22.15 31.362-26.96 8.7717-5.0028 14.394-6.6883 14.832-5.9072z" fill="#555753" fill-rule="evenodd"/>
  <path d="m714.79 617.9c0.7961 0.0916 1.3448 1.5787 2.105 3.903 0.53622 1.6395 2.1482 6.4607 2.6614 10.688 0.34007 2.3774 0.44974 5.4024-0.41738 8.7649-0.84063 3.0392-2.7644 5.9898-5.8583 8.0814-2.6338 1.7837-5.6907 3.4296-9.1288 4.6033-1.8209 0.62161-3.6857 1.0891-5.5849 1.3848-4.6766 0.67164-9.1318 0.07-12.953-1.2931-4.3458-1.5851-7.7929-3.9234-10.284-5.9574h-1e-5c-5.6951-4.6166-8.2393-8.4757-7.56-9.4609 0.91183-1.3224 5.0412 0.57093 11.339 3.4036 2.6275 1.1684 5.945 2.6309 9.117 3.3073 2.7304 0.60303 5.7743 0.76688 8.77 0.20792 1.2794-0.21424 2.5746-0.56195 3.8966-1.0262 2.4798-0.87084 4.9422-2.1146 7.2538-3.4122 0.98799-0.45185 1.8503-1.5311 2.368-2.6554 0.72186-1.5166 0.94809-3.6702 1.1434-5.6913 0.40708-5.1692-0.0237-6.872 0.78587-10.767 0.57998-2.7899 1.5532-4.1728 2.3463-4.0815z" fill="#555753" fill-rule="evenodd"/>
  <path d="m714.08 638.2c1.3885-1.771 6.0877 1.1764 12.874 1.3784 2.9126 0.14161 6.1544-0.28797 9.5673-1.4323 0.22074-0.0702 0.44149-0.14336 0.66232-0.21941 5.6206-1.9357 10.742-5.6687 14.442-8.1984 3.8358-2.6225 6.5448-4.2545 7.6636-3.3752 1.0203 0.8019 0.36569 4.0588-2.5684 8.3587-2.8802 4.2209-8.2052 9.6099-16.137 12.592-0.30095 0.11315-0.60313 0.22183-0.90645 0.32601-5.0045 1.657-9.9936 1.6574-14.229 0.54615-9.808-2.7156-12.12-9.0178-11.368-9.976z" fill="#555753" fill-rule="evenodd"/>
  <path d="m691.45 652.34c2.0041-1.162 6.0512 5.0658 14.544 9.8463 3.3756 1.8292 7.565 3.6092 11.331 3.2738 0.39474-0.0209 0.7917-0.0608 1.1877-0.11997 1.2119-0.18106 2.3712-0.53574 3.405-1.0376 1.6456-0.75785 3.1655-2.0327 4.4763-3.4216 3.4865-3.6029 5.7014-8.8899 7.1735-12.105 1.6034-3.5019 2.7581-5.667 3.8442-5.5271 0.9773 0.12592 1.8514 2.5385 1.7519 6.7576-0.095 4.0248-1.1798 10.475-5.5064 16.679-1.721 2.4056-4.0969 4.6953-7.1836 6.3943-1.9903 1.0678-4.1792 1.8055-6.4788 2.1506-0.75063 0.11265-1.5028 0.18189-2.2527 0.20882-7.0552 0.1125-12.846-2.8062-16.756-6.0487-9.9033-8.0249-10.596-16.436-9.5362-17.051z" fill="#555753" fill-rule="evenodd"/>
  <path d="m740.44 605.87c-0.82897-1.5939 5.2955-8.4381 17.746-11.972v-1e-5c2.79-0.78486 5.8454-1.3147 9.0785-1.45 2.1499-0.09 4.255-1.5e-4 6.2907 0.2538 4.6705 0.61587 8.7718 2.0236 11.844 3.2984 6.2691 2.5735 10.277 4.9292 10.094 6.3344-0.23334 1.7896-5.04 2.3375-12.159 1.3902-2.9879-0.37687-7.3141-1.0943-10.711-1.2614-1.5903-0.0924-3.2316-0.10334-4.9322-0.029-2.5501 0.11144-5.0308 0.4058-7.3763 0.79279h-1e-5c-10.652 1.7421-18.658 4.983-19.875 2.643z" fill="#555753" fill-rule="evenodd"/>
  <path d="m730.85 616.99c-0.14439-1.3279 3.175-3.0611 8.8412-4.4442 5.5294-1.3498 13.932-2.4749 23.04-1.2369 0.29851 0.0406 0.59615 0.0834 0.89288 0.12863 5.9087 0.91261 11.111 2.8829 15.349 5.5404 9.2 5.828 11.069 12.744 9.9612 13.649-1.5683 1.2808-6.2281-2.9548-13.957-5.9776-3.719-1.4831-7.8774-2.5675-12.872-3.3317-0.25325-0.0394-0.50759-0.0777-0.76309-0.11496-7.0838-1.0326-16.179-1.2152-21.056-1.5908-5.6604-0.43595-9.2827-1.2162-9.4356-2.6221z" fill="#555753" fill-rule="evenodd"/>
  <path d="m730.34 624.56c0.32832-1.2792 3.334-1.7559 7.8726-1.8951 4.1417-0.12697 11.424-0.0203 18.468 1.5462 0.46884 0.10393 0.94023 0.21577 1.4136 0.33593 4.5018 1.1427 8.52 2.8696 11.929 5.0287 8.6485 5.5315 11.025 12.031 9.8135 13.167-1.5502 1.4534-6.5644-2.2369-14.006-5.2211-3.0513-1.2441-6.3177-2.2813-10.21-3.2797-0.4043-0.1037-0.80791-0.20511-1.2101-0.30439h-1e-5c-7.342-1.8059-11.919-2.4552-17.345-4.4673-4.5689-1.6942-7.0626-3.6024-6.727-4.9103z" fill="#555753" fill-rule="evenodd"/>
  <path d="m680.84 615.47c-0.29903 0.90262-1.8896 1.2124-4.1577 1.6477-2.6685 0.5122-5.004 0.99244-9.0196 2.236-3.5456 1.1441-7.2231 2.6836-11.298 4.8456-0.50408 0.26746-1.0026 0.53827-1.495 0.81138v1e-5c-4.5232 2.5548-7.903 4.8798-10.888 7.4045-2.9422 2.7038-3.5321 3.1213-5.2985 5.0576-1.1672 1.2795-1.9664 2.3096-2.7955 2.2409-0.79135-0.0656-1.5934-1.3029-1.487-3.747 0.10755-2.4701 1.1787-5.7205 3.549-8.896 2.7225-3.8957 6.7282-7.6583 11.942-10.707 0.57691-0.34245 1.1676-0.67555 1.7717-0.99783 4.843-2.5837 9.7341-4.0398 14.248-4.5523 4.7905-0.5931 8.7886 0.10964 11.47 1.2556 2.6625 1.138 3.7421 2.5454 3.4585 3.4014z" fill="#555753" fill-rule="evenodd"/>
  <path d="m812.5 534.51c0.99695 2.635-12.592 5.4633-27.474 19.928l-1e-5 1e-5c-2.7791 2.675-5.0544 5.2214-8.1979 8.5214-3.553 2.876-7.6313 5.9268-12.238 8.7236-10.871-7.6984-22.526-18.142-31.077-31.684-0.27003-0.49367-0.53509-0.99096-0.79513-1.4918-5.5631-10.714-8.3289-22.07-8.971-32.79-0.75635-12.983 1.2933-25.065 3.6858-34.594 5.3856-21.525 12.376-33.696 13.281-33.399 1.9804 0.64957-2.434 13.781-5.841 34.933-1.4828 9.2596-2.7788 20.766-1.6705 32.342 0.89565 9.5224 3.5079 19.539 8.3843 28.895 0.22828 0.43798 0.46062 0.87273 0.69698 1.3042 5.3847 11.913 13.894 21.62 22.411 29.282 2.1663-2.2486 4.2485-4.9429 6.2155-7.5132 3.1926-2.96 5.9306-5.5728 9.1375-8.1781 17.852-14.39 32.413-14.382 32.452-14.279z" fill="#555753" fill-rule="evenodd"/>
  <path d="m736.43 447.72c0.22399-0.94844 4.3358-1.0995 11.202 0.0839 6.6837 1.1518 16.661 3.7321 27.153 8.898 7.4468 3.6508 15.436 8.8936 22.177 16.271 1.1328 1.24 2.2097 2.5178 3.2282 3.8328 6.8045 8.8839 10.153 18.852 11.103 27.798 1.0325 10.098-0.64777 18.77-2.2906 24.166-1.7014 5.5891-3.5277 8.45-4.3588 8.2353-0.94203-0.24338-0.82027-3.5417-0.63397-9.0821 0.176-5.2345 0.45593-13.582-1.2641-22.049-1.4962-7.5112-4.7412-15.727-10.436-22.954-0.85408-1.0986-1.7604-2.1732-2.718-3.2252-5.6638-6.2227-12.625-11.102-19.129-14.923-9.0579-5.2964-18.528-9.1634-24.385-11.655-6.2213-2.6465-9.892-4.3618-9.6475-5.3971z" fill="#555753" fill-rule="evenodd"/>
  <path d="m610 460.58c1.6179 1.968-12.245 11.628-27.141 32.648-6.0898 8.616-12.505 19.746-15.364 32.293-2.5075 10.727-2.3178 22.743 0.90275 34.715 0.0503 0.18694 0.10124 0.37357 0.15286 0.5599 3.4558 15.516 11.502 29.385 19.542 40.825 20.111-4.5878 35.157-6.0473 47.996-5.3428 11.927 0.65441 18.689 3.063 18.554 3.9449-0.16887 1.1074-7.1808 0.53628-19.315 1.2004-13.759 0.75302-27.806 2.7139-49.849 7.4017-10.037-11.944-20.669-27.295-26.562-45.347-0.059-0.21114-0.11727-0.42266-0.17469-0.63455-3.6795-13.58-3.6478-27.301-0.45324-39.602 3.781-14.267 11.29-26.012 18.454-34.698 17.28-20.995 32.928-28.363 33.257-27.963z" fill="#555753" fill-rule="evenodd"/>
  <path d="m590.36 478.79c0.42118-0.95023 15.59 1.4272 33.833 15.649 8.233 6.4265 16.623 15.325 22.862 26.83 0.66393 1.232 1.2997 2.4871 1.9067 3.7644 5.1357 10.809 7.5817 21.884 8.3779 31.842 2.1172 26.612-5.6001 43.173-6.6224 42.985-2.8182-0.51959 1.184-17.701-2.3776-41.98-1.3262-9.0573-3.8437-18.995-8.4-28.554-0.54-1.1328-1.1014-2.2452-1.6841-3.3368-5.3999-10.189-12.602-18.508-19.623-24.972-15.598-14.372-29.302-19.907-28.273-22.229z" fill="#555753" fill-rule="evenodd"/>
  <circle cx="586.6" cy="528.22" r="13.601" fill="#fff"/>
  <circle cx="753.95" cy="490.57" r="12.887" fill="#fff"/>
  <path d="m686.6 620.81c0.4545 1.3392-2.5006 3.5747-7.4487 6.3579-4.2629 2.3978-12.432 6.4004-18.419 10.325-0.21594 0.14156-0.43037 0.28358-0.64336 0.42615-4.2059 2.7999-7.5187 5.5374-10.265 8.4509-5.7326 6.0014-8.1706 11.807-10.133 11.308-1.3864-0.35298-2.6094-7.4122 3.2732-16.577 2.7212-4.1973 6.6064-8.1782 11.579-11.498 0.24997-0.16614 0.50173-0.33058 0.75526-0.4933 7.7358-4.965 15.828-7.4894 21.411-8.5984 5.7208-1.1364 9.4616-0.96533 9.8908 0.29952z" fill="#555753" fill-rule="evenodd"/>
  <path d="m687.56 628.02c0.83386 1.034-0.59362 3.7431-4.0312 7.0663-4.371 4.2255-7.6669 5.9794-13.694 10.764-0.49245 0.39074-0.98485 0.78963-1.4748 1.1966-2.7766 2.3058-5.0755 4.5364-7.0525 6.8291-5.5454 6.3314-8.2504 12.405-10.452 11.779-1.5597-0.44347-2.6098-7.7635 3.0282-17.091 2.0098-3.276 4.7172-6.4248 8.0877-9.2184 0.59827-0.49587 1.2032-0.96879 1.8123-1.4192 5.7229-4.2288 12.373-7.1108 16.035-8.5456 4.0833-1.6 6.9299-2.3684 7.7421-1.3612z" fill="#555753" fill-rule="evenodd"/>
  <path d="m684.29 598.79s30.844-15.917 49.286-11.429c11.598 2.8228 4.393 26.842-15.714 33.571-20.183 6.7543-45.178-11.727-33.571-22.143z" fill="#2e3436" fill-rule="evenodd"/>
 </g>
</svg>
