<?xml version="1.0" encoding="utf-8"?>

<!DOCTYPE svg PUBLIC "-//W3C//DTD SVG 1.1//EN" "http://www.w3.org/Graphics/SVG/1.1/DTD/svg11.dtd">
<svg version="1.1" id="Layer_1" xmlns="http://www.w3.org/2000/svg" xmlns:xlink="http://www.w3.org/1999/xlink" x="0px" y="0px"
	 viewBox="0 0 1622.8417 1647.821" enable-background="new 0 0 1622.8417 1647.821" xml:space="preserve">
<path d="M1599.2936,962.6775l-26.5194-32.2097c-37.5078-40.5574-81.1278-76.5023-128.6597-106.5026
	c47.8375-30.5126,91.5944-66.8937,128.6063-106.915l26.5194-32.2097l-35.9366-21.197
	c-49.1167-25.2831-102.4001-44.1412-157.327-56.0753c34.5171-45.0341,63.1921-94.187,84.2838-144.4535l13.9041-39.3374
	l-41.0193-7.6277c-54.802-6.9594-111.3224-6.4562-167.0179,1.1155c17.0326-54.1237,27.1677-110.1196,29.7952-164.5685
	l-0.3892-41.7205l-41.1544,6.8618c-53.8774,12.2039-106.8165,32.0075-156.5635,58.1716
	c-2.506-56.6852-12.135-112.7702-28.2886-164.8341l-14.6342-39.0714l-36.3257,20.5234
	c-46.454,29.8951-89.4276,66.6108-127.2263,108.2117c-21.742-52.4096-49.972-101.8194-82.958-145.2186L811.267,23.9105
	l-27.1152,31.7098c-33.428,43.9805-61.2522,93.1798-82.5431,145.1995c-38.3561-41.8127-81.7825-78.5874-127.6227-108.0874
	l-36.3257-20.5234l-14.6346,39.0714c-16.3701,52.7613-25.6891,108.5098-27.9037,164.6743
	c-50.344-26.1725-103.7289-45.8766-156.8944-57.9192l-41.1544-6.8618l-0.3887,41.7205
	c2.6627,55.1783,12.9726,110.752,30.1007,164.2869c-56.2591-7.3755-113.1642-7.6325-167.2422-0.7651l-41.0193,7.6276
	l13.9041,39.3374c21.374,50.9399,50.0697,99.6359,84.4749,144.0841c-55.3887,12.311-108.9497,31.5323-157.4178,56.4811
	l-35.9366,21.1971l26.5195,32.2097c37.5078,40.5574,81.1278,76.5022,128.6601,106.5026
	c-47.8375,30.5126-91.5944,66.8937-128.6063,106.915l-26.5199,32.2097l35.9366,21.1971
	c49.1172,25.2831,102.4006,44.1412,157.327,56.0753c-34.5171,45.0342-63.1917,94.1869-84.2833,144.4535l-13.9041,39.3374
	l41.0193,7.6277c54.802,6.9594,111.3219,6.4562,167.018-1.1155c-17.033,54.1238-27.1673,110.1195-29.7951,164.5685l0.3891,41.7205
	l41.154-6.8616c53.8778-12.2039,106.8169-32.0076,156.5643-58.172c2.5056,56.6852,12.1341,112.7704,28.2877,164.8344
	l14.6345,39.0715l36.3258-20.5234c46.454-29.8951,89.4275-66.6107,127.2258-108.2115
	c21.7424,52.4097,49.972,101.8191,82.9584,145.2183l27.1152,31.71l27.1157-31.71c33.428-43.9802,61.2521-93.1797,82.5426-145.1993
	c38.3566,41.8126,81.7829,78.5874,127.6231,108.0872l36.3258,20.5234l14.6342-39.0713
	c16.3705-52.7614,25.6896-108.5099,27.9047-164.6744c50.3435,26.1725,103.7284,45.8768,156.8939,57.9193l41.1544,6.8616
	l0.3892-41.7205c-2.6627-55.1782-12.9735-110.752-30.1016-164.2867c56.2594,7.3756,113.1646,7.6326,167.2426,0.765l41.0194-7.6276
	l-13.9042-39.3374c-21.3739-50.9399-50.0697-99.636-84.4749-144.0841c55.3883-12.311,108.9497-31.5323,157.4182-56.4812
	L1599.2936,962.6775z M1491.5448,703.826c-30.2264,33.2379-64.6161,63.3315-101.9319,89.2402
	c-40.847-20.6638-83.7595-37.0198-127.5818-48.3338c37.6394-25.3942,72.6876-55.9426,104.2218-90.0103
	C1409.9702,666.5561,1452.3531,683.2132,1491.5448,703.826z M903.9727,1345.5847c-28.8408-35.2225-53.5012-73.6528-72.7294-114.2563
	c0.3895-1.121,0.8049-2.2352,1.1871-3.358c14.4-49.2119,22.1273-100.72,23.4819-152.5797
	c19.0491,48.3306,43.9868,94.1398,74.4318,135.4839c0.8475,1.1003,1.733,2.1781,2.5912,3.2722
	C929.2598,1258.299,919.2013,1302.6753,903.9727,1345.5847z M546.9939,1283.027c0.5475-45.5204,6.3589-90.811,17.7286-134.2749
	c1.0193-0.6082,2.0536-1.1947,3.0682-1.809c42.6636-28.4427,81.6921-62.9331,116.0645-101.7894
	c-16.4738,49.2683-26.8165,100.3895-30.0693,151.6309c-0.0582,1.3877-0.0728,2.7823-0.1184,4.172
	C622.4713,1232.4169,586.2415,1259.9454,546.9939,1283.027z M718.8694,302.2365c28.8408,35.2223,53.5012,73.6525,72.7294,114.2562
	c-0.3895,1.121-0.8049,2.2352-1.1876,3.358c-14.3995,49.212-22.1268,100.7201-23.4814,152.5798
	c-19.0496-48.3308-43.9868-94.1398-74.4318-135.484c-0.848-1.1003-1.7334-2.178-2.5912-3.2722
	C693.5823,389.522,703.6408,345.1457,718.8694,302.2365z M1075.8483,364.7941c-0.5476,45.5202-6.3594,90.811-17.729,134.275
	c-1.0184,0.6081-2.0532,1.1947-3.0682,1.8089c-42.6636,28.4427-81.6917,62.9333-116.0641,101.7896
	c16.4734-49.2682,26.816-100.3896,30.0693-151.631c0.0581-1.3878,0.0723-2.7824,0.1183-4.1721
	C1000.3713,415.4043,1036.6006,387.8756,1075.8483,364.7941z M854.8345,1018.5617c-3.4715-55.1374-14.0302-109.8625-31.349-161.8552
	c20.433,51.6217,47.9778,100.9386,81.355,145.869c17.2288,51.4409,27.6816,104.9634,29.4288,157.8681
	C901.6393,1117.5261,874.952,1069.4075,854.8345,1018.5617z M689.209,1160.675c2.5908-53.851,13.0768-107.8662,30.3491-159.7475
	c32.7828-44.4691,59.8704-93.1779,80.0241-144.1385c-17.5293,52.6786-28.1293,108.1628-31.4415,164.0359
	C748.2733,1071.3054,721.8769,1119.0249,689.209,1160.675z M768.0076,629.2593c3.4716,55.1375,14.0303,109.8625,31.3491,161.8553
	c-20.433-51.6218-47.9778-100.9388-81.3551-145.8692c-17.2288-51.4409-27.6821-104.9634-29.4288-157.868
	C721.2028,530.295,747.8906,578.4135,768.0076,629.2593z M933.6331,487.1461c-2.5908,53.851-13.0768,107.8663-30.3495,159.7477
	c-32.7824,44.4689-59.8701,93.1777-80.0237,144.1382c17.5293-52.6785,28.1293-108.1628,31.4416-164.0358
	C874.5689,576.5156,900.9648,528.7963,933.6331,487.1461z M811.4943,824.0432c-0.0048-0.001-0.0095-0.0018-0.0142-0.0028
	c0.0051-0.0067,0.0099-0.0134,0.0146-0.02c0.0034-0.0007,0.006-0.0016,0.0095-0.0023
	C811.5007,824.0263,811.4977,824.0349,811.4943,824.0432z M811.4448,824.0602c-0.0043-0.0026-0.0087-0.0048-0.0125-0.0074
	c0.0069-0.0045,0.0134-0.0092,0.0202-0.0137c0.0035,0.0003,0.0065,0.0006,0.0095,0.0009
	C811.4559,824.0467,811.4507,824.0536,811.4448,824.0602z M811.3918,824.0591c-0.003-0.0037-0.006-0.0074-0.009-0.0112
	c0.0078-0.002,0.0159-0.004,0.0241-0.0059c0.0026,0.0015,0.0056,0.0027,0.0086,0.0042
	C811.4077,824.0505,811.4,824.0549,811.3918,824.0591z M811.3427,824.0402c-0.0013-0.0045-0.003-0.009-0.0047-0.0135
	c0.0086,0.001,0.0164,0.0017,0.025,0.0027c0.0017,0.0023,0.0043,0.0044,0.006,0.0067
	C811.3604,824.0373,811.3517,824.0389,811.3427,824.0402z M811.3479,823.778c0.0047,0.001,0.009,0.0017,0.0142,0.0027
	c-0.0051,0.0067-0.0099,0.0135-0.0146,0.0201c-0.0035,0.0007-0.006,0.0016-0.0095,0.0023
	C811.3414,823.7947,811.3444,823.7863,811.3479,823.778z M811.3974,823.761c0.0043,0.0026,0.0086,0.0048,0.0125,0.0074
	c-0.0069,0.0045-0.0137,0.0092-0.0202,0.0137c-0.0035-0.0003-0.0065-0.0006-0.0095-0.001
	C811.3857,823.7744,811.3914,823.7676,811.3974,823.761z M811.4499,823.762c0.0035,0.0037,0.006,0.0074,0.0095,0.0112
	c-0.0082,0.002-0.0164,0.0041-0.0241,0.0059c-0.003-0.0014-0.006-0.0027-0.0086-0.0041
	C811.4344,823.7708,811.4421,823.7662,811.4499,823.762z M811.5244,823.8537c0.0039,0.0128,0.009,0.0256,0.0129,0.0385
	c-0.0004,0.0138-0.0004,0.0275-0.0004,0.0412c-0.0052,0.0125-0.0099,0.0254-0.0146,0.0379
	c-0.0095,0.0102-0.0181,0.0208-0.0271,0.031c-0.0121,0.0063-0.0237,0.0133-0.0358,0.0197
	c-0.0137,0.0021-0.0271,0.0043-0.0409,0.0063c-0.0133-0.0027-0.0267-0.0051-0.04-0.0078c-0.0112-0.0072-0.0232-0.014-0.0349-0.0212
	c-0.0082-0.0107-0.0172-0.0209-0.0254-0.0316c-0.0043-0.0131-0.0095-0.0259-0.0138-0.0391
	c0.0009-0.0135,0.0005-0.0272,0.0009-0.0408c0.0051-0.0127,0.0099-0.0257,0.015-0.0384c0.009-0.0101,0.0177-0.0204,0.0267-0.0306
	c0.012-0.0066,0.0237-0.0132,0.0357-0.0198c0.0138-0.0021,0.0271-0.0045,0.0409-0.0065c0.0129,0.0027,0.0262,0.0051,0.0396,0.0079
	c0.0116,0.0072,0.0237,0.014,0.0353,0.0213C811.5067,823.8326,811.5157,823.843,811.5244,823.8537z M811.4559,823.7892
	c-0.0009-0.0003-0.0017-0.0009-0.0026-0.0012c0.0051-0.0007,0.0103-0.0017,0.0159-0.0025c0.0013,0.0018,0.0031,0.0038,0.0043,0.0056
	C811.4675,823.7906,811.462,823.7899,811.4559,823.7892z M811.4297,823.7805c-0.0056,0.0014-0.0112,0.0028-0.0168,0.0042
	c-0.0009-0.0001-0.0022-0.0002-0.0031-0.0004c0.0048-0.0024,0.009-0.0051,0.0138-0.0076
	C811.4258,823.7779,811.4275,823.7792,811.4297,823.7805z M811.3849,823.7852c-0.0051,0.0034-0.0099,0.0067-0.0151,0.01
	c-0.0009,0.0002-0.0017,0.0004-0.0026,0.0007c0.0035-0.004,0.0069-0.0081,0.0103-0.0121
	C811.3802,823.7843,811.3823,823.7847,811.3849,823.7852z M811.344,823.8052c-0.0034,0.0049-0.0069,0.0097-0.0103,0.0145
	c-0.0009,0.0005-0.0017,0.001-0.0026,0.0015c0.0021-0.0048,0.0038-0.01,0.006-0.0148
	C811.3393,823.806,811.3414,823.8056,811.344,823.8052z M811.3143,823.8325c-0.0031,0.0017-0.0052,0.0035-0.0082,0.0053
	c0.0004-0.009,0.0004-0.0178,0.0009-0.0267c0.0047-0.0006,0.0095-0.0016,0.0142-0.0023
	C811.3186,823.8167,811.3165,823.8246,811.3143,823.8325z M811.3126,823.8379c-0.0017,0.0057-0.003,0.0112-0.0047,0.0169
	c-0.0009,0.0007-0.0013,0.0017-0.0017,0.0025c0-0.0053,0-0.0106,0-0.0158C811.3083,823.8403,811.3104,823.8391,811.3126,823.8379z
	 M811.2941,823.8737c-0.0017,0.0025-0.0038,0.0051-0.0056,0.0076c-0.0031-0.0084-0.006-0.0168-0.0087-0.0252
	c0.0039-0.0023,0.0082-0.0046,0.0125-0.0069C811.2928,823.8574,811.2932,823.8655,811.2941,823.8737z M811.2941,823.8792
	c0.0004,0.0059,0.0013,0.012,0.0017,0.0179c-0.0004,0.001-0.0009,0.0018-0.0009,0.0028c-0.0017-0.0051-0.0034-0.0101-0.0051-0.0152
	C811.2911,823.8829,811.2928,823.881,811.2941,823.8792z M811.2889,823.9195c-0.0009,0.003-0.0018,0.0061-0.0026,0.0092
	c-0.0051-0.007-0.0112-0.0139-0.0168-0.0209c0.0031-0.0036,0.0065-0.0074,0.0095-0.011
	C811.282,823.9043,811.2859,823.9119,811.2889,823.9195z M811.2915,823.9246c0.0021,0.0054,0.0047,0.0107,0.0069,0.0161
	c0,0.0011,0.0004,0.0021,0.0004,0.0031c-0.0035-0.0042-0.0069-0.0082-0.0099-0.0124
	C811.2898,823.9291,811.2906,823.9268,811.2915,823.9246z M811.3001,823.9641c0,0.0032,0.0004,0.0063,0.0004,0.0094
	c-0.0073-0.0048-0.0151-0.009-0.0228-0.0138c0.0017-0.0044,0.0035-0.009,0.0052-0.0134
	C811.2885,823.9523,811.2945,823.9581,811.3001,823.9641z M811.304,823.9681c0.0039,0.0044,0.0082,0.0086,0.0125,0.013
	c0,0.0009,0.0009,0.0016,0.0009,0.0025c-0.0043-0.0028-0.009-0.0055-0.0138-0.0083
	C811.304,823.9728,811.3035,823.9706,811.304,823.9681z M811.3259,824.0023c0.0009,0.0028,0.0021,0.0057,0.0034,0.0085
	c-0.0086-0.0018-0.0172-0.0034-0.0262-0.0052c0.0004-0.0048,0-0.0096,0.0004-0.0143
	C811.3109,823.995,811.3182,823.9987,811.3259,824.0023z M811.3307,824.0047c0.0051,0.0026,0.0107,0.0052,0.0159,0.0078
	c0.0004,0.0007,0.0013,0.0015,0.0017,0.0021c-0.0052-0.001-0.0103-0.0019-0.0155-0.003
	C811.3324,824.0092,811.3315,824.0071,811.3307,824.0047z M811.3681,824.0299c0.006,0.0006,0.0121,0.0013,0.0176,0.0019
	c0.0009,0.0004,0.0022,0.0008,0.0026,0.0012c-0.0052,0.0007-0.0104,0.0017-0.0155,0.0024
	C811.3712,824.0336,811.3698,824.0318,811.3681,824.0299z M811.412,824.0408c0.006-0.0014,0.0116-0.0029,0.0172-0.0043
	c0.0009,0.0001,0.0021,0.0002,0.003,0.0004c-0.0048,0.0024-0.009,0.0052-0.0138,0.0077
	C811.4163,824.0432,811.4142,824.0421,811.412,824.0408z M811.4572,824.0359c0.0052-0.0033,0.0099-0.0067,0.0151-0.01
	c0.0009-0.0002,0.0017-0.0004,0.0026-0.0006c-0.0034,0.004-0.0069,0.0081-0.0103,0.012
	C811.462,824.0368,811.4598,824.0364,811.4572,824.0359z M811.4981,824.0159c0.0034-0.0047,0.0069-0.0095,0.0103-0.0143
	c0.0009-0.0005,0.0017-0.0012,0.0026-0.0017c-0.0022,0.0048-0.0039,0.01-0.006,0.0148
	C811.5029,824.0151,811.5007,824.0154,811.4981,824.0159z M811.5278,823.9886c0.0026-0.0018,0.0051-0.0036,0.0078-0.0053
	c-0.0004,0.009,0,0.0178-0.0004,0.0267c-0.0048,0.0007-0.0095,0.0016-0.0142,0.0023
	C811.5235,824.0044,811.5256,823.9964,811.5278,823.9886z M811.5295,823.9832c0.0017-0.0057,0.003-0.0114,0.0047-0.0171
	c0.0009-0.0007,0.0013-0.0015,0.0018-0.0023c0,0.0053,0,0.0107,0,0.0159C811.5334,823.9809,811.5317,823.982,811.5295,823.9832z
	 M811.548,823.9473c0.0017-0.0026,0.0039-0.005,0.0056-0.0076c0.003,0.0084,0.006,0.0169,0.0086,0.0253
	c-0.0043,0.0023-0.0082,0.0047-0.0125,0.007C811.5493,823.9638,811.5485,823.9555,811.548,823.9473z M811.5476,823.9418
	c-0.0004-0.0058-0.0009-0.0118-0.0013-0.0176c0.0004-0.001,0.0009-0.0019,0.0009-0.003c0.0017,0.0051,0.0034,0.01,0.0052,0.0151
	C811.551,823.9381,811.5493,823.94,811.5476,823.9418z M811.5532,823.9016c0.0009-0.003,0.0017-0.0059,0.0026-0.0089
	c0.0052,0.007,0.0112,0.0137,0.0168,0.0208c-0.003,0.0035-0.0065,0.0072-0.0095,0.0107
	C811.5596,823.9167,811.5562,823.9091,811.5532,823.9016z M811.5506,823.8965c-0.0021-0.0055-0.0047-0.011-0.0068-0.0165
	c0-0.0009-0.0004-0.0018-0.0004-0.0027c0.0034,0.0042,0.0068,0.0083,0.0099,0.0125
	C811.5524,823.8922,811.5515,823.8943,811.5506,823.8965z M811.542,823.8571c-0.0004-0.0031-0.0004-0.0062-0.0009-0.0093
	c0.0078,0.0047,0.0155,0.009,0.0233,0.0137c-0.0017,0.0045-0.0034,0.0091-0.0052,0.0135
	C811.5536,823.8689,811.5476,823.8631,811.542,823.8571z M811.5381,823.8531c-0.0039-0.0043-0.0082-0.0084-0.0121-0.0127
	c-0.0004-0.0009-0.0009-0.0018-0.0013-0.0027c0.0043,0.0027,0.009,0.0055,0.0134,0.0082
	C811.5381,823.8483,811.5381,823.8507,811.5381,823.8531z M811.5166,823.819c-0.0013-0.0029-0.0026-0.0058-0.0038-0.0087
	c0.0086,0.0018,0.0172,0.0032,0.0258,0.0051c0,0.0048,0,0.0097,0,0.0145C811.5313,823.8262,811.5239,823.8226,811.5166,823.819z
	 M811.5115,823.8166c-0.0052-0.0026-0.0108-0.0051-0.0159-0.0078c-0.0009-0.0008-0.0018-0.0015-0.0022-0.0023
	c0.0052,0.0011,0.0104,0.002,0.0159,0.0031C811.5097,823.8119,811.5106,823.8142,811.5115,823.8166z M811.4792,823.7917
	c-0.0022-0.0023-0.0043-0.0044-0.0065-0.0067c0.009-0.0013,0.0176-0.0029,0.0267-0.0042c0.0013,0.0045,0.0031,0.009,0.0048,0.0135
	C811.4955,823.7935,811.4874,823.7927,811.4792,823.7917z M811.4611,823.7727c-0.0035-0.0037-0.0073-0.0072-0.0108-0.0109
	c0.022-0.012,0.0439-0.0244,0.0659-0.0364c42.435-21.339,88.7083-38.3088,136.5574-49.9003
	C904.3937,795.7814,858.3004,812.6898,811.4611,823.7727z M841.6225,806.335c47.29-29.0867,91.0753-64.777,129.5274-105.4495
	c47.6675-25.8998,98.5619-45.4879,150.3595-56.3951c-36.5995,39.5869-79.3527,74.2245-125.9332,102.8655
	C941.8787,760.3492,889.8185,780.2508,841.6225,806.335z M811.4111,823.7674c-0.0043-0.0023-0.009-0.0044-0.0133-0.0067
	c0.0164-0.0185,0.0323-0.0378,0.0491-0.0563c32.5775-34.5659,70.2561-66.3386,111.2552-93.5966
	C889.166,765.6792,851.6354,797.3329,811.4111,823.7674z M833.7911,797.064c34.4891-43.5063,63.4268-92.0191,85.6487-143.3896
	c35.9349-40.6413,77.0601-76.4547,122.0034-104.4199c-20.8523,49.7173-49.1805,96.8886-83.1561,139.7336
	C912.2725,719.5629,870.159,756.0696,833.7911,797.064z M811.363,823.7792c-0.0052-0.0006-0.0099-0.0009-0.0151-0.0016
	c0.0095-0.0234,0.0181-0.047,0.0271-0.0704c18.7905-43.6232,43.3299-86.3663,72.5336-126.0027
	C864.5607,742.6007,840.1199,785.1814,811.363,823.7792z M811.3217,823.8071c-0.0048,0.0012-0.0099,0.0024-0.0146,0.0035
	c0.0009-0.0251,0.0004-0.0502,0.0013-0.0754c2.7372-47.4191,11.1777-95.9774,25.0637-143.2117
	C833.5466,729.3295,825.1431,777.7017,811.3217,823.8071z M811.2924,823.8474c-0.0043,0.0027-0.0086,0.0057-0.0129,0.0084
	c-0.0078-0.024-0.0164-0.0475-0.0241-0.0715c-13.6462-45.4956-22.3226-94.0123-25.4291-143.1472
	C799.8637,727.4659,808.5113,775.795,811.2924,823.8474z M811.2786,823.8951c-0.0034,0.004-0.006,0.0083-0.0095,0.0123
	c-0.0155-0.0196-0.0314-0.0388-0.0469-0.0584c-28.3837-38.0847-53.131-80.7082-72.8551-125.8179
	C767.5742,737.2348,792.2303,779.6917,811.2786,823.8951z M788.8677,797.2197c-36.8565-41.5204-79.6075-78.4428-126.3391-109.2479
	c-33.7836-42.4461-61.912-89.1654-81.6482-138.2823c45.3409,29.1693,86.8763,65.2579,123.1707,106.1567
	C726.1714,706.4716,754.8108,754.2855,788.8677,797.2197z M811.2816,823.945c-0.0013,0.0048-0.0026,0.0096-0.0039,0.0145
	c-0.0211-0.0129-0.0426-0.0252-0.0637-0.0381c-39.6978-26.0804-77.531-57.6696-111.4945-93.3128
	C740.5739,757.4586,778.2638,788.9222,811.2816,823.945z M781.0995,806.5432c-48.8344-26.4109-101.6357-46.485-156.0856-59.4493
	c-46.2638-28.3314-88.6747-62.6129-124.0195-102.0174c52.5831,11.9028,103.9571,31.6093,152.0511,57.6282
	C691.1469,742.7115,734.4122,777.8465,781.0995,806.5432z M811.3018,823.9906c0,0.0049,0.0009,0.0101,0.0009,0.0151
	c-0.0241-0.0051-0.0482-0.0093-0.0723-0.0143c-46.2242-10.9299-92.5797-27.6743-136.6856-49.5517
	C722.1188,785.6972,768.2964,802.3727,811.3018,823.9906z M776.9888,817.9612c-54.923-8.1158-111.4059-8.9201-167.0059-2.4796
	c-53.1638-10.7997-104.7418-28.5084-151.4321-53.448c53.4827-6.7996,108.4987-5.8522,162.5909,2.1484
	C670.6286,788.7448,723.3021,806.9633,776.9888,817.9612z M811.3362,824.0264c0.0022,0.0046,0.0043,0.0092,0.006,0.0138
	c-0.0254,0.0038-0.0508,0.0083-0.0762,0.012c-47.1733,5.5384-96.4592,5.6581-145.3866,0.1852
	C714.4346,818.545,763.5311,818.4209,811.3362,824.0264z M777.0275,830.097c-54.3853,11.1586-107.7359,29.7208-157.7794,54.7888
	c-53.6515,8.0347-108.1754,9.0345-160.5799,1.5681c47.9317-24.6816,99.9531-42.6079,153.5197-53.5904
	C667.0903,839.0193,722.8174,838.1239,777.0275,830.097z M811.381,824.0484c0.0034,0.0037,0.0069,0.0073,0.0103,0.011
	c-0.022,0.012-0.0439,0.0247-0.0663,0.0368c-42.4346,21.3387-88.7074,38.3082-136.5565,49.8997
	C718.4484,852.04,764.5417,835.1313,811.381,824.0484z M781.2188,841.4865c-47.2896,29.0866-91.0744,64.7767-129.5261,105.449
	c-47.6679,25.8998-98.562,45.488-150.3599,56.3952c36.5995-39.5869,79.3526-74.2245,125.9328-102.8655
	C680.9626,887.472,733.0231,867.5705,781.2188,841.4865z M811.4305,824.0538c0.0047,0.0023,0.009,0.0044,0.0137,0.0067
	c-0.0168,0.019-0.0331,0.0385-0.0499,0.0574c-32.5775,34.5655-70.2557,66.338-111.2548,93.5956
	C733.6761,882.1421,771.2067,850.4883,811.4305,824.0538z M789.0497,850.7583c-34.4886,43.506-63.4259,92.0184-85.6474,143.3885
	c-35.9349,40.6413-77.0601,76.4547-122.0033,104.4199c20.8523-49.7173,49.1805-96.8885,83.156-139.7335
	C710.5692,928.2585,752.6823,891.7523,789.0497,850.7583z M811.4792,824.0418c0.0051,0.0007,0.0099,0.001,0.0151,0.0016
	c-0.0095,0.0233-0.0181,0.047-0.0272,0.0704c-18.7905,43.6231-43.3299,86.3666-72.5336,126.0029
	C758.281,905.2205,782.7219,862.6398,811.4792,824.0418z M811.5205,824.014c0.0047-0.0011,0.0099-0.0025,0.0146-0.0035
	c-0.0009,0.0251-0.0009,0.0502-0.0013,0.0754c-2.7372,47.419-11.1777,95.9774-25.0637,143.2116
	C789.2955,918.4915,797.6986,870.1194,811.5205,824.014z M811.5497,823.9738c0.0043-0.0027,0.0086-0.0058,0.0129-0.0085
	c0.0078,0.024,0.0164,0.0475,0.0241,0.0715c13.6462,45.4955,22.3226,94.0123,25.4291,143.1472
	C822.9784,920.3551,814.3308,872.0262,811.5497,823.9738z M811.5635,823.9258c0.0034-0.004,0.006-0.0082,0.009-0.0121
	c0.0159,0.0199,0.0323,0.0396,0.0482,0.0595c28.3832,38.0845,53.1302,80.7076,72.8542,125.8168
	C855.2675,910.5863,830.6118,868.1293,811.5635,823.9258z M833.9753,850.6027c36.8561,41.5199,79.6071,78.4416,126.3383,109.2466
	c33.7836,42.446,61.912,89.1654,81.6477,138.2821c-45.3409-29.1692-86.8759-65.2578-123.1707-106.1566
	C896.6707,941.3499,868.0318,893.5366,833.9753,850.6027z M811.5605,823.8762c0.0013-0.0048,0.0026-0.0097,0.0038-0.0145
	c0.022,0.0134,0.0443,0.0262,0.0663,0.0397c39.697,26.0801,77.5293,57.6686,111.4919,93.311
	C882.2678,890.3627,844.5784,858.8989,811.5605,823.8762z M841.7448,841.2793c48.834,26.4103,101.6348,46.4837,156.0835,59.4478
	c46.2638,28.3314,88.6742,62.6129,124.0194,102.0174c-52.5835-11.9026-103.9566-31.6091-152.0506-57.6281
	C931.6962,905.1102,888.4312,869.9757,841.7448,841.2793z M811.5403,823.8306c-0.0004-0.005-0.0009-0.0101-0.0013-0.0151
	c0.0241,0.0051,0.0486,0.0092,0.0728,0.0142c46.2238,10.9299,92.5792,27.6743,136.6852,49.5518
	C900.7233,862.1239,854.5452,845.4484,811.5403,823.8306z M845.8529,829.8598c54.923,8.1157,111.4058,8.9201,167.0063,2.4796
	c53.1638,10.7997,104.7418,28.5084,151.4317,53.448c-53.4823,6.7996-108.4987,5.8524-162.5905-2.1484
	C952.2136,859.0763,899.5396,840.8578,845.8529,829.8598z M811.5059,823.7947c-0.0021-0.0046-0.0043-0.0093-0.006-0.0139
	c0.025-0.0038,0.0504-0.0081,0.0757-0.0118c47.1738-5.5384,96.4597-5.6581,145.387-0.1853
	C908.4076,829.2762,859.311,829.4001,811.5059,823.7947z M845.8146,817.7241c54.3854-11.1587,107.7359-29.7208,157.779-54.7888
	c53.6518-8.0347,108.1758-9.0345,160.5803-1.5681c-47.9321,24.6816-99.9535,42.6079-153.5202,53.5904
	C955.7513,808.8016,900.0243,809.6971,845.8146,817.7241z M1205.6941,733.0558c-50.965-5.6353-103.032-4.3011-154.3389,3.3704
	c44.2881-27.1526,85.0707-59.6656,120.5002-96.8276c0.9366-1.026,1.844-2.085,2.7729-3.1201
	c44.1193-4.0474,89.5679-1.8475,134.4697,5.6987c-29.679,34.5186-63.243,65.478-99.8907,91.465
	C1208.0358,733.4529,1206.8667,733.2375,1205.6941,733.0558z M1150.8422,603.6857
	c-49.8184,12.1356-98.2894,31.1975-143.8792,55.9544c32.3313-40.6627,59.5343-85.1635,80.1171-132.2019
	c0.5287-1.2844,1.0193-2.5899,1.5385-3.8801c40.075-18.8932,83.5348-32.3705,128.3102-40.6365
	c-16.0839,42.5877-37.0352,83.1597-62.5845,120.1136C1153.1786,603.2581,1152.0061,603.4556,1150.8422,603.6857z M932.1395,434.2836
	c-0.7499,0.92-1.5212,1.8249-2.2646,2.7491c-30.3629,41.3192-55.2406,87.0781-74.2506,135.3471
	c-1.3705-51.9313-9.1365-103.5068-23.605-152.7706c-0.4205-1.3239-0.8837-2.6396-1.3159-3.9612
	c18.5551-40.2327,43.1844-78.4923,72.1703-113.6052C917.9285,345.005,927.9578,389.5521,932.1395,434.2836z M837.2006,626.1502
	c-15.5962,52.9995-24.3914,108.0357-25.8997,162.8161c-1.5449-55.4972-10.5613-111.2609-26.5582-164.8974
	c1.4037-54.2313,9.8868-108.101,26.34-158.4125C827.0663,517.146,835.6867,571.4902,837.2006,626.1502z M653.4493,447.8426
	c0.0172,1.1866,0.0082,2.3756,0.0323,3.5616c3.3006,51.1691,13.6557,102.2138,30.1201,151.4092
	c-34.4305-38.9007-73.5318-73.418-116.2814-101.856c-1.1725-0.744-2.3735-1.4539-3.5537-2.1887
	c-11.6478-42.7469-17.373-87.887-17.7385-133.4169C585.1757,388.5859,621.4929,416.2641,653.4493,447.8426z M535.6019,527.8875
	c20.6022,46.9545,47.7919,91.3792,80.0887,131.9767c-45.659-24.7787-94.2076-43.8412-144.1056-55.943
	c-1.3568-0.298-2.7277-0.5545-4.0883-0.8411c-25.5652-36.1853-46.3843-76.645-62.2999-119.3041
	c44.7336,8.4435,88.3273,22.0313,129.1568,40.7759C534.7754,525.6612,535.1736,526.7815,535.6019,527.8875z M450.9901,640.0755
	c35.4193,37.0764,76.1626,69.5228,120.3973,96.6257c-51.3804-7.668-103.5206-8.9764-154.5485-3.2822
	c-1.377,0.184-2.7531,0.4119-4.1296,0.6079c-36.3994-25.2592-69.8007-56.1583-99.347-90.8013
	c44.9238-7.3655,90.5355-9.5071,135.3138-5.8575C449.4517,638.2661,450.2093,639.1829,450.9901,640.0755z M409.8516,774.4368
	c45.9638,22.7265,95.3474,39.2808,146.1842,49.62c-50.9044,10.3675-100.3478,26.9713-146.3508,49.7746
	c-1.2307,0.6437-2.4458,1.3286-3.6721,1.9836c-42.8435-11.2865-84.799-28.8983-124.4116-51.3467
	c39.6953-22.2859,81.8238-39.8987,125.1494-51.7842C407.7867,773.2626,408.812,773.865,409.8516,774.4368z M417.148,914.7653
	c50.9651,5.6353,103.0325,4.3011,154.3398-3.3705c-44.2889,27.1526-85.0715,59.6657-120.5011,96.8277
	c-0.9366,1.0259-1.844,2.085-2.7725,3.1201c-44.1202,4.0474-89.5687,1.8474-134.4702-5.6989
	c29.6789-34.5186,63.243-65.4779,99.8907-91.4649C414.8064,914.3681,415.9759,914.5836,417.148,914.7653z M471.9999,1044.1354
	c49.8184-12.1355,98.2895-31.1974,143.8788-55.9545c-32.3309,40.6627-59.5343,85.1636-80.1167,132.202
	c-0.529,1.2843-1.0197,2.5898-1.5384,3.8801c-40.0749,18.8932-83.5348,32.3705-128.3097,40.6365
	c16.083-42.5876,37.0347-83.1597,62.584-120.1136C469.6635,1044.563,470.836,1044.3655,471.9999,1044.1354z M690.7026,1213.5376
	c0.7498-0.92,1.5212-1.825,2.2645-2.7493c30.3629-41.3192,55.2407-87.0781,74.2506-135.3473
	c1.3705,51.9314,9.1365,103.507,23.605,152.7708c0.4205,1.324,0.8837,2.6394,1.3159,3.9611
	c-18.5551,40.2328-43.1844,78.4926-72.1703,113.6055C704.9136,1302.816,694.8839,1258.269,690.7026,1213.5376z M785.6415,1021.6709
	c15.5961-52.9996,24.3909-108.0357,25.8996-162.8161c1.5449,55.4972,10.5613,111.2609,26.5582,164.8974
	c-1.4037,54.2312-9.8872,108.101-26.34,158.4125C795.7758,1130.6752,787.1554,1076.3309,785.6415,1021.6709z M969.3929,1199.9785
	c-0.0172-1.1866-0.0082-2.3756-0.0327-3.5616c-3.3002-51.1691-13.6558-102.2139-30.1201-151.4094
	c34.431,38.9008,73.5322,73.4183,116.2819,101.8562c1.1725,0.744,2.3734,1.454,3.5537,2.1886
	c11.6477,42.7468,17.3726,87.887,17.7384,133.4169C1037.6664,1259.2352,1001.3484,1231.557,969.3929,1199.9785z
	 M1087.2402,1119.9336c-20.6025-46.9546-47.7919-91.3792-80.0887-131.9767c45.6586,24.7787,94.2072,43.8412,144.1057,55.9431
	c1.3567,0.298,2.7272,0.5544,4.0883,0.8411c25.5648,36.1853,46.3843,76.645,62.2994,119.3041
	c-44.7332-8.4435-88.3264-22.0315-129.1564-40.7759C1088.0667,1122.1599,1087.6689,1121.0396,1087.2402,1119.9336z
	 M1171.8521,1007.7456c-35.4193-37.0765-76.1631-69.5228-120.3978-96.6257c51.3809,7.6681,103.5211,8.9764,154.549,3.2822
	c1.3766-0.184,2.7523-0.4119,4.1296-0.6079c36.399,25.2592,69.8003,56.1583,99.3467,90.8013
	c-44.9235,7.3655-90.5355,9.5071-135.3134,5.8575C1173.3904,1009.555,1172.6328,1008.6382,1171.8521,1007.7456z M1212.991,873.3843
	c-45.9642-22.7265-95.3478-39.2808-146.1846-49.6201c50.9039-10.3675,100.3478-26.9712,146.3507-49.7745
	c1.2302-0.6437,2.4458-1.3286,3.6716-1.9836c42.8435,11.2865,84.7994,28.8983,124.4121,51.3466
	c-39.6953,22.2861-81.8242,39.8987-125.1498,51.7842C1215.0554,874.5585,1214.03,873.9561,1212.991,873.3843z M1409.4563,478.4521
	c-17.0352,41.5714-39.0582,81.612-65.2617,118.7209c-45.4512-5.4472-91.3706-6.1398-136.4188-1.7833
	c26.6838-36.7361,49.1702-77.4298,67.1514-120.2282C1320.0554,471.3297,1365.5789,472.4865,1409.4563,478.4521z M1234.5148,428.628
	c-44.5721,10.4265-87.9589,25.4807-128.8009,44.9821c12.5104-43.6471,19.7229-89.5773,21.981-135.9445
	c41.0959-19.0357,84.27-33.5188,127.5422-42.9199C1253.4473,339.6364,1246.4474,384.7944,1234.5148,428.628z M1047.4865,174.8642
	c13.6716,42.7955,22.5388,87.6245,26.3188,132.8955c-38.3196,25.0425-73.9402,54.0279-105.6495,86.3221
	c-3.1724-45.2937-12.104-90.9208-25.8402-135.2641C974.4225,226.8744,1010.0399,198.4983,1047.4865,174.8642z M811.2631,133.2674
	c27.4841,35.5386,51.1489,74.6313,70.1843,115.8795c-27.4432,36.6381-51.0021,76.0585-69.7538,117.2503
	c-18.4724-41.4772-42.4708-81.2978-70.545-118.2688C760.3945,207.1302,784.1578,168.2836,811.2631,133.2674z M575.0587,174.9723
	c37.9817,23.9952,73.5899,52.6365,105.5845,84.8867c-13.2567,43.8146-21.9124,88.9154-25.4451,134.0365
	c-31.5444-32.6579-67.7148-61.869-106.7407-87.0085C552.5199,261.779,561.5643,217.1474,575.0587,174.9723z M367.3632,294.9487
	c43.8981,9.5576,87.1544,24.2929,128.2498,43.6553c2.5284,45.7064,9.8201,91.0479,21.9327,134.656
	c-40.8118-19.8996-84.7917-34.9782-130.062-45.254C375.8734,384.2287,369.1073,339.1956,367.3632,294.9487z M213.2275,478.7258
	c44.5196-6.0327,90.2071-6.9808,135.4468-2.8416c18.0079,42.0853,40.3676,82.1984,66.665,119.0338
	c-45.1567-4.7411-91.6417-3.8682-137.6963,1.9592C251.7601,559.7109,230,519.7076,213.2275,478.7258z M131.2431,704.1373
	c39.771-20.8954,82.3791-37.4124,126.306-48.9957c31.3163,33.3881,66.0468,63.4346,103.3566,89.0544
	c-44.0548,10.9893-87.4376,27.7083-128.7221,48.936C195.1502,767.0595,161.0206,736.9111,131.2431,704.1373z M131.2978,943.9951
	c30.226-33.2379,64.6156-63.3315,101.9318-89.2402c40.8467,20.6638,83.7591,37.0198,127.5814,48.3337
	c-37.6395,25.3942-72.6877,55.9427-104.2218,90.0104C212.8719,981.265,170.489,964.6079,131.2978,943.9951z M213.3854,1169.3689
	c17.0356-41.5713,39.0582-81.6119,65.2626-118.7209c45.4507,5.4474,91.3697,6.1399,136.4188,1.7833
	c-26.6843,36.7361-49.171,77.4298-67.1518,120.2281C302.7867,1176.4913,257.2633,1175.3346,213.3854,1169.3689z M388.3269,1219.1931
	c44.5726-10.4264,87.9593-25.4807,128.8012-44.9822c-12.5103,43.6472-19.7224,89.5773-21.9809,135.9446
	c-41.0959,19.0354-84.2704,33.5187-127.5422,42.9199C369.3949,1308.1847,376.3947,1263.0265,388.3269,1219.1931z
	 M575.3557,1472.9569c-13.6716-42.7955-22.5388-87.6245-26.3184-132.8956c38.3191-25.0425,73.9398-54.0278,105.6491-86.3219
	c3.1724,45.2936,12.1036,90.9207,25.8402,135.2639C648.4196,1420.9467,612.8023,1449.3226,575.3557,1472.9569z M811.579,1514.5538
	c-27.4841-35.5387-51.1489-74.6313-70.1843-115.8794c27.4432-36.6383,51.0021-76.0587,69.7538-117.2504
	c18.4724,41.4768,42.4707,81.2977,70.5449,118.2688C862.4477,1440.691,838.6843,1479.5375,811.579,1514.5538z M1047.7834,1472.8489
	c-37.9812-23.9954-73.5899-52.6365-105.5845-84.8868c13.2567-43.8146,21.9124-88.9153,25.4451-134.0363
	c31.5444,32.6577,67.7144,61.8689,106.7408,87.0084C1070.3223,1386.0422,1061.2778,1430.6738,1047.7834,1472.8489z
	 M1255.479,1352.8724c-43.8982-9.5577-87.1549-24.293-128.2499-43.6553c-2.5284-45.7064-9.8201-91.048-21.9327-134.656
	c40.8119,19.8995,84.7917,34.9781,130.062,45.2539C1246.9683,1263.5924,1253.7347,1308.6255,1255.479,1352.8724z
	 M1409.6146,1169.0953c-44.5197,6.0327-90.2075,6.9807-135.4468,2.8416c-18.0079-42.0853-40.3677-82.1985-66.665-119.0338
	c45.1567,4.7411,91.6417,3.8683,137.6964-1.9592C1371.0815,1088.1101,1392.842,1128.1134,1409.6146,1169.0953z M1365.293,992.6795
	c-31.3163-33.3881-66.0468-63.4346-103.3566-89.0543c44.0548-10.9893,87.4373-27.7083,128.7217-48.9361
	c37.0333,26.0724,71.1639,56.2209,100.9409,88.9948C1451.828,964.5793,1409.2195,981.0963,1365.293,992.6795z"/>
</svg>
