<?xml version="1.0" encoding="UTF-8"?>
<svg viewBox="0 0 500 250" xmlns="http://www.w3.org/2000/svg" xmlns:xlink="http://www.w3.org/1999/xlink">
 <defs>
  <filter id="a">
   <feGaussianBlur stdDeviation="2.21931"/>
  </filter>
  <filter id="c">
   <feGaussianBlur stdDeviation="2.29193"/>
  </filter>
  <linearGradient id="f">
   <stop stop-color="#216778" offset="0"/>
   <stop stop-color="#0fe7ff" offset="1"/>
  </linearGradient>
  <linearGradient id="d">
   <stop offset="0"/>
   <stop stop-opacity="0" offset="1"/>
  </linearGradient>
  <linearGradient id="e">
   <stop stop-color="#fff" offset="0"/>
   <stop stop-color="#73a8c0" offset="1"/>
  </linearGradient>
  <linearGradient id="x" x1="1252.9" x2="1291.3" gradientUnits="userSpaceOnUse">
   <stop stop-color="#006680" offset="0"/>
   <stop stop-color="#0fe7ff" offset="1"/>
  </linearGradient>
  <linearGradient id="r" x1="156.53" x2="251.74" gradientUnits="userSpaceOnUse">
   <stop stop-color="#1a4a4a" offset="0"/>
   <stop stop-color="#2c7b7b" offset=".82733"/>
   <stop stop-color="#2c7b7b" stop-opacity="0" offset="1"/>
  </linearGradient>
  <linearGradient id="q" x1="1083.2" x2="1002.3" y1="890.46" y2="771.52" gradientTransform="matrix(.64764 -.0088236 .0088236 .64764 -362.98 -324.23)" gradientUnits="userSpaceOnUse">
   <stop stop-color="#65c2a8" offset="0"/>
   <stop stop-color="#3aedbb" offset=".47612"/>
   <stop stop-color="#65c2a8" stop-opacity="0" offset="1"/>
  </linearGradient>
  <linearGradient id="p" x1="290.94" x2="345.11" y1="178.85" y2="212.11" gradientUnits="userSpaceOnUse">
   <stop stop-color="#fff" stop-opacity=".23464" offset="0"/>
   <stop stop-color="#b7d0de" offset=".5"/>
   <stop stop-color="#6fa2bd" offset="1"/>
  </linearGradient>
  <linearGradient id="o" x1="226.62" x2="238.09" y1="190.13" y2="162.56" gradientUnits="userSpaceOnUse">
   <stop stop-color="#63b995" offset="0"/>
   <stop stop-color="#fff" offset="1"/>
  </linearGradient>
  <linearGradient id="n" x1="203.84" x2="213.14" y1="198.99" y2="164.63" gradientUnits="userSpaceOnUse">
   <stop stop-color="#3b8a67" offset="0"/>
   <stop stop-color="#fff" offset="1"/>
  </linearGradient>
  <linearGradient id="m" x1="271.47" x2="231.11" y1="172.98" y2="22.766" gradientUnits="userSpaceOnUse">
   <stop stop-color="#000904" offset="0"/>
   <stop stop-color="#48847d" offset=".5235"/>
   <stop stop-color="#3e8f90" offset=".84857"/>
   <stop stop-color="#c1f8ff" offset="1"/>
  </linearGradient>
  <linearGradient id="l" x1="440.38" x2="402.29" y1="169.42" y2="79.467" gradientUnits="userSpaceOnUse">
   <stop stop-color="#65c2a8" offset="0"/>
   <stop stop-color="#3aedbb" offset=".57811"/>
   <stop stop-color="#65c2a8" stop-opacity="0" offset="1"/>
  </linearGradient>
  <linearGradient id="j" x1="307.15" x2="342.66" y1="16.845" y2="91.644" gradientUnits="userSpaceOnUse">
   <stop stop-color="#65c2a8" offset="0"/>
   <stop stop-color="#3aedbb" offset=".23981"/>
   <stop stop-color="#65c2a8" stop-opacity="0" offset="1"/>
  </linearGradient>
  <linearGradient id="w" x1="1011.3" x2="1044.3" y1="586.17" y2="563.54" gradientUnits="userSpaceOnUse" xlink:href="#f"/>
  <linearGradient id="v" x1="1029.5" x2="1089.5" y1="793.5" y2="897.5" gradientUnits="userSpaceOnUse" xlink:href="#f"/>
  <linearGradient id="u" x2="0" y1="122.63" y2="131.47" gradientUnits="userSpaceOnUse" xlink:href="#d"/>
  <linearGradient id="t" x1="141.09" x2="152.99" y1="118.24" y2="128.14" gradientUnits="userSpaceOnUse" xlink:href="#d"/>
  <linearGradient id="s" x2="0" y1="68.307" y2="90.307" gradientUnits="userSpaceOnUse" xlink:href="#d"/>
  <linearGradient id="k" x1="426.88" x2="437.64" y1="90.453" y2="112.45" gradientUnits="userSpaceOnUse" xlink:href="#e"/>
  <linearGradient id="i" x1="281.76" x2="343.53" y1="37.025" y2="40.025" gradientUnits="userSpaceOnUse" xlink:href="#e"/>
  <radialGradient id="b" cx="421.92" cy="625.36" r="45.842" gradientUnits="userSpaceOnUse">
   <stop stop-color="#bfe2e8" offset="0"/>
   <stop stop-color="#bfe2e8" stop-opacity="0" offset="1"/>
  </radialGradient>
  <radialGradient id="h" cx="172.57" cy="141.48" r="37.749" gradientTransform="matrix(.89404 5.875e-7 -3.7632e-7 .57267 18.286 60.458)" gradientUnits="userSpaceOnUse">
   <stop stop-color="#3e8e8e" offset="0"/>
   <stop stop-color="#3e8e8e" stop-opacity="0" offset="1"/>
  </radialGradient>
  <radialGradient id="g" cx="343.75" cy="137.5" r="57.25" gradientTransform="matrix(1 0 0 .13974 0 118.29)" gradientUnits="userSpaceOnUse">
   <stop stop-color="#3d8c8c" offset="0"/>
   <stop stop-color="#3d8c8c" stop-opacity="0" offset="1"/>
  </radialGradient>
 </defs>
 <path d="m363.21 7.4608c-23.555 0.38755-45.736 10.23-65.467 22.372-14.302 7.5322-29.097 14.785-45.174 17.487-4.4769 6.7214-1.5643 15.195-2.2032 22.719 0.5843 6.34 5.4202 11.749 11.25 14.047 8.4289 8.6395 16.746 19.635 29.5 21.781 11.596 2.2765 24.891-0.61858 32.641-9.9531 4.9282-5.442 9.52-11.562 16.132-15.131 0.71575-0.71452 3.2003-1.9747 1.2432-2.4467-5.5104-3.9856-5.2898-12.731-11.766-15.906-4.7582-2.675-8.2691-9.5364-4.75-14.359-2.0838-3.6954 1.841-7.6527 5.2344-8.6875 2.6129-0.55667 0.4247-0.82272-1.0156-1.3125-1.9388-0.70043-5.0242-1.891-3.5-4.3438 2.1374-4.8179 8.078-5.2106 12.672-5.0625 4.559-1.3268 7.6038-5.3702 11.315-8.1139 3.8824-3.3874 6.762-7.8596 10.857-10.98 1.2123-0.76439 3.63-1.4948 4.1094-2.125l-1.0781 0.01563z" fill="url(#j)" fill-rule="evenodd" stroke="url(#i)" stroke-width="1.5"/>
 <path transform="matrix(.5 0 0 .5 -216.12 -224.19)" d="m973.69 563.19c10.03-3.351 19.522-8.177 28.932-12.921 9.3942-6.0954 18.085-13.214 27.185-19.713 1.8452-1.5634 34.636-19.689 36.402-21.342m-84.74 58.219c11.423-2.4515 22.752-6.3377 32.156-13.457 4.9829-3.997 46.212-25.766 50.634-30.17m-65.82 50.698c16.77-6.512 31.854-16.561 48.17-24.022 1.944-1.2876 14.691-10.937 15.863-12.969m-54.134 43.355c11.875-5.3996 23.275-12.156 32.834-21.106l0.3997-0.81469m-21.213 31.113c12.319-3.7317 22.571-11.902 33.282-18.69 2.4485-1.869 6.9538-12.766 8.5229-15.559m-96.252-6.0564c12.756-5.8198 24.6-13.372 36.7-20.368 2.7498-1.4709 69.999-33.513 72.347-35.588m-44.701 102.62c10.126-5.2194 17.717-14.018 27.114-20.302 0.8881-0.74489 1.7545-1.5163 2.5842-2.3259m18.728 4.1924c-9.5905 6.7804-24.372 14.518-32.137 21.456-1.9233 2.9176-4.1774 5.5948-6.39 8.2928m11.314 5.6568c6.3974-6.1399 12.851-12.311 20.285-17.186 1.6958-1.4791 9.5537-10.546 11.878-10.82m-20.142 31.542c5.7171-4.9278 11.597-9.669 17.678-14.142m-6.3641 22.627c8.5881-7.9195 17.019-16.272 23.335-26.163" fill="none" stroke="url(#w)" stroke-width="4"/>
 <path d="m425.9 169.1c5.6092 8.4204 10.676 17.294 15.513 26.137 0.95285 2.2898 1.8007 6.7381 1.8258 1.805 0.88305-10.788 3.8054-21.501 3.7138-32.304-1.2374-6.6475-6.9036-11.345-12.905-13.673-6.1144-3.9296-7.8961-14.567-1.0374-18.693 4.6027-3.4237 10.648-3.4702 16.162-3.4233-5.8691-2.462-12.42-7.3964-11.577-14.565 0.84815-7.2866 8.5942-11.026 15.312-10.643 3.1108 0.1142 6.5527-1.0528 7.4912-4.2879 7.1068-12.131 16.638-22.625 27.136-31.813-15.233 3.1834-30.211 8.784-43.009 17.739-18.106 17.058-55.089 32.316-56.745 49.271-1.0304 10.547 23.87 21.749 38.12 34.45z" fill="url(#l)" stroke="url(#k)" stroke-width="1.5"/>
 <path transform="matrix(.5 0 0 .5 -216.12 -224.19)" d="m1230.4 696.83c8.3632-1.9281 13.262-9.9084 20.351-14.178 8.8022-7.3312 17.057-15.512 27.465-20.598 6.9259-3.9346 12.473-9.7694 19.578-13.463 7.9357-4.2108 13.596-11.614 22.015-15.022 7.8283-3.7651 15.558-8.1062 21.973-13.976l1.0482-1.2516m-108.89 85.56c8.7241-6.898 19.308-10.896 28.213-17.373 7.2404-5.0194 14.976-9.3226 22.29-14.082 3.3014-1.3192 6.8607-1.7228 10.309-2.4866m-61.518 68.589c8.1302 3.4973 14.716 9.6357 22.249 14.115 6.0917 6.9115 14.455 10.92 20.686 17.646 6.1845 6.9361 11.78 14.397 19.868 19.287 4.3558 5.06 10.388 11.387 10.737 18.249m2.8285 2e-5 0.3047 0.07904 0.4024-0.07904m-74.246-79.196c12.408 11.806 28.429 18.543 42.216 28.473 6.4814 6.1476 15.905 8.2877 22.033 14.684 2.3872 4.1132 4.2403 8.504 6.4616 12.704m-67.175-60.811c10.25 4.7474 21.209 7.6639 31.406 12.483 2.1727 0.72677 4.4809 1.1697 6.778 0.95194m-36.77-28.284c14.214-2.6818 27.185-9.9934 41.525-11.983 6.7092-0.7529 13.306 1.075 19.993 0.66921m-61.518 19.799c9.2694-0.31673 18.434 0.92588 27.417 3.0722 2.6296 0.48805 5.2666 0.97915 7.9382 1.1704" fill="none" stroke="url(#x)" stroke-width="3"/>
 <path d="m230.71 48.604c-76.216 0.58715-96.366 56.482-97.828 106.95-2.5018 87.633 125.89 74.834 172.62 51.297 33.033-16.637 72.3-44.129 86.433-51.841 17.972-10.541 19.373-31.959-0.9375-34.004-16.608-0.29843-27.914-9.0322-49.23-20.483-31.082-16.697-65.341-48.795-95.063-51.297-5.5905-0.47058-10.919-0.66414-16-0.625z"/>
 <path transform="matrix(.63552 .0088251 -.05202 .44926 -315.99 -207.87)" d="m978.2 635.67a80.058 148.86 0 1 1 -160.12 0 80.058 148.86 0 1 1 160.12 0z"/>
 <path transform="matrix(.31514 -.14269 .078319 .23337 -173.02 79.424)" d="m978.2 635.67a80.058 148.86 0 1 1 -160.12 0 80.058 148.86 0 1 1 160.12 0z"/>
 <path d="m228.16 22.776c-16.272 0.65274-30.054 11.896-38.594 25.078-4.1074 6.1927-6.8702 13.127-9.7812 19.938-3.5452 1.2914-7.1101 5.4766-11.156 3.1094-6.425-6.4614-18.816-7.5099-24.703 0.28125-9.1693 11.132-8.5706 27.686-2.2812 39.984 2.3284 3.2265 3.3155 7.4985 1.4967 11.194-4.0596 18.675-6.8156 38.784-0.74672 57.337 5.8425 15.362 19.713 26.777 35.25 31.641 26.299 9.3728 55.085 7.6663 82.266 3.5 22.667-3.8526 44.29-12.617 63.8-24.655 23.355-13.253 45.239-29.318 68.919-42.063 16.32-11.496 18.743-23.367-2.8594-21.188-17.359-0.36136-31.826-11.081-46.702-18.713-21.511-11.696-41.029-26.629-61.908-39.381-4.8972-2.8585-9.9922-5.6209-15.141-8.0156-2.5299-15.586-11.988-31.54-27.625-36.641-3.3046-1.0423-6.7452-1.4902-10.234-1.4062z" fill="url(#m)"/>
 <path d="m210.24 132.89c1.5649 19.166-20.061 28.794-40.847 36.015s-32.898 9.3145-34.463-9.8519 14.034-40.582 34.82-47.803 38.925 2.4737 40.49 21.64z" fill="url(#h)"/>
 <g fill="#3e6763" fill-rule="evenodd">
  <path d="m293.47 91.219c-6.5106-1.148-3.456 5.195-3.6875 9.25-0.26843 6.118 1.3774 14.017-3.6875 18.531 2.3515 2.4967 5.0402 6.4121 7.125 1.875 4.8848-9.0607 2.9699-20.075 2.2812-29.938l-2.0312 0.28125z"/>
  <path d="m300.53 93c-6.5355-1.1575-3.4572 5.2419-3.6562 9.3125-0.26898 6.098 1.2904 13.956-3.7188 18.469 2.3576 2.9858 5.4407 5.899 7.4062 1.4062 4.4603-9.039 2.7723-19.757 2-29.469l-2.0312 0.28125z"/>
  <path d="m287.28 88.531c-6.5985-1.1642-3.4167 5.2938-3.6875 9.3438-0.26595 6.0858 1.3479 13.963-3.6562 18.469 2.314 3.1846 5.3008 6.0407 7.3125 1.5 4.4886-9.0632 2.8107-19.813 2.0625-29.562l-2.0312 0.25z"/>
 </g>
 <path transform="matrix(.65425 .37773 -.5 .86603 144.6 -157.92)" d="m401 137.5a57.25 8 0 1 1 -114.5 0 57.25 8 0 1 1 114.5 0z" fill="url(#g)"/>
 <path d="m195.79 184.34c6.3929-6.9706 8.9081-16.279 11.967-24.969 5.4197-10.549 3.9428 22.537 3.9544 24.084" fill="url(#n)" fill-rule="evenodd" stroke="#000" stroke-width="2.5"/>
 <path transform="matrix(.26169 -.11849 .065035 .19379 -117.4 81.359)" d="m978.2 635.67a80.058 148.86 0 1 1 -160.12 0 80.058 148.86 0 1 1 160.12 0z" fill="#fff"/>
 <path transform="matrix(.52773 .0073282 -.043197 .37306 -227.05 -154.54)" d="m978.2 635.67a80.058 148.86 0 1 1 -160.12 0 80.058 148.86 0 1 1 160.12 0z" fill="#fff"/>
 <path d="m216.41 187.11c8.5926-9.546 12.214-27.807 14.437-40.255 8.7024 1.5997 5.866 33.655 4.1378 42.024" fill="url(#o)" fill-rule="evenodd" stroke="#000" stroke-width="2.5"/>
 <path d="m283.6 168.38c12.19 17.027 9.3734 41.131 24.225 56.683 7.7536 9.2906 18.268 19.012 31.319 17.513 42.761-7.9599 33.578-11.139 1.606-20.299-3.3468-4.0803-1.8963-10.208 1.3498-13.844 1.6299-2.5113 3.4958-5.8459 1.6818-8.788-2.9168-0.59831-7.574 1.5413-9.2146-1.7975-2.0857-6.6635 3.547-13.821 0.2305-20.226-9.6934-7.96-21.544-12.023-33.35-15.639-4.006-1.4398-7.936-3.1695-11.592-5.429l-0.63165 1.1827" fill="url(#q)" fill-rule="evenodd" stroke="url(#p)" stroke-width="1.9431"/>
 <path d="m210.86 182.01c-1.9114 0.01485-3.8217 0.08741-5.7188 0.21875h-0.125l-0.125 0.01562c-19.019 3.2035-39.124 7.5309-55.859 18.609 1.2094 1.2215 2.4777 2.3871 3.7969 3.5 15.488-9.8742 34.353-14.037 52.75-17.141 14.214-0.96882 29.01 1.5141 41.672 7.7969 0.34985 0.33157 0.697 0.65278 1.0469 0.98437l3.4375-3.625-1.3281-1.2656-0.26563-0.25-0.32812-0.17188c-11.972-6.015-25.573-8.7759-38.953-8.6719z" fill="url(#r)" fill-rule="evenodd"/>
 <path transform="matrix(.1465 -.20153 .20153 .1465 -164.7 112.86)" d="m465.26 625.36a43.342 43.342 0 1 1 -86.683 0 43.342 43.342 0 1 1 86.683 0z" fill="url(#b)" filter="url(#c)" stroke="#78c9cb" stroke-width="5"/>
 <path transform="matrix(.09268 -.1275 .08226 .05979 -70.888 132.77)" d="m465.26 625.36a43.342 43.342 0 1 1 -86.683 0 43.342 43.342 0 1 1 86.683 0z" fill="#fff" fill-opacity=".78431" filter="url(#a)"/>
 <path transform="matrix(.09268 -.1275 .08226 .05979 -70.888 132.77)" d="m465.26 625.36a43.342 43.342 0 1 1 -86.683 0 43.342 43.342 0 1 1 86.683 0z" fill="#cdf6f9" fill-opacity=".47059" filter="url(#a)"/>
 <path transform="matrix(.07842 -.10788 .10788 .07842 7.5052 182.26)" d="m465.26 625.36a43.342 43.342 0 1 1 -86.683 0 43.342 43.342 0 1 1 86.683 0z" fill="url(#b)" filter="url(#c)" stroke="#78c9cb" stroke-width="5"/>
 <path transform="matrix(.04961 -.06825 .04403 .03201 57.72 192.91)" d="m465.26 625.36a43.342 43.342 0 1 1 -86.683 0 43.342 43.342 0 1 1 86.683 0z" fill="#fff" fill-opacity=".78431" filter="url(#a)"/>
 <path transform="matrix(.04961 -.06825 .04403 .03201 57.72 192.91)" d="m465.26 625.36a43.342 43.342 0 1 1 -86.683 0 43.342 43.342 0 1 1 86.683 0z" fill="#cdf6f9" fill-opacity=".47059" filter="url(#a)"/>
 <path transform="matrix(.09544 -.13129 .13129 .09544 -5.0291 152.75)" d="m465.26 625.36a43.342 43.342 0 1 1 -86.683 0 43.342 43.342 0 1 1 86.683 0z" fill="url(#b)" filter="url(#c)" stroke="#78c9cb" stroke-width="5"/>
 <path transform="matrix(.06038 -.08306 .05359 .03895 56.084 165.71)" d="m465.26 625.36a43.342 43.342 0 1 1 -86.683 0 43.342 43.342 0 1 1 86.683 0z" fill="#fff" fill-opacity=".78431" filter="url(#a)"/>
 <path transform="matrix(.06038 -.08306 .05359 .03895 56.084 165.71)" d="m465.26 625.36a43.342 43.342 0 1 1 -86.683 0 43.342 43.342 0 1 1 86.683 0z" fill="#cdf6f9" fill-opacity=".47059" filter="url(#a)"/>
 <path transform="matrix(.11246 -.1547 .1547 .11246 -58.251 156.84)" d="m465.26 625.36a43.342 43.342 0 1 1 -86.683 0 43.342 43.342 0 1 1 86.683 0z" fill="url(#b)" filter="url(#c)" stroke="#78c9cb" stroke-width="5"/>
 <path transform="matrix(.07115 -.09787 .06314 .0459 13.76 172.13)" d="m465.26 625.36a43.342 43.342 0 1 1 -86.683 0 43.342 43.342 0 1 1 86.683 0z" fill="#fff" fill-opacity=".78431" filter="url(#a)"/>
 <path transform="matrix(.07115 -.09787 .06314 .0459 13.76 172.13)" d="m465.26 625.36a43.342 43.342 0 1 1 -86.683 0 43.342 43.342 0 1 1 86.683 0z" fill="#cdf6f9" fill-opacity=".47059" filter="url(#a)"/>
 <path transform="matrix(.11246 -.1547 .1547 .11246 -61.789 78.123)" d="m465.26 625.36a43.342 43.342 0 1 1 -86.683 0 43.342 43.342 0 1 1 86.683 0z" fill="url(#b)" filter="url(#c)" stroke="#78c9cb" stroke-width="5"/>
 <path transform="matrix(.07115 -.09787 .06314 .0459 10.222 93.405)" d="m465.26 625.36a43.342 43.342 0 1 1 -86.683 0 43.342 43.342 0 1 1 86.683 0z" fill="#fff" fill-opacity=".78431" filter="url(#a)"/>
 <path transform="matrix(.07115 -.09787 .06314 .0459 10.222 93.405)" d="m465.26 625.36a43.342 43.342 0 1 1 -86.683 0 43.342 43.342 0 1 1 86.683 0z" fill="#cdf6f9" fill-opacity=".47059" filter="url(#a)"/>
 <path transform="matrix(.15784 -.21713 .21713 .15784 -141.21 11.512)" d="m465.26 625.36a43.342 43.342 0 1 1 -86.683 0 43.342 43.342 0 1 1 86.683 0z" fill="url(#b)" filter="url(#c)" stroke="#78c9cb" stroke-width="5"/>
 <path transform="matrix(.09986 -.13737 .08863 .06443 -40.136 32.962)" d="m465.26 625.36a43.342 43.342 0 1 1 -86.683 0 43.342 43.342 0 1 1 86.683 0z" fill="#fff" fill-opacity=".78431" filter="url(#a)"/>
 <path transform="matrix(.09986 -.13737 .08863 .06443 -40.136 32.962)" d="m465.26 625.36a43.342 43.342 0 1 1 -86.683 0 43.342 43.342 0 1 1 86.683 0z" fill="#cdf6f9" fill-opacity=".47059" filter="url(#a)"/>
 <path transform="matrix(.06707 -.09227 .09227 .06707 -41.633 102.28)" d="m465.26 625.36a43.342 43.342 0 1 1 -86.683 0 43.342 43.342 0 1 1 86.683 0z" fill="url(#b)" filter="url(#c)" stroke="#78c9cb" stroke-width="5"/>
 <path transform="matrix(.04243 -.05837 .03766 .02738 1.3173 111.39)" d="m465.26 625.36a43.342 43.342 0 1 1 -86.683 0 43.342 43.342 0 1 1 86.683 0z" fill="#fff" fill-opacity=".78431" filter="url(#a)"/>
 <path transform="matrix(.04243 -.05837 .03766 .02738 1.3173 111.39)" d="m465.26 625.36a43.342 43.342 0 1 1 -86.683 0 43.342 43.342 0 1 1 86.683 0z" fill="#cdf6f9" fill-opacity=".47059" filter="url(#a)"/>
 <path d="m292.48 93.35s2.6536 21.228-2.6536 26.536" fill="none" stroke="#000" stroke-width="2.5"/>
 <path d="m299.55 95.119s2.6536 21.228-2.6536 26.536" fill="none" stroke="#000" stroke-width="2.5"/>
 <path d="m286.28 90.697s2.6536 21.228-2.6536 26.536" fill="none" stroke="#000" stroke-width="2.5"/>
 <path transform="matrix(.5 0 0 .5 -214.23 -218.51)" d="m903.85 639.42a46.424 46.424 0 1 1 -92.849 0 46.424 46.424 0 1 1 92.849 0z" fill="#d9feff" opacity=".67557" stroke="#acfdff" stroke-width="5"/>
 <path transform="matrix(.53373 0 0 .53373 -194.17 -213.75)" d="m793.95 589.2a26.528 26.528 0 1 1 -53.056 0 26.528 26.528 0 1 1 53.056 0z"/>
 <path transform="matrix(.41337 0 0 .41337 -101.98 -142.78)" d="m793.95 589.2a26.528 26.528 0 1 1 -53.056 0 26.528 26.528 0 1 1 53.056 0z" fill="#f9f9f9"/>
 <path transform="matrix(.28927 0 0 .28927 -35.517 -86.223)" d="m881.12 646.05a14.212 14.212 0 1 1 -28.423 0 14.212 14.212 0 1 1 28.423 0z"/>
 <path transform="matrix(.29404 0 0 .29404 -88.017 -84.518)" d="m903.85 639.42a46.424 46.424 0 1 1 -92.849 0 46.424 46.424 0 1 1 92.849 0z" fill="#e5feff" opacity=".67557" stroke="#c7feff" stroke-width="5"/>
 <path transform="matrix(.33605 0 0 .33605 -93.231 -94.782)" d="m793.95 589.2a26.528 26.528 0 1 1 -53.056 0 26.528 26.528 0 1 1 53.056 0z"/>
 <path transform="matrix(.2431 0 0 .2431 -22.006 -39.986)" d="m793.95 589.2a26.528 26.528 0 1 1 -53.056 0 26.528 26.528 0 1 1 53.056 0z" fill="#fff"/>
 <path d="m224.88 33.651c-21.697 0.38263-41.87 22.208-46.938 50.141-6.2646-12.771-18.311-19.193-28.641-14.516-11.565 5.2364-16.609 22.404-11.266 38.328s19.06 24.596 30.625 19.359c4.7505-2.151 8.4047-6.3127 10.688-11.578 5.199 17.274 17.747 29.122 33.703 29.344 23.321 0.32384 45.122-24.299 48.672-54.953s-12.491-55.801-35.812-56.125c-0.3451-0.00479-0.68686-0.00608-1.0312 0zm1.1719 2.9688c0.91571 0.00762 1.8253 0.07289 2.7344 0.17188 13.442 1.5778 23.743 13.047 27.422 25.594 7.9461 24.704-0.29081 54.04-20.109 70.734-9.5524 7.8422-23.444 11.542-34.922 5.8281-12.367-6.1234-18.733-19.657-21.156-32.625-1.6351 3.6317-2.9584 7.4201-4.9844 10.859-3.4228 6.8168-12.193 10.13-19.234 7.2188-15.132-7.2531-20.545-27.581-14.422-42.547 2.9494-7.0747 10.781-13.072 18.781-10.562 10.392 2.8911 15.779 13.553 19.125 23 1.4297-12.414 4.6192-24.839 11.484-35.359 7.4739-11.734 19.743-21.91 34.359-22.297 0.30485-0.0096 0.61664-0.01817 0.92187-0.01563z" fill="#a5d1dc"/>
 <path d="m267.38 55.307s4 18.5 4.5 36" fill="#2c7b7b" fill-rule="evenodd" stroke="url(#s)" stroke-width="5"/>
 <path d="m140.61 117.86s12.021 16.263 24.749 13.081" fill="none" stroke="url(#t)" stroke-width="4"/>
 <path d="m168.54 128.82c5.6568-2.8284 10.607-11.314 10.607-11.314s3.182 13.435 8.8388 15.91" fill="none" stroke="url(#u)" stroke-width="3"/>
 <path transform="matrix(.5 0 0 .5 -216.12 -224.19)" d="m1008 777c7.1363 10.245 13.266 21.344 22.167 30.213 9.3586 14.41 12.239 31.707 18.926 47.308 3.7054 14.018 12.385 25.896 20.518 37.624 5.7768 7.2968 12.936 14.694 22.266 16.915 5.0868 0.5458 10.037-1.5714 15.123-1.0601m-86-129c11.213 4.5534 17.183 16.186 20.859 27.039 2.3523 6.5915 6.3614 12.366 9.6237 18.472 7.9273 17.744 11.344 37.371 21.567 54.106 3.719 7.3398 9.652 14.322 17.95 16.382m-63-119c6.498 4.9426 16.31 4.6784 21.135 11.936 14.21 13.016 18.755 32.497 28.142 48.68 4.7884 10.762 9.6202 21.595 13.239 32.797 0.243 1.1827 0.4117 2.3817 0.4835 3.5873m-79-77c3.6664 7.5871 11.864 12.433 13.736 20.978 8.8908 13.878 11.792 30.355 15.447 46.13 3.3387 10.848 11.594 18.935 18.512 27.536 7.6549 10.408 16.202 22.121 29.718 24.78 5.1615 1.3411 10.45 2.1389 15.588 3.5767" fill="none" stroke="url(#v)" stroke-width="3"/>
 <path transform="matrix(.14854 0 0 .14854 35.73 7.036)" d="m881.12 646.05a14.212 14.212 0 1 1 -28.423 0 14.212 14.212 0 1 1 28.423 0z"/>
</svg>
