<?xml version="1.0" encoding="UTF-8"?>
<svg viewBox="0 0 365 285" xmlns="http://www.w3.org/2000/svg" xmlns:xlink="http://www.w3.org/1999/xlink">
 <defs>
  <linearGradient id="a">
   <stop stop-color="#fff" stop-opacity=".63265" offset="0"/>
   <stop stop-color="#fff" stop-opacity="0" offset="1"/>
  </linearGradient>
  <linearGradient id="h" x1="411.15" x2="169.53" y1="186.96" y2="60.811" gradientUnits="userSpaceOnUse" xlink:href="#a"/>
  <radialGradient id="g" cx="393.96" cy="425.17" r="163.08" gradientTransform="matrix(.45363 .05094 -.029625 .26381 27.747 60.751)" gradientUnits="userSpaceOnUse">
   <stop stop-color="#fff" stop-opacity=".54113" offset="0"/>
   <stop stop-color="#fff" stop-opacity="0" offset="1"/>
  </radialGradient>
  <radialGradient id="c" cx="181.07" cy="278.11" r="80.026" gradientTransform="matrix(.33361 .3044 -.48717 .53393 161.3 -83.638)" gradientUnits="userSpaceOnUse">
   <stop stop-color="#fff" stop-opacity=".82684" offset="0"/>
   <stop stop-color="#fff" stop-opacity="0" offset="1"/>
  </radialGradient>
  <radialGradient id="b" cx="262.37" cy="369.11" r="284.37" gradientTransform="matrix(.67346 .15314 -.1282 .56379 -17.184 -96.516)" gradientUnits="userSpaceOnUse">
   <stop stop-color="#00abff" offset="0"/>
   <stop stop-color="#0d0548" offset="1"/>
  </radialGradient>
  <radialGradient id="f" cx="468.95" cy="509.05" r="85.755" gradientTransform="matrix(.48992 .019073 -.0062539 .16064 -7.9574 126.17)" gradientUnits="userSpaceOnUse" xlink:href="#a"/>
  <radialGradient id="e" cx="322.25" cy="238.87" r="23.251" gradientTransform="matrix(.43021 -.0048613 .014959 1.3238 16.98 -215.58)" gradientUnits="userSpaceOnUse" xlink:href="#a"/>
  <radialGradient id="d" cx="100.53" cy="279.5" r="29.09" gradientTransform="matrix(.45902 .13231 -.33092 1.148 97.408 -211.66)" gradientUnits="userSpaceOnUse" xlink:href="#a"/>
 </defs>
 <path d="m151.85 85.623v-8.0932l-46.692 3.7354c-9.3946 5.7716-18.306 10.092-29.26 20.544l-24.28-2.4902c-13.16 12.674-13.926 29.067-10.583 46.692l26.147 8.7158c0.96684 5.5479 11.482 20.162 17.432 29.883l41.089 18.677 43.579 9.9609c-1.1632 7.3158 20.467 14.305 29.883 28.015l13.696-9.9609s17.743 1.0895 30.505 1.2451 19.922-3.1128 19.922-3.1128l32.373-9.9609 23.657-36.731-6.2256-46.692-13.696-3.7353-7.4707-14.319-42.334-17.432-9.9609-14.319c-20.373-2.7121-39.438-8.6935-62.878-3.7353l-24.902 3.1128z" fill="url(#b)" fill-rule="evenodd"/>
 <path d="m206.9 282.8c-4.9058-1.6378-19.496-8.7749-23.493-11.492-1.157-0.78652-3.3484-1.9936-4.8699-2.6824s-3.6258-2.0185-4.6763-2.9548-2.6789-1.9642-3.6188-2.284-2.2689-1.103-2.9534-1.7403c-1.6933-1.5766-4.0108-2.2364-8.5764-2.4416l-3.8519-0.1732 0.31132 2.5145 0.31132 2.5145-1.8343-2.2151c-1.0089-1.2183-3.98-4.4302-6.6024-7.1375s-5.5672-6.1407-6.5438-7.6297-2.0695-3.1503-2.4285-3.6918c-4.1583-6.2709-9.1964-15.467-10.496-19.159-0.38876-1.104-1.235-2.7826-1.8806-3.7302-1.154-1.6939-3.7083-10.692-3.7083-13.064 0-1.8463 1.3396-1.479 2.3164 0.63502l0.85293 1.8459 0.16949-2.4449c0.18217-2.6278-0.55776-3.7081-2.5398-3.7081-0.53995 0-1.439-0.41944-1.9979-0.93208s-2.2345-1.448-3.7235-2.0787-4.8116-2.3434-7.3836-3.8061c-3.821-2.173-12.967-6.1413-16.853-7.312-0.6523-0.19652-1.0983 0.30997-1.8811 2.1363-1.3343 3.113-2.1953 4.0149-4.3993 4.6084-1.1035 0.29714-2.0102 0.92571-2.3218 1.6096-0.28118 0.61713-4.0567 4.7873-8.3901 9.2671s-8.2664 8.8944-8.74 9.8104l-0.8612 1.6654-1.0614-1.3311c-1.3851-1.7371-2.2498-1.6796-5.4408 0.36168-2.3219 1.4853-2.7796 2.0585-3.7341 4.6763-1.1914 3.2675-1.7764 3.7018-2.1953 1.6298-0.64534-3.1924-0.99525-3.815-2.2154-3.9416-2.1811-0.22622-5.0345 1.867-6.3901 4.6877-1.3405 2.7894-2.1251 3.0588-2.376 0.81569-0.08851-0.79131-0.33256-1.6164-0.54232-1.8334-0.53314-0.55168-4.9326 0.60163-6.5249 1.7105-1.2165 0.84716-4.7573 2.1962-10.985 4.1852-8.3691 2.673-13.128 4.0898-15.506 4.616-1.489 0.3296-3.6128 1.1231-4.7195 1.7633s-2.1589 1.164-2.3381 1.164c-0.78665 0-0.21887-1.4895 0.90467-2.3732 1.7615-1.3856 1.5361-2.3018-0.73358-2.9818-1.4102-0.4225-2.048-0.92252-2.2614-1.7728-0.56364-2.2457 0.92515-2.9835 2.5028-1.2402 1.105 1.221 1.7179 1.2211 8.8577 4.6e-4 5.4585-0.93317 16.993-4.423 20.184-6.1066 0.8122-0.42852 1.7075-0.7805 1.9896-0.78217 0.76141-0.00449 9.1569-4.8679 10.439-6.0474 2.2237-2.0451 0.87109-3.1948-1.5334-1.3035-0.91324 0.71835-1.297 0.82358-1.297 0.35565 0-1.2392 1.3974-2.6674 3.533-3.6108 1.1703-0.51699 2.9916-1.5547 4.0475-2.306s2.0804-1.366 2.2766-1.366 3.9841-2.0252 8.4173-4.5005 9.3895-5.1235 11.014-5.8849 3.712-2.0519 4.6392-2.8677c1.5231-1.3402 1.6312-1.6033 1.1193-2.7267-0.76131-1.6709-0.30997-3.6608 1.9457-8.578 1.0419-2.2714 1.8944-4.4432 1.8944-4.8264s-0.85238-1.958-1.8942-3.4999-2.1627-3.3571-2.4909-4.034l-0.59672-1.2306 1.1948 1.305c0.65714 0.71772 1.6022 1.3834 2.1001 1.4793s1.0258 0.62274 1.173 1.1708 0.6702 1.4329 1.1621 1.9664 1.5122 1.8654 2.2673 2.9599c1.9709 2.8568 9.6794 7.7455 18.989 12.043 4.3317 1.9995 8.4296 4.0069 9.1064 4.4607 3.9873 2.6738 11.533 5.4239 12.775 4.6562 0.28358-0.17526 0.51561-0.67578 0.51561-1.1123s0.3041-1.1433 0.67578-1.5707c0.75021-0.8627 1.3464-5.0631 0.83586-5.8891-0.17932-0.29015-2.3095-0.66273-4.7337-0.82796-4.6441-0.31652-8.3474-1.2563-10.78-2.7357-1.9211-1.1683-14.521-14.5-16.558-17.519-2.8721-4.2575-9.4157-10.177-12.824-11.601-2.3488-0.98138-5.02-3.4092-7.8189-7.1065s-3.7565-7.5238-3.2277-12.89c0.20989-2.13 0.12836-3.7873-0.22438-4.5615-0.43269-0.94965-0.3761-1.8281 0.25842-4.0108 0.70007-2.4082 0.97786-2.7948 2.0081-2.7948 1.5522 0 1.5332-0.85178-0.03493-1.5663-2.2197-1.0114-1.6209-3.6364 2.2106-9.6901 1.0911-1.7239 2.1227-3.6877 2.2924-4.364 0.5365-2.1376 5.147-6.2222 9.3331-8.2685 3.3962-1.6602 4.5034-1.9453 8.807-2.2673 2.7073-0.2026 5.8084-0.59727 6.8914-0.87704 2.6238-0.67785 2.7101-0.66729 2.6896 0.32926-0.02187 1.0639-1.8182 3.2463-3.3049 4.0151-0.60915 0.315-1.1075 0.78645-1.1075 1.0477 0 0.82244 0.90266 0.51857 2.0721-0.69754 0.6201-0.64486 2.235-1.549 3.5887-2.0093s3.458-1.484 4.6763-2.2751 2.8372-1.8251 3.5975-2.2978 3.1254-1.9889 5.2556-3.3692 4.5346-2.7836 5.343-3.1185c0.83351-0.34525 1.5936-1.1021 1.7558-1.7483 0.33868-1.3494 1.7394-1.9078 6.8567-2.7333 3.5129-0.56668 3.8367-0.53927 5.8158 0.49228 1.1527 0.60081 3.2832 1.5366 4.7344 2.0796 2.422 0.90618 2.7099 0.92274 3.5065 0.20181 1.7543-1.5876 2.6773-8.9816 1.2672-10.152-0.85918-0.71306-9.1487-0.4715-25.088 0.73105-11.835 0.89293-16.327 1.7444-20.674 3.9187-1.8951 0.94799-4.1102 1.8671-4.9224 2.0424-1.45 0.31301-1.4575 0.3045-0.4142-0.46908 0.58438-0.43332 3.2425-1.9233 5.9069-3.3111s4.9321-2.6031 5.0393-2.7008 0.3668-1.2646 0.5768-2.593 0.84216-3.3682 1.4048-4.5328c1.2675-2.6234 1.3129-5.3629 0.11465-6.9115-2.0935-2.7056-4.4938-6.3593-6.4419-9.8055-1.1424-2.0209-3.1677-5.4086-4.5009-7.5282-2.525-4.0147-2.9319-5.4445-1.6855-5.9228 0.4061-0.15583 0.73836-0.81578 0.73836-1.4666 0-1.3526-2.117-8.0758-3.206-10.182-0.40064-0.77476-0.85823-2.2518-1.0169-3.2824s-0.90709-2.8705-1.6632-4.0888-1.5097-2.9454-1.6746-3.8381c-0.3909-2.1162-2.832-5.6368-6.0422-8.714-1.4121-1.3537-2.7136-3.0493-2.892-3.7682-0.39615-1.5955-1.9667-3.0874-3.9022-3.7066-1.8487-0.59144-2.072-1.3133-0.79989-2.5854 1.287-1.287 3.9314-1.3289 5.5021-0.08725 2.2199 1.7548 4.7252 4.2889 5.2975 5.3582 0.31524 0.58903 0.79117 2.2205 1.0576 3.6256 0.56094 2.9578 3.5223 8.5431 4.9287 9.2958 0.52927 0.28326 1.4319 1.449 2.0058 2.5906s1.3293 2.4078 1.6786 2.8139 0.8877 1.7351 1.1963 2.9534c1.2195 4.8146 2.0818 5.8548 3.4684 4.184 0.88382-1.065 2.1766-0.97114 1.6958 0.12306-0.90383 2.0573-0.79706 4.3115 0.26838 5.666 1.3114 1.6672 1.9736 1.6898 3.4504 0.11783 1.7781-1.8927 2.3206-1.5735 2.3206 1.3652 0 3.2106 1.1374 5.5223 3.3632 6.8356 1.4956 0.88245 1.8494 1.5279 3.1507 5.7492 0.80625 2.6153 1.714 5.9734 2.0172 7.4625s0.8652 3.7849 1.2489 5.102 0.70143 3.1999 0.70605 4.184c0.00511 1.0901 0.57892 2.7512 1.4683 4.2506 0.80296 1.3537 1.4637 3.1769 1.4683 4.0516 0.01145 2.1699 1.0079 2.3451 8.7221 1.5335 3.4648-0.36451 8.847-0.65058 11.96-0.63572 6.6722 0.03186 8.3399 0.60453 8.9777 3.0829 0.47291 1.8376 1.3091 1.8545 2.1929 0.04432 0.38836-0.79541 1.8482-1.7659 4.3071-2.8634 2.4859-1.1095 3.7196-1.9331 3.7196-2.483 0-1.5374 5.4658-5.4695 9.6379-6.9334l9.8056-3.4327c3.2488-1.1356 7.1252-2.2554 8.6142-2.4885 9.6899-1.5168 9.4563-1.502 10.39-0.65682 0.69192 0.62618 2.4423 0.87641 7.9241 1.1328l7.036 0.32911-1.8669 0.9459c-2.6689 1.3523-2.3487 2.6901 0.8824 3.687 1.3537 0.41765 3.015 1.1182 3.6918 1.5567s2.6436 0.93405 4.3706 1.1011c1.8084 0.17494 3.8161 0.72165 4.7344 1.2892 1.2548 0.77548 2.4523 0.98539 5.6217 0.98539 2.6353 0 4.5259 0.25783 5.4698 0.74595 0.92104 0.47629 3.0999 0.7877 6.0272 0.86142 3.3153 0.0835 4.9349 0.34493 5.8495 0.94422 0.69561 0.45581 3.0985 1.0798 5.3396 1.3867 5.2428 0.71784 9.1113 2.1817 11.247 4.2561 0.93469 0.90775 1.986 1.6505 2.3362 1.6505s1.6783 0.55377 2.9512 1.2306c1.7762 0.94439 3.0492 1.2306 5.4735 1.2306 2.687 0 3.4248 0.20229 4.9375 1.3537 1.6318 1.2421 2.0904 1.3429 5.5637 1.2229l3.7853-0.13071 1.4179 1.8426c0.77986 1.0134 1.5287 2.4013 1.664 3.0842 0.27018 1.363 3.7401 3.4 5.8538 3.4364 1.4388 0.02479 7.1288 1.6609 11.128 3.2 1.6244 0.62506 3.7983 1.2856 4.8309 1.4678 1.1265 0.19881 1.801 0.56616 1.6863 0.91841-0.23251 0.71371-3.8648 1.7238-6.3941 1.778-1.1451 0.02457-1.8343 0.27322-1.8154 0.65491 0.05666 1.1443 4.2506 3.7141 6.9892 4.2826 1.4802 0.30728 3.8843 1.3188 5.3424 2.2479s3.062 1.6949 3.5642 1.7018c1.1376 0.0157 5.6414 2.2415 6.9628 3.4411 0.9502 0.86257 6.9426 4.8115 17.228 11.353 10.823 6.8831 12.607 8.6477 13.332 13.18 0.32409 2.0268-0.53125 6.0025-1.2914 6.0025-0.2603 0-0.47327-0.78239-0.47327-1.7386 0-3.8687-2.9572-8.3919-5.7932-8.8612-3.0586-0.50614-4.5538-1.2821-5.318-2.76-0.40028-0.77406-0.89059-1.4074-1.0896-1.4074s-1.3227-1.2043-2.4972-2.6761c-2.4201-3.0329-4.5328-4.1114-5.7228-2.9214-0.40999 0.40999-0.75473 1.1173-0.76608 1.5717-0.01273 0.50986-0.3426 0.23233-0.86142-0.72475-0.46243-0.85306-1.9443-2.459-3.293-3.5687-2.6286-2.1628-4.7889-2.6248-5.5889-1.1952-0.4192 0.74905-0.58624 0.72471-1.8704-0.27251-6.2326-4.8401-7.2298-5.2504-8.5398-3.5138l-0.84101 1.115-1.1832-1.2009c-1.6668-1.6918-5.8935-5.063-7.2233-5.7614-0.61474-0.32285-1.3329-0.45401-1.5959-0.29147-0.74766 0.46208-1.76-0.31427-3.4471-2.6434-0.95095-1.3129-1.732-1.9707-2.0099-1.6928-0.55454 0.55454 1.1812 5.8435 2.3368 7.1204 0.44189 0.48829 0.85347 1.8328 0.91463 2.9878s0.28019 3.7059 0.48675 5.6687c0.36986 3.5147 0.04274 4.3824-1.1134 2.9534-0.52539-0.64936-2.5121-6.5617-3.8034-11.319-0.55927-2.0603-1.1313-3.0578-2.1083-3.6764-0.73741-0.46689-2.5239-1.7972-3.97-2.9562-2.178-1.7456-8.5798-5.2377-19.275-10.514-1.6747-0.82621-9.7061-3.5659-20.136-6.8691l-5.123-1.6224-0.86914 1.0734c-0.47803 0.59034-2.0443 1.8642-3.4807 2.8308l-2.6115 1.7574-3.4562-1.0893c-7.9524-2.5065-10.371-2.4755-11.293 0.1447-0.97533 2.7733 2.0976 4.3802 9.9818 5.2197 3.8816 0.41332 4.9922-0.01044 4.9922-1.9048 0-1.4336 0.85947-1.626 2.5932-0.58043 0.87495 0.52766 2.3763 1.21 3.3363 1.5164 1.3356 0.42618 1.8558 0.9315 2.2151 2.1517 0.43437 1.4752 0.87529 1.7491 5.8842 3.655 6.2132 2.3641 7.1303 2.5037 7.4871 1.1393 0.34017-1.3008 1.2367-1.2429 2.9394 0.18984 0.76758 0.64588 2.2109 1.515 3.2074 1.9313 1.0758 0.44951 2.2979 1.5221 3.0085 2.6405 1.5244 2.3994 2.3538 3.0977 6.1057 5.1406 2.6624 1.4497 3.1905 1.5837 4.0781 1.0352 0.56081-0.34659 1.2977-0.45735 1.6376-0.24612 1.7385 1.0805 7.2237 5.7014 7.2237 6.0854 0 0.24362 1.6613 2.159 3.6918 4.2564s3.6918 3.9822 3.6918 4.1884 0.43619 0.37491 0.96932 0.37491c1.9075 0 4.8399 2.0466 7.0971 4.9532 2.1688 2.7928 2.4142 3.436 4.456 11.676 2.4106 9.7287 2.6934 12.216 3.0374 26.713l0.24011 10.116-2.6606 3.9125c-1.4633 2.1519-3.5841 5.7663-4.7129 8.0321-4.9105 9.8566-10.53 18.341-14.944 22.561-3.8015 3.6348-7.5967 5.4798-12.434 6.0443-4.358 0.50862-10.426 2.1189-13.073 3.4692-1.122 0.57242-3.402 1.2601-5.0665 1.5282-3.7994 0.61188-10.165 0.09025-10.165-0.833 0-1.0644-0.79564-1.2414-2.2314-0.49651-0.74218 0.38504-3.0357 0.83548-5.0967 1.001s-5.1505 0.54243-6.8656 0.83766c-2.6272 0.45222-3.2356 0.41949-3.8629-0.20779-0.57887-0.57886-0.62403-0.96979-0.20295-1.7566 0.2979-0.55661 0.3749-1.1056 0.17112-1.22-0.91902-0.51577-3.6079-0.92605-7.1272-1.0875-3.7879-0.17379-4.8691 0.17968-5.3974 1.7645-0.10017 0.3005-0.83985 0.55274-1.6437 0.56051-3.5812 0.03465-10.914 1.0794-11.922 1.6984-1.4216 0.87359-1.4404 2.8156-0.0492 5.0881 0.58006 0.94756 1.2015 2.2662 1.381 2.9302 0.27479 1.0166 0.94392 1.3796 4.2351 2.2978 9.2971 2.5938 11.416 3.278 13.507 4.363 1.2183 0.63192 3.4728 1.3801 5.01 1.6626s3.8631 1.0598 5.1685 1.7273c2.0388 1.0425 3.3109 1.2591 9.0188 1.5357 3.6549 0.17709 7.97 0.52335 9.5892 0.76946s4.1411 0.30679 5.6042 0.13483c2.3499-0.27618 3.0975-0.6796 6.4086-3.4578 5.4815-4.5995 8.1388-6.3045 8.3371-5.3493 0.1751 0.84362-1.1368 2.8557-3.6522 5.6014l-1.6449 1.7955 1.3386 1.3486c0.73625 0.74171 1.7544 1.8262 2.2627 2.4099 0.85431 0.98125 1.2257 1.0369 4.9224 0.73704 3.8287-0.31053 4.0193-0.27706 4.4906 0.78888 0.30527 0.69037 1.4227 1.4566 2.942 2.0173 2.0694 0.7637 2.7658 0.81556 4.4858 0.33401 1.9073-0.53402 2.1167-0.48942 3.3117 0.70563 1.0192 1.0192 1.7502 1.2751 3.6362 1.2729 1.2983-0.00151 3.2218-0.24189 4.2745-0.53418 1.8975-0.52684 2.3509-0.3387 2.8935 1.2006 0.08096 0.22968 1.1729 0.53321 2.4266 0.67452 2.5015 0.28196 6.9338-0.8403 9.6231-2.4366 1.3906-0.82542 1.8372-0.87179 3.4457-0.35777 1.0164 0.32481 2.0584 0.78531 2.3156 1.0233 0.7738 0.71614 3.9068 0.48804 5.2067-0.37907 0.66939-0.44652 2.0277-1.5795 3.0185-2.5177s2.0133-1.575 2.2721-1.415c1.8666 1.1536-3.0939 7.0432-6.8313 8.1107-1.1906 0.34007-3.5412 1.0679-5.2235 1.6175-2.2472 0.73408-4.1408 0.97085-7.1375 0.89244-2.2433-0.05871-6.0748 0.04894-8.5144 0.23921-3.2601 0.25426-5.4126 0.14214-8.122-0.42309-2.0274-0.42297-4.5306-0.76921-5.5626-0.76943s-3.8008-0.53122-6.153-1.18c-10.011-2.7612-13.638-3.4053-15.575-2.7659-0.99811 0.3294-1.9352 0.91286-2.0824 1.2966-0.3792 0.98818 0.79161 3.5788 1.8809 4.1618 1.2052 0.645 1.2554 2.174 0.05555 1.6925-0.47378-0.19012-2.7442-0.50806-5.0455-0.70654s-4.6271-0.59547-5.1685-0.88222c-2.2145-1.1727-6.1437-2.2078-10.079-2.655-3.5494-0.40337-4.3958-0.35343-5.6737 0.33477-1.3856 0.74621-1.6344 0.74729-3.2119 0.01399-0.94046-0.43718-2.4626-1.3469-3.3825-2.0216-0.9284-0.68091-2.352-1.2282-3.1996-1.23-0.83984-0.00178-2.1915-0.44334-3.0037-0.98124s-2.114-0.97945-2.8928-0.98123-3.0212-0.88928-4.983-1.9722-4.0081-1.969-4.5474-1.969-1.5088-0.40991-2.1545-0.91092-2.6137-1.5154-4.3735-2.2543-4.8092-2.101-6.7764-3.027-4.0802-1.6836-4.6953-1.6836c-1.9008 0-4.5192-1.6644-8.9186-5.6692-3.8426-3.4979-4.1589-3.9213-3.4855-4.6654 1.1435-1.2636 0.93021-1.8649-1.7648-4.9758-2.3089-2.6652-2.4811-3.0371-2.1965-4.7431 0.27996-1.678 0.07439-2.1618-2.1973-5.1718-4.3342-5.743-9.9744-7.3725-15.988-4.6194-3.3501 1.5337-4.9532 1.636-5.6363 0.35954-0.43964-0.82147-1.1139-0.93959-5.542-0.97082-6.4898-0.04577-8.5812-0.35561-13.682-2.0269-10.976-3.5963-11.822-3.6109-10.871-0.18706 0.83226 2.9974 0.66696 5.3242-0.45006 6.3351-1.2796 1.158-1.2416 2.0229 0.18265 4.1576 0.64192 0.96212 2.8376 4.2966 4.8794 7.4101s4.2854 6.1978 4.9859 6.8541 1.2736 1.4648 1.2736 1.7965 1.186 1.6871 2.6354 3.0118 2.8967 2.8968 3.216 3.4935c0.96302 1.7994 4.3427 3.2108 8.4235 3.5177 2.9543 0.22219 3.6533 0.42515 3.4991 1.016-0.66065 2.5318 1.5208 5.1467 4.7241 5.6627 3.7256 0.60015 4.0551 0.72782 3.7736 1.4616-0.39972 1.0416 3.7772 3.527 6.596 3.9248 3.8511 0.54346 4.0468 0.65856 3.7386 2.1993-0.2346 1.173-0.02923 1.5296 1.3715 2.381 0.90607 0.55077 3.0243 1.4042 4.7071 1.8965 2.6708 0.78134 3.027 1.0254 2.8026 1.9198-0.36989 1.4738 1.483 3.5788 3.6397 4.1349 1.0007 0.25804 3.8078 0.62601 6.2378 0.81771 4.7424 0.37411 6.8385 1.3408 7.6866 3.545 0.23626 0.614 1.0017 1.3339 1.701 1.5998 1.98 0.75281 6.2555 0.58671 7.5096-0.29174 1.8872-1.3219 2.4466-0.51442 0.79076 1.1414-1.3203 1.3203-5.6417 3.1284-7.3054 3.0567-0.28927-0.01246-2.741-0.76216-5.4484-1.666zm112.36-19.847c0.14565-0.44293-0.56758-0.6153-2.546-0.6153-2.5534 0-3.5713 0.55474-2.133 1.1624 1.1175 0.47211 4.4729 0.07978 4.679-0.54709zm-75.808-40.073c2.0996-1.0488 2.4278-1.4619 3.6527-4.598 0.74022-1.8951 1.707-4.7747 2.1483-6.3991s0.98014-3.2857 1.1973-3.6918c0.23062-0.43131 0.11283-1.2501-0.28326-1.969-0.37294-0.67683-0.91249-1.7844-1.199-2.4612-1.999-4.7221-5.2017-7.7458-8.7017-8.2153-1.5883-0.21303-2.1043-0.07642-2.6539 0.70256-0.37527 0.53185-1.4311 1.3529-2.3463 1.8245l-1.664 0.8575 0.26733 2.9482c0.24485 2.7002 0.1638 3.038-0.96327 4.0151-0.67684 0.5868-1.5453 1.7314-1.9299 2.5436-0.8581 1.8122-2.7852 4.5807-4.1236 5.9242-0.54892 0.55099-0.99804 1.3658-0.99804 1.8107s-0.3578 1.1668-0.79511 1.6041c-0.73199 0.73199-0.72222 0.87577 0.12306 1.8111 1.8641 2.0628 3.7543 2.9864 7.9458 3.8828 5.0788 1.0861 7.2119 0.96416 10.324-0.59011zm15.629 0.57053c0.16964-0.27449-0.19858-0.48891-0.83237-0.4847-0.91441 0.00606-0.99225 0.10081-0.39823 0.4847 0.91593 0.59192 0.86477 0.59192 1.2306 0zm11.231-20.254c0.59134-0.31026 1.253-0.86531 1.4704-1.2334 0.2522-0.42712 0.83343-0.55936 1.6062-0.36541 1.8578 0.46628 2.6749-0.55905 2.6749-3.3568 0-2.0574-0.31265-2.8915-1.969-5.2527-1.0829-1.5438-1.969-3.3726-1.969-4.0639s-0.44302-1.7678-0.98448-2.3921-0.98448-1.3149-0.98448-1.5347 0.44301-0.6367 0.98448-0.92648c1.8997-1.0167 0.96708-4.3295-1.8513-6.576-1.3691-1.0913-1.2228-1.9072 0.41106-2.2929 2.2091-0.52151 1.4952-2.0758-1.5132-3.2945-4.6116-1.8682-7.1158-1.26-4.8509 1.1781l1.1591 1.2478-1.1075 0.7448c-1.4917 1.0031-1.5157 4.3068-0.04945 6.7919 0.70681 1.198 1.1027 2.8006 1.1926 4.8275 0.15717 3.5467 0.94694 7.8038 1.7134 9.236 0.79185 1.4796-0.40805 6.0124-1.4768 5.5789-0.42042-0.17054-1.6005-0.42888-2.6223-0.5741s-1.9763-0.45566-2.1211-0.68986c-0.37387-0.60494-2.6663-0.52986-2.6663 0.08732 0 0.28223 1.3844 1.1681 3.0765 1.9686 3.3322 1.5764 7.8032 1.9802 9.8772 0.89212zm-77.929-7.6172c1.7598-0.15515 4.1691-0.70366 5.3542-1.2189s2.5564-0.93684 3.0474-0.93684 1.0298-0.22151 1.1971-0.49224 0.83184-0.49224 1.4767-0.49224 1.3205-0.23945 1.5014-0.53212 0.82738-0.40701 1.4367-0.25408c0.74042 0.18583 1.4009-0.04581 1.9916-0.69848 0.48606-0.53709 1.3877-0.97652 2.0037-0.97652s2.5789-0.67529 4.3621-1.5007 3.4359-1.3809 3.6726-1.2346 1.4623-0.19037 2.7233-0.7482c1.6474-0.72873 2.7364-0.91385 3.8684-0.65759 1.8573 0.42044 3.4399 0.56431 9.6284 0.87533 4.1166 0.20689 4.7485 0.36689 5.9338 1.5025 0.72963 0.69903 1.5914 1.271 1.915 1.271 1.2025 0 0.51768-1.337-1.9004-3.7103-1.3688-1.3435-3.258-3.5973-4.1981-5.0085-1.3685-2.0542-2.32-2.8521-4.7718-4.0013-4.1352-1.9383-6.3608-2.286-14.035-2.1926-7.171 0.0873-9.2343 0.54669-15.209 3.3863-1.9461 0.9249-3.982 1.6816-4.5242 1.6816s-1.0983 0.18208-1.2358 0.40461-1.4765 0.43689-2.9755 0.47632-3.227 0.3979-3.84 0.79656-2.3328 0.87854-3.8218 1.0664-3.1503 0.58639-3.6918 0.8857-2.092 0.59047-3.4457 0.64703-3.5687 0.22401-4.9224 0.3721c-6.8044 0.7444-16.182-0.41254-19.16-2.3638-0.67834-0.44447-1.5809-0.80813-2.0056-0.80813-1.1318 0-6.9096-4.0189-7.4305-5.1685-0.31152-0.68747-1.0199-1.0316-2.3482-1.1406-2.3457-0.19254-4.1159 1.2586-4.4895 3.6805l-0.50933 3.299c-0.23492 1.5206 0.0256 1.9401 3.2095 5.1685 1.9058 1.9325 3.6846 3.5136 3.9528 3.5136s1.4266 0.43269 2.5743 0.96154c5.0523 2.3281 13.294 3.6778 28.422 4.6545 2.9766 0.19219 11.239-0.06562 16.244-0.50688zm101.09-5.8476c-0.15584-0.4061-0.13514-1.1246 0.04599-1.5966 0.29294-0.76342 0.43097-0.72346 1.2496 0.36182 1.2145 1.6101 1.7231 1.002 0.99842-1.1937-0.62975-1.9082-2.0273-2.5897-4.1948-2.0457-1.3505 0.33895-1.6963 1.9351-0.5641 2.6038 0.36657 0.2165 0.92814 0.89204 1.2479 1.5012 0.64438 1.2275 1.6652 1.5371 1.217 0.36918zm-164.55-7.6297c2.4759-6.4322 5.3513-16.558 5.3652-18.893 0.00463-0.78024-0.41758-2.1093-0.93824-2.9534-2.0464-3.3179-3.1613-11.888-1.9405-14.916 0.57716-1.432 1.5463-6.0227 2.3886-11.314 1.0637-6.6828 3.5023-11.352 7.3869-14.142 1.3077-0.93951 2.5009-2.1102 2.6515-2.6015s0.70447-3.6868 1.2308-7.101 1.4336-7.3156 2.0161-8.6697c1.4278-3.3191 0.91652-5.7252-1.2629-5.9429-1.0547-0.10535-1.7931 0.20424-2.6417 1.1075-0.64782 0.68957-1.6799 1.2538-2.2936 1.2538-1.6326 0-1.9783 0.99086-0.68589 1.9657 1.0038 0.75715 1.084 1.0995 0.76235 3.2551-0.59844 4.0108-1.4087 5.6973-4.7086 9.8005-4.3534 5.4133-8.5691 10.329-10.594 12.354-2.1071 2.1071-2.1575 3.5043-0.22283 6.175 2.654 3.6637 1.6959 7.982-2.3796 10.725-3.0255 2.036-3.1243 2.648-1.2853 7.961 0.69164 1.9982 1.4891 4.63 1.7721 5.8482s1.3042 5.0894 2.2692 8.6025c1.7136 6.2378 1.74 6.4685 1.1248 9.8448-0.86287 4.7361-1.1876 8.4349-0.82386 9.3828 0.53777 1.4014 1.9324 0.53693 2.8093-1.7415zm173.64-16.396c0.40013-0.48212 0.27999-0.8623-0.47741-1.5108-0.93082-0.79699-0.94914-0.93611-0.22827-1.7326 0.43109-0.47635 0.7838-1.2706 0.7838-1.765 0-0.86208-0.03962-0.86309-0.96615-0.0246-0.60157 0.54442-1.2981 0.74569-1.8459 0.53338-0.83496-0.32362-0.83234-0.37588 0.05147-1.0264 0.51218-0.377 1.1767-0.77878 1.4767-0.89284 0.32176-0.12232 0.14171-0.52698-0.43898-0.98658-1.2376-0.97951-3.8754-1.0372-4.6518-0.10169-0.32354 0.38985-1.0706 0.77749-1.66 0.86142-1.4487 0.20628-1.6975 2.3638-0.40721 3.5315 3.4394 3.1126 7.2023 4.5138 8.3637 3.1143zm-29.187-1.3335c0.91254-0.34695 1.2436-0.76321 1.0765-1.3537-0.13268-0.46896-0.32361-1.1562-0.42429-1.5271s0.48145-1.0548 1.2936-1.5197c0.88577-0.50696 1.4767-1.249 1.4767-1.8544 0-0.55505 0.38501-1.4363 0.85557-1.9583s1.0053-1.7099 1.1883-2.6397c0.24329-1.2361 1.3519-2.6829 4.1239-5.3823 4.2949-4.1823 5.9156-6.9074 4.8625-8.1763-0.35892-0.43247-2.4489-1.9816-4.6443-3.4425-3.5762-2.3797-4.2641-2.6562-6.6085-2.6562-2.912 0-6.4227 0.88341-6.4227 1.6162 0 0.26172 0.6267 0.35051 1.3927 0.19732 1.6948-0.33896 4.9529 0.71208 5.8004 1.8712 0.74261 1.0156 0.26964 2.5233-1.533 4.8866-0.67649 0.88694-1.23 1.8354-1.23 2.1076 0 1.0954-3.1031 4.684-4.4591 5.1567-1.1612 0.40481-1.4478 0.79227-1.4478 1.9577 0 0.79915-0.3467 2.1235-0.77045 2.9429s-0.92826 2.4143-1.1211 3.5442c-0.26784 1.5689-0.66731 2.206-1.6908 2.6966-0.73703 0.35325-1.34 0.94413-1.34 1.3131 0 0.71767 3.2296 2.0794 5.6608 2.3869l2.06 0.26051c0.32079 0.04057 1.1762-0.1517 1.901-0.42726zm-1.992-3.9292c-0.16733-0.27073-0.06965-0.49224 0.21706-0.49224s0.5213 0.22151 0.5213 0.49224-0.09768 0.49224-0.21707 0.49224-0.35397-0.22151-0.52129-0.49224zm-177.1-3.2895c0.19072-0.49702-0.39604-2.2196-1.4672-4.3071-1.8634-3.6316-2.8195-6.9415-2.8195-9.7612 0-1.1883 0.4913-2.2364 1.7228-3.6751 0.94756-1.107 1.7228-2.2591 1.7228-2.5602 0-0.3776 1.0312-0.45384 3.3226-0.24567 5.695 0.51737 13.128 0.58292 14.029 0.1237 0.47378-0.24159 1.2013-0.95803 1.6168-1.5921 1.142-1.7429 0.14478-3.4382-2.7564-4.6863-1.301-0.55968-2.6822-1.0176-3.0692-1.0176s-1.2336-0.38764-1.8812-0.86142c-2.1261-1.5555-3.3519-2.092-4.7797-2.092-1.3235 0-1.3991-0.11028-1.2663-1.8459 0.07767-1.0152 0.1543-2.1334 0.17028-2.4847s0.60171-1.1695 1.3016-1.8182c0.90942-0.84282 1.1809-1.4682 0.95131-2.1916-0.18722-0.58989-0.10204-1.0122 0.20415-1.0122 0.28898 0 0.52542-0.33226 0.52542-0.73836s-0.24734-0.73836-0.54965-0.73836c-0.32136 0-0.43384-0.44286-0.27082-1.0662 0.16945-0.64801-0.09831-1.5959-0.68265-2.4165-0.52882-0.74265-0.83723-1.6741-0.68537-2.0698 0.15682-0.40868-0.07766-0.85528-0.54275-1.0338-0.59097-0.22677-0.73322-0.65543-0.51115-1.5402 0.21836-0.86999 0.10725-1.226-0.38262-1.226-0.37968 0-0.79911 0.41597-0.93206 0.92438-0.17161 0.65626-1.2948 1.2382-3.8723 2.0062-5.0358 1.5005-8.6601 2.9542-9.306 3.7323-0.30008 0.36157-1.167 0.79388-1.9264 0.96068s-2.0427 1.1269-2.8517 2.1336c-1.81 2.2524-3.6416 5.7641-3.2241 6.1816 0.16996 0.16996-0.18224 0.83193-0.78266 1.471-1.0163 1.0818-1.0476 1.3059-0.45316 3.2445 0.42874 1.3983 1.0832 2.3138 1.9922 2.7866 0.74451 0.38727 1.3537 1.1143 1.3537 1.6157 0 1.599 1.3148 2.2729 3.1438 1.6115 0.88128-0.31867 1.9582-0.57941 2.3931-0.57941 1.1244 0 2.8312 2.3546 2.8312 3.9059 0 0.72154 0.25642 1.5683 0.56983 1.8817 0.41897 0.41897 0.42511 0.7442 0.0232 1.2285-0.30064 0.36225-0.598 2.1991-0.6608 4.0818-0.10814 3.242-0.03029 3.5144 1.4704 5.146 1.1663 1.268 1.392 1.7636 0.85513 1.877-0.40119 0.0848-1.1695-0.08133-1.7074-0.36918-1.4713-0.78742-4.4684-0.6558-4.801 0.21084-0.15496 0.40382 0.18425 1.524 0.75381 2.4893s1.0356 2.051 1.0356 2.4127c0 1.2054 1.3051 1.3583 4.239 0.49669 0.7238-0.21255 1.4556 0.08048 2.41 0.96496 1.5725 1.4574 3.0826 1.6456 3.5445 0.44193zm82.101-3.1743c6.7224 0.12937 12.556-1.6191 12.55-3.7616-0.00635-2.2076-5.3655-5.8967-14.767-10.165-10.495-4.7647-14.044-5.6344-19.1-4.6806-2.7455 0.51788-3.6428 0.95236-5.3806 2.6053-4.0348 3.8379-3.8866 7.3425 0.48547 11.474 1.4215 1.3434 3.1749 2.8285 3.8963 3.3004 1.6932 1.1075 8.2712 1.7915 13.702 1.4247 2.3012-0.15545 6.1776-0.24427 8.6142-0.19737zm136.88-4.8015c-0.37983-3.7289-1.1329-6.1577-2.9934-9.6549-1.5328-2.881-1.9466-3.3734-2.6321-3.1319-0.29015 0.10224 0.13605 1.5447 0.9981 3.378 2.0677 4.3974 3.1776 7.7131 3.5932 10.734 0.52931 3.8486 1.4421 2.6786 1.0343-1.3257zm-227.21-1.533c0-0.27073-0.22151-0.49224-0.49224-0.49224s-0.49224 0.22151-0.49224 0.49224 0.22151 0.49224 0.49224 0.49224 0.49224-0.22151 0.49224-0.49224zm158.72-5.1024c2.9917-1.4527 6.2701-2.9996 7.2853-3.4377 2.3791-1.0266 2.465-2.0226 0.13677-1.5858-1.1381 0.21351-2.2066 0.06341-3.1979-0.44925-0.81884-0.42345-3.317-1.0151-5.5514-1.3148-4.8731-0.65367-9.0708-2.7444-13.169-6.5589-1.489-1.386-3.8702-3.471-5.2916-4.6334s-2.5843-2.4348-2.5843-2.8274c0-0.9436-4.7739-5.7292-6.7182-6.7346-0.84183-0.43533-1.6614-1.1323-1.8212-1.5488s-1.1281-1.1393-2.1517-1.6062-3.168-1.7156-4.7653-2.7751-3.5909-2.0944-4.4302-2.2998-3.0765-0.96964-4.9716-1.6981-4.4353-1.641-5.6448-2.0278-2.4168-0.92089-2.6827-1.1868-1.0766-0.48354-1.8015-0.48354-1.5702-0.30385-1.8784-0.67523-1.609-0.82224-2.8906-1.0019c-4.9812-0.69831-5.6922-0.83634-6.4799-1.2579-0.92982-0.49763-8.5197-1.693-10.371-1.6335-4.1605 0.13379-9.416 1.6891-11.206 3.3163-0.07183 0.06529-0.47674 1.4259-0.89982 3.0236-0.63949 2.415-0.67022 3.3615-0.18218 5.6122 0.32288 1.489 0.79097 3.095 1.0402 3.5687 0.48107 0.91452 1.8952 1.1946 1.8952 0.37535 0-0.26733 0.94141-1.095 2.092-1.8392 4.718-3.0517 16.455-3.0261 22.401 0.04881 0.85062 0.43987 2.1878 0.79976 2.9714 0.79976 0.79973 0 1.8158 0.43193 2.3158 0.98448 0.49002 0.54147 1.1335 0.98665 1.43 0.98929 0.66555 0.00594 4.7837 2.0447 7.4304 3.6785 1.0829 0.66851 2.3488 1.3553 2.8129 1.5262s1.2832 1.0551 1.8199 1.9649c0.5766 0.97728 1.5314 1.7935 2.3334 1.9948 0.74662 0.18739 2.2128 1.1626 3.2582 2.1671s3.1097 2.4184 4.5872 3.1418c2.2118 1.083 2.9236 1.7654 4.0283 3.8623 2.0052 3.806 7.0106 8.2218 10.238 9.0317 0.7795 0.19564 2.8022 0.98367 4.4949 1.7512s3.9132 1.4176 4.9344 1.4445 2.4105 0.22641 3.0873 0.44317c2.1009 0.67282 2.5088 0.56454 8.0972-2.149zm22.663-7.2116c-0.17004-0.27514-0.51538-0.37283-0.76741-0.21706-0.68275 0.42196-0.55545 0.71733 0.30919 0.71733 0.42207 0 0.62827-0.22512 0.45822-0.50027zm-6.5665-4.3966c1.1923-0.52742 2.6881-1.5127 3.324-2.1895s1.7611-1.3635 2.5004-1.5259 1.6339-0.83626 1.9878-1.4975c0.54341-1.0154 0.52642-1.3368-0.10929-2.0684-1.2428-1.4302-1.5215-5.3624-0.49073-6.9237 0.48153-0.72935 1.1229-1.7691 1.4253-2.3106s0.84726-0.89604 1.2109-0.78794 1.3256 0.29284 2.1378 0.41054 2.1747 0.52766 3.0278 0.91101 1.7107 0.69699 1.9058 0.69699c0.38356 0 8.9676 4.2777 12.484 6.2214 1.1872 0.65618 2.2697 1.082 2.4054 0.94625 0.74575-0.74576-4.9135-4.7853-10.811-7.7169-11.533-5.7328-14.282-6.9224-21.608-9.3499-8.2871-2.7462-12.008-3.3614-13.494-2.2313-0.88298 0.6717-0.91312 0.86619-0.29233 1.8864 0.38068 0.62564 0.86126 1.4698 1.0679 1.8759 2.0627 4.0528 2.4133 5.2497 2.7172 9.2762 0.3199 4.2376 0.28475 4.4597-0.96513 6.0984-2.059 2.6996-1.6548 4.8072 0.922 4.8072 1.3336 0 1.8033 0.30811 2.6454 1.7353 1.6542 2.8036 4.2981 3.3768 8.0075 1.7359zm-104.7-15.952c-0.1797-0.71599-0.63498-1.3018-1.0117-1.3018-0.82084 0-0.888 1.1621-0.14715 2.5464 0.7288 1.3618 1.5828 0.44457 1.1589-1.2446zm57.658-25.749c4.6224-2.1896 5.0664-2.301 9.5415-2.3932 5.2111-0.10735 15.89-1.4762 17.267-2.2133 1.8405-0.98503 2.4693-1.9662 1.9189-2.9946-0.28519-0.53289-0.38063-1.4034-0.21209-1.9344 0.47639-1.501-1.8625-2.2181-3.698-1.1338-1.337 0.78975-1.5142 0.77207-4.2787-0.42686-3.9797-1.7259-6.9457-2.1993-7.3401-1.1715-0.42189 1.0995-0.66004 1.0266-4.0201-1.2296-3.0578-2.0532-5.8598-2.813-8.2046-2.2244-1.0503 0.26362-1.2603 0.60184-1.2603 2.0298 0 0.9424-0.14316 1.7135-0.31814 1.7135s-1.3391-0.95503-2.587-2.1223c-2.3846-2.2306-2.9504-2.417-11.616-3.8267-2.8213-0.45897-4.3822-0.41605-8.6142 0.23691-8.9738 1.3846-11.505 2.1475-13.313 4.012-1.1544 1.1911-1.4179 1.7236-0.92066 1.861 4.0878 1.1288 9.6494 3.304 13.987 5.4705 1.3537 0.67609 3.0506 1.2362 3.7711 1.2446 1.2384 0.01455 3.8586 2.3818 3.8586 3.4862 0 0.7385 2.7352 1.9124 6.7626 2.9024 2.1013 0.51652 3.957 0.95517 4.1238 0.97478s2.4849-0.99779 5.1513-2.2609zm-128.44 88.311c-1.7608-1.4189-3.3161-3.0228-3.4562-3.5643s-0.30718-2.535-0.37141-4.4302c-0.13348-3.9382 0.41243-4.4689 2.7255-2.6494 1.147 0.90226 1.3294 1.3468 1.1092 2.7036-0.28199 1.7377 1.0888 4.1298 2.3666 4.1298 1.2139 0 3.1055 2.7734 2.8397 4.1636-0.48535 2.5389-1.729 2.4547-5.2135-0.35321zm-14.405-13.73c-1.3257-1.9362-2.5711-3.7636-2.7676-4.061s-0.67033-1.3396-1.053-2.3162l-0.69575-1.7755-3.8044 0.24415c-5.1146 0.32823-10.701-1.3091-12.183-3.5711-0.53892-0.82214-1.5388-1.9164-2.222-2.4318-1.1948-0.90121-1.267-0.90303-1.8924-0.04771-0.46984 0.64256-0.8252 0.74787-1.2809 0.37963-0.34688-0.2803-1.6275-0.66954-2.8458-0.86499s-2.6027-0.69784-3.0765-1.1164c-1.025-0.90561-1.144-2.5774-0.18333-2.5774 0.37295 0 0.92453-0.29695 1.2257-0.65988 0.42592-0.5132 0.12343-1.0008-1.3608-2.1935-1.0496-0.84352-2.1439-2.209-2.4316-3.0345-0.5012-1.4377-0.44291-1.5418 1.3863-2.475l1.9095-0.97415-0.24155-2.592c-0.27113-2.9094 0.89433-5.9141 2.4031-6.1954 0.68691-0.12806 0.8792 0.22067 0.94918 1.7214 0.04827 1.0351 0.04487 2.325-0.00754 2.8665-0.24627 2.5442-0.55578 5.0987-0.84258 6.9543-0.27195 1.7595-0.16122 2.139 0.82592 2.8304 1.8212 1.2756 2.8899 1.0355 2.8899-0.6492 0-0.79621 0.20431-1.5739 0.45402-1.7283 0.65231-0.40314 1.8746-6.2551 2.2668-10.853 0.43933-5.15 1.2469-8.7114 3.4045-15.013 0.97323-2.8427 1.9072-6.3377 2.0755-7.7666s0.49631-2.7157 0.72887-2.8594c0.74839-0.46253 0.45069-1.6048-0.49663-1.9054-1.81-0.57448-3.4207 0.53773-4.0369 2.7875-0.93431 3.4114-4.3761 10.325-5.0329 10.109-1.0977-0.3604-0.972-3.688 0.21931-5.8076 1.2664-2.2532 1.0457-3.0046-1.3649-4.6484-0.79407-0.54146-1.5486-1.2016-1.6766-1.4671-0.31284-0.6483 3.8448-0.33054 4.984 0.38092 0.72314 0.45161 1.1032 0.31124 2.1159-0.78147 1.0678-1.1521 1.115-1.332 0.34973-1.332-0.48658 0-1.2531-0.40706-1.7033-0.90458-0.76497-0.84529-0.75937-0.95821 0.08553-1.7228 1.1882-1.0753 2.4132-1.0326 4.7646 0.16622 2.4083 1.2278 2.2959 1.234 4.477-0.24612 1.082-0.73424 2.5302-1.2376 3.5906-1.248 0.97747-0.00959 2.331-0.334 3.0078-0.72092 2.5501-1.4578 8.8272-0.51276 12.346 1.8586 0.92176 0.62118 1.7436 1.4807 1.8263 1.91 0.08398 0.43608-1.4067 2.3838-3.3772 4.4128-3.7713 3.8832-8.177 10.111-8.6326 12.203-0.15266 0.70091-0.59094 2.1095-0.97397 3.1303s-0.69641 2.7484-0.69641 3.8393-0.31092 2.5847-0.69095 3.3196-0.91224 3.5481-1.1827 6.2516c-0.5925 5.9223-0.20461 7.6996 5.1736 23.705 0.57449 1.7097 1.6412 3.6345 5.8864 10.622 0.12337 0.20305 0.13298 0.36918 0.02135 0.36918s-1.2876-1.5841-2.6133-3.5203zm26.714-69.167c-1.1049-1.1049 0.71404-5.0726 3.2166-7.0166 1.1457-0.88999 7.5472-2.5654 8.015-2.0977 0.13972 0.13972 0.25404 0.75833 0.25404 1.3747 0 1.4885-1.7611 2.6532-4.0117 2.6532-1.8522 0-3.4346 1.3169-4.0994 3.4116-0.15173 0.47805-0.8358 1.1243-1.5202 1.4361-1.46 0.6652-1.4315 0.66155-1.8543 0.23878z" fill="#0a0a08"/>
 <path d="m94.183 139.14c11.194 1.2857 13.12-8.5486 17.769-15.117 16.281-13.123 57.122-31.331 28.908-42.168-9.5038-3.6504-17.913 3.4267-29.703 11.139-10.542 6.8954-8.7519 10.012-16.178 14.852s-8.7519 0.79562-13.526 4.5085-6.2987 5.4368-8.2214 12.995-2.188 11.669 0.53041 17.239 10.343 5.039 10.343 5.039-0.1326 5.6357 3.4477 10.343 6.6302 7.0943 10.874 8.4867-7.2926-25.961-4.2433-27.316z" fill="url(#c)" fill-rule="evenodd"/>
 <path d="m57.339 125.92c3.203-10.237 15.575-23.112 15.575-23.112s-1.3817-6.0919-6.5316-6.0291-14.068 6.2803-14.068 6.2803-8.4729 5.1517-10.483 15.514 2.4438 25.936 2.4438 25.936 6.0919 6.4688 10.049 6.2803 5.7779-7.034 5.7779-7.034-5.9663-7.5992-2.7634-17.836z" fill="url(#d)" fill-rule="evenodd"/>
 <path d="m166.14 78.88s-8.6793 0-12.59 6.4856-3.0521 19.457-3.0521 19.457l0.76301 15.642-4.9596 8.7747s5.7226 2.5752 9.1562 1.1445 4.8642-4.3873 4.5781-6.8672-5.7226-3.0521-5.7226-3.0521l3.4336-16.405s-1.3353-8.8701 1.526-12.208 9.9192-1.1445 9.9192-1.1445l-3.0521-11.827z" fill="url(#e)" fill-rule="evenodd"/>
 <path d="m175.19 203.59c-0.98186 4.3089 27.525 13.25 49.228 16.023s36.604-0.62165 37.585-4.9306-11.955-9.5319-33.658-12.305-52.174-3.0966-53.156 1.2123z" fill="url(#f)" fill-rule="evenodd"/>
 <path d="m167.27 73.917c-0.22503-0.61476 10.666 5.794 43.236 20.376 11.951 5.3507 18.803 1.5319 41.525 8.1788 21.821 6.3833 29.939 12.323 43.729 22.573s16.34 13.531 16.34 13.531 6.4097 24.068 4.6777 31.323c-3.391 14.205 4.1454-22.625-23.481-42.528-13.325-9.5997-18.929-12.522-40.236-18.547s-29.198-3.7456-51.208-8.8268c-21.804-5.0338-39.269-15.76-39.269-16.16l4.6859-9.9181z" fill="url(#h)" fill-rule="evenodd"/>
 <path d="m192.09 152.65c4.3677-5.1131 3.6746 0.66544 0.03182 3.8145-8.0139 6.9277-15.596 8.9702-23.463 11.368-14.063 4.2873-27.532-2.4519-33.735 6.0717s-0.78445 24.415 7.8767 30.457c11.48 8.0077 38.59 8.1396 38.59 8.1396s15.914 5.7723 35.605 8.1999 23.791 3.6144 43.158 1.5105 34.31-9.9262 34.31-9.9262l-2.8052 5.8263s-13.649 5.8802-32.8 7.7684-14.285 8.1378-43.805-0.21579c-31.073-8.7933-59.427-8.7304-77.036-21.147-4.2335-2.9851-11.167-22.442-4.1-32.584s17.695-2.8592 32.368-7.9841 22.127-6.9936 25.805-11.299z" fill="url(#g)" fill-rule="evenodd"/>
</svg>
