<?xml version="1.0" encoding="UTF-8"?>
<!DOCTYPE svg  PUBLIC '-//W3C//DTD SVG 1.1//EN'  'http://www.w3.org/Graphics/SVG/1.1/DTD/svg11.dtd'>
<svg enable-background="new 0 0 1841.5 1730.512" version="1.1" viewBox="0 0 1841.5 1730.512" xml:space="preserve" xmlns="http://www.w3.org/2000/svg">
<style type="text/css">
	.st0{fill:#EB6400;}
	.st1{fill:#FFFFFF;}
</style>
	<path d="m1772.1 1192.1c-71.028 11.544-91.654 27.11-152.63-10.493-36.493-28.345-64.205-57.177-70.891-62.634 15.257 44.661 42.448 78.522 75.382 96.671-221.48 270.78-450.3 412.64-680.22 421.54-230.46 8.979-470.43-115.46-713.23-369.61 30.903-20.115 54.018-56.031 63.866-107.21-0.675 0.758-29.246 37.708-47.652 58.796-60.409 60.113-99.116 38.767-177.25 37.787 49.757 30.245 99.193 37.067 139.44 21.65l-3.189 3.027c241.72 254.68 482.03 383.61 714.77 383.61 8.098 0 16.231-0.162 24.31-0.474 239.92-9.292 477.3-156.58 705.54-437.75l-1.048-0.85c38.543 10.947 82.115 1.765 122.79-34.062z"/>
	<circle class="st0" cx="981.46" cy="1098.3" r="183.51"/>
		<circle cx="512.34" cy="487.06" r="234.56"/>
		<circle class="st1" cx="666.88" cy="488.44" r="40.013"/>
		<circle cx="1278.1" cy="487.06" r="234.56"/>
		<circle class="st1" cx="1432.6" cy="488.44" r="40.013"/>
	<path d="m270.88 204.21c136.21-178.96 349.6-187.44 476.02-11.038-201.87-132.26-276.85-113.1-476.02 11.038z"/>
	<path d="m1013.2 204.21c137.47-180.61 350.64-186.08 476.02-11.038-196.28-128.6-272.53-115.79-476.02 11.038z"/>
</svg>
